<svg xmlns="http://www.w3.org/2000/svg" width="16.047" height="14.011" viewBox="0 0 16.047 14.011">
    <g id="Group_41618" data-name="Group 41618" transform="translate(0 0)">
        <path id="Path_24747" data-name="Path 24747" d="M-3260.4,1528.673c-1.528,0-3.057.006-4.586-.007-.213,0-.584.139-.594-.21s.364-.227.574-.228c2.99-.009,5.981,0,8.972-.007a2.035,2.035,0,0,0,2.315-2.323c0-.465,0-.93,0-1.4a2.024,2.024,0,0,0-2.255-2.262c-2.1-.016-4.209,0-6.313,0-.177,0-.355,0-.531-.012-.107-.009-.231-.031-.245-.171-.017-.174.107-.235.249-.234,2.568.025,5.142-.146,7.7.084a2.227,2.227,0,0,1,1.843,2.294c.019.664.014,1.329,0,1.994a2.406,2.406,0,0,1-2.479,2.48C-3257.3,1528.687-3258.853,1528.673-3260.4,1528.673Z" transform="translate(3269.306 -1514.683)" fill="#613fb9"/>
        <path id="Path_24748" data-name="Path 24748" d="M-3257.395,1537.143c-1.417,0-2.834,0-4.251,0-.2,0-.526.094-.53-.22s.318-.233.523-.234q4.152-.007,8.3,0c.993,0,1.15-.166,1.163-1.159.029-2.138.008-2-1.992-1.992-1.7.009-3.41,0-5.115,0a1.684,1.684,0,0,1-.265,0c-.216-.035-.576.121-.57-.25.005-.315.34-.2.539-.2.4-.016.8,0,1.2,0,1.727,0,3.454,0,5.181,0,1.05,0,1.451.4,1.461,1.435,0,.443.008.886,0,1.329a1.17,1.17,0,0,1-1.323,1.3C-3254.516,1537.152-3255.955,1537.142-3257.395,1537.143Z" transform="translate(3266.351 -1524.462)" fill="#613fb9"/>
        <path id="Path_24749" data-name="Path 24749" d="M-3287.766,1512.138a2.93,2.93,0,0,1-.927,2.125,5.169,5.169,0,0,0-1.742,3.187c-.012.142-.051.287-.2.3-.2.02-.251-.142-.264-.307a5.313,5.313,0,0,0-1.83-3.28,2.877,2.877,0,0,1-.425-3.546,2.922,2.922,0,0,1,3.274-1.29A2.87,2.87,0,0,1-3287.766,1512.138Zm-2.9,4.214a9.786,9.786,0,0,1,1.914-2.728,2.384,2.384,0,0,0-.254-3.3,2.436,2.436,0,0,0-3.271-.041,2.408,2.408,0,0,0-.347,3.3A9.718,9.718,0,0,1-3290.663,1516.352Z" transform="translate(3293.574 -1503.797)" fill="#613fb9"/>
        <path id="Path_24750" data-name="Path 24750" d="M-3279.823,1487.58c-1.484,0-2.969-.005-4.453,0a1.719,1.719,0,0,0-1.894,1.7c-.021.183.057.475-.23.461-.331-.016-.222-.332-.217-.528a2.139,2.139,0,0,1,2.161-2.086c3.1-.023,6.2-.009,9.305-.006.182,0,.461-.068.45.234-.011.287-.286.219-.47.219C-3276.721,1487.582-3278.272,1487.58-3279.823,1487.58Z" transform="translate(3287.56 -1484.628)" fill="#613fb9"/>
        <path id="Path_24751" data-name="Path 24751" d="M-3269.85,1497.837c-1.593,0-3.186,0-4.78,0-.392,0-.768-.005-.886.485a.2.2,0,0,1-.242.169c-.176-.034-.176-.183-.156-.312.093-.6.512-.786,1.05-.79,1.2-.008,2.39-.008,3.584-.008q3.054,0,6.107,0a2.708,2.708,0,0,1,.527.041.274.274,0,0,1,.157.178c.033.132-.062.2-.184.216-.154.015-.309.017-.464.017Z" transform="translate(3278.27 -1493.527)" fill="#613fb9"/>
        <path id="Path_24752" data-name="Path 24752" d="M-3195.539,1469.879a1.483,1.483,0,0,1,1.034-1.393,1.5,1.5,0,0,1,1.659.512,1.427,1.427,0,0,1,.042,1.732,3.952,3.952,0,0,0-1.055,1.8.245.245,0,0,1-.176.158.235.235,0,0,1-.183-.141,3.858,3.858,0,0,0-1.091-1.854A1.209,1.209,0,0,1-3195.539,1469.879Zm1.5,1.626c.266-.311.515-.592.752-.881a1.034,1.034,0,0,0-.054-1.487,1.009,1.009,0,0,0-1.385-.014,1.03,1.03,0,0,0-.085,1.484C-3194.574,1470.9-3194.323,1471.177-3194.039,1471.505Z" transform="translate(3208.578 -1468.411)" fill="#613fb9"/>
        <path id="Path_24753" data-name="Path 24753" d="M-3278.721,1522.936a1.04,1.04,0,0,1,1.065,1.159,1.067,1.067,0,0,1-1.146,1.026,1.057,1.057,0,0,1-1.023-1.142A1.014,1.014,0,0,1-3278.721,1522.936Zm.647,1.064c-.061-.384-.273-.638-.644-.64a.627.627,0,0,0-.684.648.63.63,0,0,0,.669.664C-3278.31,1524.672-3278.135,1524.373-3278.074,1524Z" transform="translate(3281.655 -1515.684)" fill="#613fb9"/>
    </g>
</svg>
