<svg xmlns="http://www.w3.org/2000/svg" width="16.941" height="24.842" viewBox="0 0 16.941 24.842">
  <g id="Group_43442" data-name="Group 43442" transform="translate(-62.245 -457.292) rotate(30)">
    <path id="Path_24100" data-name="Path 24100" d="M288.236,372.155l6.693-.685a.982.982,0,0,0,.763-.506l3.692-6.755a.983.983,0,0,0-.967-1.449l-6.44.684a.984.984,0,0,0-.745.482l-3.945,6.757A.983.983,0,0,0,288.236,372.155Z" transform="translate(-0.043 -0.074)" fill="none" stroke="#aeb3bd" stroke-width="0.5"/>
    <path id="Path_24101" data-name="Path 24101" d="M294.236,379.813l6.693-.685a.982.982,0,0,0,.763-.506l3.692-6.755c.381-.7-.674-1.835-1.463-1.751l-3.382,6.29c-.311.033-6.67.939-6.828,1.209l-.423.726A.983.983,0,0,0,294.236,379.813Z" transform="translate(-3.034 -3.64)" fill="none" stroke="#aeb3bd" stroke-width="0.5"/>
    <path id="Path_24102" data-name="Path 24102" d="M299.236,387.813l6.693-.685a.982.982,0,0,0,.763-.506l3.692-6.755c.381-.7-.674-1.835-1.463-1.751l-3.382,6.29c-.311.033-6.67.939-6.828,1.209l-.423.726A.983.983,0,0,0,299.236,387.813Z" transform="translate(-5.506 -7.569)" fill="none" stroke="#aeb3bd" stroke-width="0.5"/>
  </g>
</svg>
