<svg id="_3D7yPz" data-name="3D7yPz" xmlns="http://www.w3.org/2000/svg" width="21.824" height="21.813" viewBox="0 0 21.824 21.813">
  <g id="Group_43358" data-name="Group 43358" transform="translate(0)">
    <path id="Path_25905" data-name="Path 25905" d="M-1773.875,859.534a10.518,10.518,0,0,1-3.708-.653,5.836,5.836,0,0,1-1.984-1.191,2.77,2.77,0,0,1-.786-1.21,2.138,2.138,0,0,1,.325-1.907,4.5,4.5,0,0,1,1.843-1.471,9.62,9.62,0,0,1,3.53-.879,11.445,11.445,0,0,1,3.688.316,7.392,7.392,0,0,1,2.378,1.039,3.485,3.485,0,0,1,1.19,1.282,2.108,2.108,0,0,1-.07,2.129,3.985,3.985,0,0,1-1.552,1.425,8.879,8.879,0,0,1-3.369,1.035A12.213,12.213,0,0,1-1773.875,859.534Z" transform="translate(1788.964 -852.192)" fill="#fefefe"/>
    <path id="Path_25906" data-name="Path 25906" d="M-2076.385,1192.777a10.966,10.966,0,0,1-4.111-.649,5.6,5.6,0,0,1-2.074-1.277,2.393,2.393,0,0,1-.783-1.937,2.526,2.526,0,0,1,.852-1.614,6.44,6.44,0,0,1,2.883-1.494,11.305,11.305,0,0,1,3.964-.32,9.865,9.865,0,0,1,2.9.672,5.525,5.525,0,0,1,1.893,1.2,2.6,2.6,0,0,1,.773,1.433,2.162,2.162,0,0,1-.367,1.561,4.265,4.265,0,0,1-1.615,1.381,8.971,8.971,0,0,1-3.15.95A9.848,9.848,0,0,1-2076.385,1192.777Z" transform="translate(2083.366 -1176.074)" fill="#fefefe"/>
    <path id="Path_25907" data-name="Path 25907" d="M-2083.512,1365.462a3.259,3.259,0,0,0,1.493,1.965,7.577,7.577,0,0,0,2.563,1.062,11.583,11.583,0,0,0,3.541.252,9.538,9.538,0,0,0,3.445-.876,4.633,4.633,0,0,0,1.8-1.418,2.782,2.782,0,0,0,.458-1.047c0,.193,0,.385,0,.577a6.542,6.542,0,0,1-.018.87,2.589,2.589,0,0,1-.842,1.53,6.027,6.027,0,0,1-2.385,1.347,11.111,11.111,0,0,1-4.2.49,10.139,10.139,0,0,1-2.942-.6,5.749,5.749,0,0,1-2.087-1.258,2.606,2.606,0,0,1-.81-1.488,9.265,9.265,0,0,1-.02-.967C-2083.517,1365.751-2083.512,1365.606-2083.512,1365.462Z" transform="translate(2083.514 -1350.982)" fill="#fefefe"/>
    <path id="Path_25908" data-name="Path 25908" d="M-2083.476,1456.347a3.249,3.249,0,0,0,1.647,2.1,8.107,8.107,0,0,0,2.923,1.058,11.7,11.7,0,0,0,4.062.009,8.373,8.373,0,0,0,2.749-.934,3.838,3.838,0,0,0,1.712-1.7,2.962,2.962,0,0,0,.187-.573c0,.184,0,.369,0,.553a7.381,7.381,0,0,1-.015.87,2.462,2.462,0,0,1-.663,1.366,4.889,4.889,0,0,1-1.571,1.134,9.5,9.5,0,0,1-3.276.864,11.572,11.572,0,0,1-3.6-.208,7.419,7.419,0,0,1-2.915-1.256,3.434,3.434,0,0,1-.991-1.112,2.189,2.189,0,0,1-.271-1.048c0-.337,0-.674,0-1.011C-2083.495,1456.423-2083.511,1456.384-2083.476,1456.347Z" transform="translate(2083.499 -1439.333)" fill="#fefefe"/>
    <path id="Path_25909" data-name="Path 25909" d="M-1767.346,1032.457c0,.189.006.379,0,.568a6.321,6.321,0,0,1-.033.966,2.714,2.714,0,0,1-.88,1.483,6.239,6.239,0,0,1-2.443,1.333,11.167,11.167,0,0,1-4.188.448,10.884,10.884,0,0,1-1.62-.249,1.363,1.363,0,0,1-.427-.167,7.485,7.485,0,0,0-1.924-.834,1.932,1.932,0,0,1-.765-.443,2.722,2.722,0,0,1-1-1.657,9.312,9.312,0,0,1-.021-1.178,1.7,1.7,0,0,1,.01-.232,3.339,3.339,0,0,0,1.708,2.123,8.281,8.281,0,0,0,2.986,1.046,11.5,11.5,0,0,0,2.726.136,9.5,9.5,0,0,0,3.875-1.025,4.742,4.742,0,0,0,1.224-.907A2.8,2.8,0,0,0-1767.346,1032.457Z" transform="translate(1789.163 -1027.393)" fill="#fefefe"/>
    <path id="Path_25910" data-name="Path 25910" d="M-1581.7,1124.013a9.044,9.044,0,0,1-.047,1.6,2.68,2.68,0,0,1-.861,1.4,6.206,6.206,0,0,1-2.417,1.32,10.664,10.664,0,0,1-3.876.467c-.044,0-.082,0-.093-.059a3.669,3.669,0,0,0-.639-1.445.361.361,0,0,1,.186,0,10.655,10.655,0,0,0,5.184-.716,4.779,4.779,0,0,0,2.125-1.575A2.541,2.541,0,0,0-1581.7,1124.013Z" transform="translate(1603.504 -1116.377)" fill="#fefefe"/>
    <path id="Path_25911" data-name="Path 25911" d="M-1560.125,1305.241a10.178,10.178,0,0,1,0,1.4,2.55,2.55,0,0,1-.89,1.609,6.388,6.388,0,0,1-2.668,1.4,10.738,10.738,0,0,1-3.537.4c-.1-.005-.128-.035-.125-.131.007-.192,0-.384,0-.575a1.754,1.754,0,0,0-.06-.485c-.061-.219-.012-.284.206-.273a10.771,10.771,0,0,0,3.577-.419,6.614,6.614,0,0,0,2.358-1.172,2.942,2.942,0,0,0,1.1-1.613C-1560.144,1305.338-1560.135,1305.289-1560.125,1305.241Z" transform="translate(1581.922 -1292.514)" fill="#fefefe"/>
    <path id="Path_25912" data-name="Path 25912" d="M-1559.793,1214.379a9.338,9.338,0,0,1,0,1.436,2.585,2.585,0,0,1-.9,1.588,6.159,6.159,0,0,1-2.339,1.291,10.633,10.633,0,0,1-3.874.493c-.083,0-.1-.033-.1-.109,0-.2,0-.4,0-.6a1.576,1.576,0,0,0-.054-.458.436.436,0,0,1-.02-.109c0-.178.006-.194.186-.184a10.71,10.71,0,0,0,3.525-.392,6.485,6.485,0,0,0,2.6-1.33,2.791,2.791,0,0,0,.948-1.49C-1559.809,1214.469-1559.8,1214.424-1559.793,1214.379Z" transform="translate(1581.587 -1204.204)" fill="#fefefe"/>
  </g>
</svg>
