<svg xmlns="http://www.w3.org/2000/svg" width="23.275" height="23.746" viewBox="0 0 23.275 23.746">
  <g id="Group_46581" data-name="Group 46581" transform="translate(-11853.612 -2047.968)">
    <g id="DzNo6n" transform="translate(11853.813 2048.168)">
      <g id="Group_43013" data-name="Group 43013" transform="translate(0 0)">
        <path id="Path_25565" data-name="Path 25565" d="M5519.712,555.145c-2.748,0-5.5-.035-8.245.013a3.074,3.074,0,0,1-3.182-3.162c.026-5.177.008-10.354.009-15.531a2.952,2.952,0,0,1,2.187-3.062c.178-.062.24-.141.227-.313a2.8,2.8,0,0,1,0-.362.932.932,0,0,1,.939-.914.948.948,0,0,1,.923.9c.037.577.037.578.624.579.784,0,1.571-.021,2.355.009.4.016.56-.07.548-.513a.918.918,0,0,1,1.244-.908.892.892,0,0,1,.61.981c-.016.371.119.449.466.44.879-.023,1.761-.021,2.64,0,.335.008.441-.09.439-.428a.92.92,0,0,1,1.2-1,.907.907,0,0,1,.662.986c-.015.354.088.46.449.448.839-.027,1.679-.009,2.519-.009.534,0,.534,0,.555-.524a.934.934,0,0,1,1.824-.291,2.009,2.009,0,0,1,.037.6c-.008.195.066.272.256.335a2.943,2.943,0,0,1,2.159,2.963c.011,2.253,0,4.506,0,6.759q0,4.486,0,8.973a2.966,2.966,0,0,1-2.311,2.971,3.382,3.382,0,0,1-.807.069h-8.326Zm.035-17.087q-5.322,0-10.644-.006c-.317,0-.439.058-.437.41.012,4.547.006,9.094.009,13.642a2.619,2.619,0,0,0,2.723,2.686q8.328.01,16.655,0a2.62,2.62,0,0,0,2.724-2.724c0-4.52,0-9.041.011-13.561,0-.391-.128-.454-.48-.453C5526.787,538.062,5523.267,538.057,5519.747,538.057Zm-.03-.376h7.431c1.1,0,2.192-.007,3.288.005.258,0,.362-.061.347-.334-.022-.388,0-.778-.007-1.166a2.614,2.614,0,0,0-1.641-2.336c-.281-.114-.418-.121-.4.244.023.414.013.831,0,1.246a.932.932,0,1,1-1.862-.007c-.006-.469-.009-.939,0-1.408.006-.207-.066-.283-.278-.282q-1.484.011-2.965,0c-.216,0-.28.082-.275.285.009.469.011.939,0,1.408a.9.9,0,0,1-.915.967.9.9,0,0,1-.955-.962c-.013-.455-.01-.912,0-1.367.006-.232-.059-.336-.319-.332q-1.441.02-2.883,0c-.246,0-.339.074-.331.32q.021.683,0,1.367a.9.9,0,0,1-.945.973.916.916,0,0,1-.932-.995c-.008-.456-.011-.912,0-1.367.008-.229-.074-.3-.3-.3-.961.01-1.922.014-2.882,0-.278,0-.344.1-.335.351.016.469.015.939,0,1.408a.931.931,0,0,1-1.86,0c-.01-.429-.021-.859,0-1.287.021-.332-.078-.4-.38-.269a2.587,2.587,0,0,0-1.6,1.892,12.409,12.409,0,0,0-.068,1.522c-.037.372.11.435.452.434C5512.652,537.676,5516.185,537.681,5519.717,537.681Zm3.266-3.6c0-.428,0-.857,0-1.285a.565.565,0,1,0-1.128-.021q-.022,1.285,0,2.57a.561.561,0,0,0,.574.6.572.572,0,0,0,.552-.619C5522.989,534.907,5522.982,534.491,5522.982,534.077Zm-5.379-.018h0c0-.4.007-.8,0-1.2s-.262-.681-.6-.666c-.312.015-.531.286-.534.684q-.007,1.184,0,2.369c0,.435.214.7.548.7.355,0,.579-.268.586-.721C5517.608,534.835,5517.6,534.447,5517.6,534.059Zm9.66-.021c0,.441,0,.882,0,1.323a.548.548,0,1,0,1.1.018c.012-.869.008-1.737,0-2.606a.53.53,0,0,0-.54-.579c-.316-.023-.546.229-.555.6C5527.257,533.209,5527.264,533.623,5527.264,534.038Zm-16.178.033h0c0,.428-.008.855,0,1.283a.546.546,0,0,0,.571.586.535.535,0,0,0,.526-.592c0-.855,0-1.711,0-2.566a.539.539,0,0,0-.533-.588.55.55,0,0,0-.565.594C5511.078,533.215,5511.086,533.643,5511.086,534.071Z" transform="translate(-5508.285 -531.812)" fill="#613fb9" stroke="#613fb9" stroke-width="0.4"/>
        <path id="Path_25566" data-name="Path 25566" d="M5576.488,679.5c-1.463,0-2.927-.019-4.39.005a2.08,2.08,0,0,1-2.3-2.1c.047-1.144,0-2.291.014-3.436a1.974,1.974,0,0,1,2.161-2c.417.006.522-.113.5-.48-.032-.48-.006-.963,0-1.444,0-.364.212-.5.583-.507s.584.146.587.5c.006.482.026.965-.006,1.444-.023.36.063.52.491.479a9.037,9.037,0,0,1,1.211,0c.238.009.316-.07.312-.289-.012-.52-.008-1.041,0-1.562,0-.439.149-.573.59-.57s.57.138.573.586c0,.521.008,1.041,0,1.562,0,.2.062.278.285.272.474-.012.948-.014,1.421,0,.254.008.3-.1.295-.3-.011-.52-.009-1.041,0-1.562.007-.417.18-.566.615-.559.407.006.552.144.561.564.01.481.022.964,0,1.445-.018.316.069.44.433.419a4.219,4.219,0,0,1,1.124.034,1.952,1.952,0,0,1,1.671,1.921c.007,1.158-.036,2.318.015,3.475a2.078,2.078,0,0,1-2.256,2.1C5579.472,679.486,5577.98,679.5,5576.488,679.5Zm6.343-2.376c-.012-1.2.064-2.314-.04-3.426a1.57,1.57,0,0,0-1.614-1.359q-4.68-.015-9.359,0a1.533,1.533,0,0,0-1.523,1.078,25.337,25.337,0,0,0-.122,3.857c.14-.141.188-.185.229-.232.547-.591.9-.586,1.439.024.316.359.412.354.767-.033.514-.561.9-.566,1.387-.017.369.416.438.416.815.005.511-.556.881-.554,1.388.007.361.4.421.4.791.006.544-.579.895-.576,1.417.01.337.378.419.379.76.005.543-.6.9-.594,1.437.01.316.355.419.356.741.009C5581.894,676.477,5582.206,676.471,5582.831,677.122Zm-6.314,2.017h4.512a1.77,1.77,0,0,0,1.423-.615c.431-.507.429-.672.019-1.193-.355-.448-.442-.449-.843-.01a.753.753,0,0,1-1.3-.009c-.4-.456-.463-.457-.876-.012-.484.521-.865.522-1.329,0-.4-.443-.444-.444-.844-.017-.508.543-.869.543-1.359,0-.384-.424-.446-.426-.817-.016-.508.563-.882.564-1.383.006-.368-.412-.451-.411-.822,0a2.445,2.445,0,0,1-.19.206.721.721,0,0,1-1-.008c-.646-.586-.646-.586-1.247.083a.681.681,0,0,1-.083.087c-.162.135-.143.28-.066.457a1.753,1.753,0,0,0,1.7,1.035C5573.51,679.141,5575.014,679.139,5576.517,679.138Zm-3.266-8.16c0-.271,0-.543,0-.814,0-.14,0-.256-.213-.247-.177.008-.2.1-.2.231q0,.795,0,1.589c0,.13.025.221.2.227.211.008.21-.113.209-.25C5573.25,671.47,5573.251,671.224,5573.251,670.979Zm2.769-.034c0,.273,0,.546,0,.819,0,.155.077.2.231.2s.174-.094.174-.206c0-.546,0-1.092,0-1.639,0-.12-.032-.2-.185-.2s-.225.06-.223.208C5576.023,670.4,5576.02,670.672,5576.02,670.945Zm3.581,0c0-.271,0-.543,0-.814,0-.141-.044-.218-.211-.212-.14,0-.2.06-.2.188,0,.555,0,1.111,0,1.666,0,.125.048.187.19.191.165.005.223-.059.22-.205C5579.6,671.487,5579.6,671.215,5579.6,670.944Z" transform="translate(-5564.994 -658.095)" fill="#613fb9" stroke="#613fb9" stroke-width="0.4"/>
        <path id="Path_25567" data-name="Path 25567" d="M5638.217,629.824a.939.939,0,0,1-.409.843.725.725,0,0,1-.776-.01.87.87,0,0,1-.378-.841,1.46,1.46,0,0,1,.3-.826,1.406,1.406,0,0,0,.27-.833c0-.127-.021-.277.146-.319.185-.046.243.1.307.23A4.429,4.429,0,0,1,5638.217,629.824Zm-.677-1.141a10.079,10.079,0,0,0-.5.981.627.627,0,0,0,.148.647.335.335,0,0,0,.4.049.558.558,0,0,0,.268-.6A2.79,2.79,0,0,0,5637.54,628.683Z" transform="translate(-5626.191 -620.067)" fill="#613fb9" stroke="#613fb9" stroke-width="0.4"/>
        <path id="Path_25568" data-name="Path 25568" d="M5598.818,629.742a1.251,1.251,0,0,1,.263-.7,1.459,1.459,0,0,0,.3-.9c0-.134,0-.271.165-.306.141-.029.21.075.264.181a4.635,4.635,0,0,1,.561,1.682.882.882,0,0,1-.671,1.062C5599.166,630.82,5598.8,630.435,5598.818,629.742Zm.889-1.081a5.352,5.352,0,0,0-.534,1.087.511.511,0,0,0,.358.638c.277.035.462-.163.476-.528A2.877,2.877,0,0,0,5599.707,628.661Z" transform="translate(-5591.439 -620.063)" fill="#613fb9" stroke="#613fb9" stroke-width="0.4"/>
        <path id="Path_25569" data-name="Path 25569" d="M5676.013,629.755c0,.525-.23.876-.623.951a.818.818,0,0,1-.935-.981,1.341,1.341,0,0,1,.19-.585,1.822,1.822,0,0,0,.385-1.152.185.185,0,0,1,.145-.2.219.219,0,0,1,.25.139A4.253,4.253,0,0,1,5676.013,629.755Zm-.67-1.128c-.174.427-.466.7-.524,1.086-.05.33.111.6.366.63.276.031.47-.168.472-.535A2.576,2.576,0,0,0,5675.343,628.626Z" transform="translate(-5660.905 -620.02)" fill="#613fb9" stroke="#613fb9" stroke-width="0.4"/>
      </g>
    </g>
  </g>
</svg>
