<svg xmlns="http://www.w3.org/2000/svg" width="22.73" height="18.701" viewBox="0 0 22.73 18.701">
  <g id="Group_33999" data-name="Group 33999" transform="translate(0 1.712)">
    <g id="Group_33995" data-name="Group 33995" transform="translate(0 0)">
      <path id="Path_21245" data-name="Path 21245" d="M250.268,349.1q-4.25,0-8.5,0c-1.961,0-2.852-.832-2.853-2.635q0-6.06,0-12.121c0-1.778.848-2.574,2.8-2.569.545,0,.875-.064,1.013-.63a1.294,1.294,0,0,1,2.346.01c.138.58.489.654,1.027.615.479-.034.964-.011,1.446-.006.671.006,1.353.144,1.538-.779.089-.444.661-.619,1.183-.576a1.1,1.1,0,0,1,1.1.835c.09.506.387.537.815.523.512-.016,1.025-.013,1.537,0,.709.015,1.416.14,1.626-.8.09-.4.626-.585,1.111-.561a1.1,1.1,0,0,1,1.142.784c.111.581.483.578.962.58,2.31.008,3.079.716,3.081,2.825q.005,5.854,0,11.708c0,2.026-.844,2.794-3.054,2.8Q254.427,349.1,250.268,349.1Zm.064-12.83c-3.255,0-6.51.015-9.764-.013-.631-.005-.813.16-.808.736.029,3.187.013,6.375.018,9.563,0,1.26.531,1.752,1.9,1.753q8.589.007,17.178,0c1.362,0,1.932-.511,1.936-1.748.009-3.188-.012-6.376.017-9.563.005-.573-.169-.748-.806-.743C256.78,336.282,253.556,336.267,250.331,336.268Zm-.041-.8c3.226,0,6.452,0,9.678-.009.284,0,.762.187.8-.276a3.342,3.342,0,0,0-.126-1.793c-.416-.869-1.268-.836-2.134-.908-.788-.065-.764.371-.905.817a1.171,1.171,0,0,1-1.155.784c-.528.026-1.1-.214-1.147-.638-.118-1.13-.936-.957-1.727-.94-.512.011-1.026.018-1.537,0-.4-.016-.587.091-.62.5a1.14,1.14,0,0,1-1.246,1.076,1.158,1.158,0,0,1-1.295-1.119c-.027-.37-.2-.46-.564-.454q-1.266.022-2.532,0c-.346-.005-.553.049-.594.428a1.3,1.3,0,0,1-2.583.011c-.038-.375-.224-.425-.576-.444-1.7-.09-2.249.468-2.272,2.2-.008.613.173.79.855.783C243.837,335.452,247.064,335.47,250.29,335.472Zm-5.945-3.23c0-.137,0-.273,0-.41,0-.318-.04-.656-.491-.63-.387.022-.4.343-.4.627,0,.3,0,.6,0,.9,0,.263.054.524.4.548.4.029.482-.248.492-.545C244.347,332.57,244.343,332.405,244.344,332.241Zm11.616.011c0,.137,0,.273,0,.41,0,.285.021.6.414.617.465.019.474-.328.476-.64s0-.6,0-.9c0-.268-.076-.527-.409-.54-.39-.015-.475.264-.48.563C255.96,331.925,255.962,332.089,255.96,332.253Zm-5.349.012c-.1-.382.19-1.02-.423-1.034-.733-.017-.438.656-.448,1.038-.01.36-.246.989.418.982C250.8,333.245,250.509,332.619,250.611,332.265Z" transform="translate(-238.913 -332.112)" fill="#613fb9"/>
      <g id="Rectangle_5773" data-name="Rectangle 5773" transform="translate(16.037 6.958)" fill="none" stroke="#613fb9" stroke-miterlimit="10" stroke-width="0.5">
        <rect width="2.724" height="2.655" rx="1.327" stroke="none"/>
        <rect x="0.25" y="0.25" width="2.224" height="2.155" rx="1.077" fill="none"/>
      </g>
      <g id="Path_21246" data-name="Path 21246" transform="translate(4.148 6.958)" fill="none">
        <path d="M1.327,0H1.4a1.327,1.327,0,0,1,0,2.655H1.327A1.327,1.327,0,0,1,1.327,0Z" stroke="none"/>
        <path d="M 1.327491879463196 0.4999988079071045 C 0.8712118864059448 0.4999988079071045 0.5000019073486328 0.8712087869644165 0.5000019073486328 1.327488780021667 C 0.5000019073486328 1.783768773078918 0.8712118864059448 2.15497875213623 1.327491879463196 2.15497875213623 L 1.396411776542664 2.15497875213623 C 1.852691888809204 2.15497875213623 2.223901748657227 1.783768773078918 2.223901748657227 1.327488780021667 C 2.223901748657227 0.8712087869644165 1.852691888809204 0.4999988079071045 1.396411776542664 0.4999988079071045 L 1.327491879463196 0.4999988079071045 M 1.327491879463196 -1.192092895507812e-06 L 1.396411776542664 -1.192092895507812e-06 C 2.129561901092529 -1.192092895507812e-06 2.723901748657227 0.5943388938903809 2.723901748657227 1.327488780021667 C 2.723901748657227 2.060638904571533 2.129561901092529 2.65497875213623 1.396411776542664 2.65497875213623 L 1.327491879463196 2.65497875213623 C 0.5943417549133301 2.65497875213623 1.9073486328125e-06 2.060638904571533 1.9073486328125e-06 1.327488780021667 C 1.9073486328125e-06 0.5943388938903809 0.5943417549133301 -1.192092895507812e-06 1.327491879463196 -1.192092895507812e-06 Z" stroke="none" fill="#613fb9"/>
      </g>
      <g id="Rectangle_5775" data-name="Rectangle 5775" transform="translate(10.092 6.958)" fill="none" stroke="#613fb9" stroke-miterlimit="10" stroke-width="0.5">
        <rect width="2.724" height="2.655" rx="1.327" stroke="none"/>
        <rect x="0.25" y="0.25" width="2.224" height="2.155" rx="1.077" fill="none"/>
      </g>
      <g id="Rectangle_5776" data-name="Rectangle 5776" transform="translate(16.037 11.528)" fill="none" stroke="#613fb9" stroke-miterlimit="10" stroke-width="0.5">
        <rect width="2.724" height="2.655" rx="1.327" stroke="none"/>
        <rect x="0.25" y="0.25" width="2.224" height="2.155" rx="1.077" fill="none"/>
      </g>
      <g id="Rectangle_5777" data-name="Rectangle 5777" transform="translate(4.148 11.528)" fill="none" stroke="#613fb9" stroke-miterlimit="10" stroke-width="0.5">
        <rect width="2.724" height="2.655" rx="1.327" stroke="none"/>
        <rect x="0.25" y="0.25" width="2.224" height="2.155" rx="1.077" fill="none"/>
      </g>
      <g id="Rectangle_5778" data-name="Rectangle 5778" transform="translate(10.092 11.528)" fill="none" stroke="#613fb9" stroke-miterlimit="10" stroke-width="0.5">
        <rect width="2.724" height="2.655" rx="1.327" stroke="none"/>
        <rect x="0.25" y="0.25" width="2.224" height="2.155" rx="1.077" fill="none"/>
      </g>
    </g>
  </g>
</svg>
