<svg xmlns="http://www.w3.org/2000/svg" width="11.134" height="11.724" viewBox="0 0 11.134 11.724">
  <g id="Group_46579" data-name="Group 46579" transform="translate(-6646.407 -1311.276)">
    <path id="Path_24945" data-name="Path 24945" d="M-4798.546,1526.012l-1.959-1.02,1.861-1.186c.01.2.019.386.027.57.006.148.005.148.151.141a4.671,4.671,0,0,0,4.376-3.846,4.672,4.672,0,0,0-3.345-5.3c-.112-.031-.142-.07-.117-.184.045-.2.071-.4.111-.606.033-.169,0-.152.164-.109a5.435,5.435,0,0,1,2.768,1.706,5.464,5.464,0,0,1,1.4,3.688,5.572,5.572,0,0,1-4.661,5.493,3.819,3.819,0,0,1-.67.066c-.111,0-.134.041-.125.14C-4798.556,1525.7-4798.554,1525.848-4798.546,1526.012Z" transform="translate(11450.653 -203.012)" fill="#613fb9"/>
    <path id="Path_24946" data-name="Path 24946" d="M-4739.749,1586.985c0-.541,0-1.082,0-1.622,0-.108.033-.14.135-.13a1.162,1.162,0,0,0,.229,0c.093-.009.112.031.111.117q0,1.6,0,3.2c0,.162.063.224.225.224.75,0,1.5,0,2.25,0,.094,0,.127.021.122.119a3.9,3.9,0,0,0,0,.434c0,.091-.027.115-.116.114-.727,0-1.454,0-2.182,0a.445.445,0,0,0-.267.07.456.456,0,0,1-.6-.1.461.461,0,0,1,.016-.606.272.272,0,0,0,.08-.211C-4739.75,1588.051-4739.749,1587.518-4739.749,1586.985Z" transform="translate(11391.48 -272.186)" fill="#613fb9"/>
    <path id="Path_24947" data-name="Path 24947" d="M-4748.81,1507.83a5.683,5.683,0,0,1,.582.028c.056.005.079.017.066.083-.047.246-.088.494-.13.742-.009.059-.031.08-.1.074a4.374,4.374,0,0,0-.855,0c-.06.006-.08-.01-.089-.068q-.062-.371-.132-.741c-.013-.067.011-.084.074-.09C-4749.2,1507.839-4749,1507.83-4748.81,1507.83Z" transform="translate(11400.782 -196.555)" fill="#613fb9"/>
    <path id="Path_24948" data-name="Path 24948" d="M-4897.016,1549.827c-.019-.014-.038-.025-.055-.039-.2-.163-.39-.329-.587-.49-.049-.04-.042-.064,0-.105a5.906,5.906,0,0,1,.9-.753c.049-.033.073-.032.1.023.125.222.253.442.381.662.021.036.033.063-.012.094a4.586,4.586,0,0,0-.69.577C-4896.988,1549.805-4897,1549.814-4897.016,1549.827Z" transform="translate(11545.618 -236.214)" fill="#613fb9"/>
    <path id="Path_24949" data-name="Path 24949" d="M-4896.8,1894.809c-.025-.015-.045-.025-.064-.037a5.793,5.793,0,0,1-.9-.756c-.035-.036-.046-.058,0-.1.2-.164.4-.331.6-.5.034-.028.057-.041.094,0a4.392,4.392,0,0,0,.68.573c.039.027.047.049.022.092-.133.226-.263.455-.395.682A.493.493,0,0,1-4896.8,1894.809Z" transform="translate(11545.715 -573.306)" fill="#613fb9"/>
    <path id="Path_24950" data-name="Path 24950" d="M-4942.877,1606.809l-.038.055a4.346,4.346,0,0,0-.42.73c-.027.062-.054.075-.12.05-.23-.089-.462-.173-.7-.254-.062-.022-.072-.046-.045-.106a5.862,5.862,0,0,1,.588-1.014c.031-.043.054-.053.1-.016.2.168.4.333.593.5C-4942.9,1606.768-4942.877,1606.779-4942.877,1606.809Z" transform="translate(11591.071 -292.706)" fill="#613fb9"/>
    <path id="Path_24951" data-name="Path 24951" d="M-4963.659,1764.962c.118,0,.236,0,.354,0,.065,0,.1.012.1.084a4.281,4.281,0,0,0,.151.853c.011.041.01.063-.033.078-.25.09-.5.18-.75.274-.047.018-.059,0-.071-.04a5.584,5.584,0,0,1-.211-1.189c0-.06.031-.058.071-.058Z" transform="translate(11610.525 -447.807)" fill="#613fb9"/>
    <path id="Path_24952" data-name="Path 24952" d="M-4829.006,1514.572c.052-.016.057.017.063.047.045.258.09.516.137.774.009.049-.011.066-.056.078a4.44,4.44,0,0,0-.822.3c-.051.025-.073.012-.1-.032q-.192-.337-.387-.671c-.02-.034-.028-.057.018-.079a5.468,5.468,0,0,1,1.142-.417Z" transform="translate(11479.654 -203.138)" fill="#613fb9"/>
    <path id="Path_24953" data-name="Path 24953" d="M-4943.526,1835.873c-.034,0-.043-.025-.056-.042a5.767,5.767,0,0,1-.595-1.023c-.029-.063,0-.078.047-.1.236-.085.472-.168.706-.258.064-.025.085,0,.109.05a4.3,4.3,0,0,0,.428.738c.035.047.033.073-.013.11-.194.159-.385.321-.578.483C-4943.494,1835.85-4943.512,1835.863-4943.526,1835.873Z" transform="translate(11591.051 -515.703)" fill="#613fb9"/>
    <path id="Path_24954" data-name="Path 24954" d="M-4963.6,1682.894c-.122,0-.243,0-.365,0-.056,0-.081-.008-.077-.074a5.879,5.879,0,0,1,.2-1.156c.018-.065.045-.071.1-.048.23.087.463.173.7.253.068.023.074.053.057.116a3.78,3.78,0,0,0-.143.807c0,.086-.039.108-.119.1C-4963.362,1682.889-4963.48,1682.894-4963.6,1682.894Z" transform="translate(11610.45 -366.357)" fill="#613fb9"/>
  </g>
</svg>
