<svg xmlns="http://www.w3.org/2000/svg" width="24.883" height="30.376" viewBox="0 0 24.883 30.376">
  <g id="Group_46581" data-name="Group 46581" transform="translate(-11776.697 -1158)">
    <path id="Path_9739" data-name="Path 9739" d="M248.715,443.882c-.438,0-.875,0-1.313,0-.237,0-.484-.018-.479-.344,0-.276.214-.337.438-.339q1.341-.007,2.682,0c.221,0,.437.052.45.327.016.323-.225.354-.466.356C249.59,443.885,249.152,443.882,248.715,443.882Z" transform="translate(11531.655 734.19)" fill="#613fb9"/>
    <path id="Path_9740" data-name="Path 9740" d="M308.572,446.6a2.179,2.179,0,0,1-.19.309c-.787.934-1.584,1.86-2.368,2.8-.225.27-.434.332-.723.093-.5-.414-1.012-.812-1.522-1.213-.194-.153-.363-.332-.185-.575s.4-.134.6.019.358.285.538.427c.867.689.867.689,1.6-.176q.777-.917,1.554-1.835c.125-.147.256-.294.484-.2A.374.374,0,0,1,308.572,446.6Z" transform="translate(11490.75 733.259)" fill="#613fb9"/>
    <path id="Path_9738" data-name="Path 9738" d="M249.247,428.745H247.42c-.237,0-.489-.007-.492-.33s.233-.357.477-.357q1.856,0,3.712,0c.262,0,.531.03.522.373-.009.317-.273.314-.507.315Q250.189,428.747,249.247,428.745Z" transform="translate(11531.651 746.504)" fill="#613fb9"/>
    <path id="Path_9737" data-name="Path 9737" d="M250.426,413.641H247.45c-.259,0-.534,0-.516-.364.016-.311.267-.325.507-.325h6.009c.246,0,.485.037.491.344s-.236.345-.481.344Z" transform="translate(11531.646 758.791)" fill="#613fb9"/>
    <path id="Path_9736" data-name="Path 9736" d="M251.167,398.566c-1.2,0-2.405,0-3.608,0-.261,0-.594.053-.6-.343s.332-.343.592-.344q3.608,0,7.216,0c.27,0,.59-.028.57.368-.018.346-.317.32-.566.32Z" transform="translate(11531.621 771.055)" fill="#613fb9"/>
    <path id="Path_9735" data-name="Path 9735" d="M251.1,381.63q-1.8,0-3.608,0c-.249,0-.542.027-.546-.334s.276-.354.534-.354h7.33c.264,0,.533.023.52.371-.011.314-.27.318-.508.318Z" transform="translate(11531.639 784.831)" fill="#613fb9"/>
    <path id="Path_9734" data-name="Path 9734" d="M230.561,352.471c0-4.013.021-8.027-.016-12.04-.008-.892.3-1.165,1.159-1.157,3.941.034,7.882.023,11.823.006a1.713,1.713,0,0,1,1.362.563q2.115,2.216,4.291,4.372a1.838,1.838,0,0,1,.6,1.445c-.028,2.7,0,5.392-.023,8.088a.872.872,0,0,0,.674.985,7.577,7.577,0,0,1,4.988,7.552,7.667,7.667,0,0,1-5.36,7.022,7.523,7.523,0,0,1-8.54-3.093,1.091,1.091,0,0,0-1.037-.535c-2.91.021-5.821.011-8.731.01-1.145,0-1.188-.04-1.189-1.176Q230.558,358.491,230.561,352.471Zm10.09,12.114a8.189,8.189,0,0,1-.279-4.169,7.575,7.575,0,0,1,7.47-6.154c.468-.007.864.084.85-.66-.046-2.45-.028-4.9-.009-7.353,0-.48-.146-.638-.622-.627-1.212.028-2.425,0-3.638.014-.616.009-.881-.256-.871-.88.019-1.133-.04-2.27.021-3.4.04-.747-.161-.991-.938-.981q-5,.067-10,0c-.829-.013-1,.258-.994,1.041.028,7.23.017,14.461.017,21.691,0,1.48,0,1.48,1.5,1.48Zm13.691-2.668a6.508,6.508,0,1,0-6.511,6.61A6.511,6.511,0,0,0,254.342,361.916Zm-9.69-20.579c0,.957,0,1.807,0,2.656,0,.241-.032.532.332.524a17.748,17.748,0,0,0,2.816-.076Z" transform="translate(11546.152 818.727)" fill="#613fb9"/>
  </g>
</svg>
