<svg xmlns="http://www.w3.org/2000/svg" width="19.007" height="18.988" viewBox="0 0 19.007 18.988">
  <g id="_7IFcbB" data-name="7IFcbB" transform="translate(0 0)">
    <g id="Group_42738" data-name="Group 42738" transform="translate(0 0)">
      <path id="Path_25354" data-name="Path 25354" d="M1984.538,638.373h-8.671a1.012,1.012,0,0,1-.841-.956,10.287,10.287,0,0,1-.043-1.052q-.006-3.519-.007-7.039a.409.409,0,0,1,.029-.163c.71-1.713,1.408-3.435,2.139-5.133.156-.363.324-.546.665-.51.52.054,1.045.03,1.567.046a.289.289,0,0,1,.325.26c.059.272-.052.485-.274.506s-.427.026-.641.034c-.34.012-.681.021-1.021.027-.064,0-.1.03-.13.1q-.959,2.336-1.922,4.669c-.061.149-.057.158.091.159q1.55.015,3.1.028c.709.006,1.417.011,2.126.018.179,0,.234.061.258.292.018.173.028.35.029.525,0,.667,0,1.333.005,2,0,.276.121.437.33.437h5.714c.161,0,.3-.183.3-.4q.005-1.171.01-2.341a1.115,1.115,0,0,1,.02-.261c.052-.2.1-.278.263-.278,1.7.006,3.405.013,5.108-.02.283-.005.26.014.135-.3-.6-1.513-1.232-3.006-1.851-4.507-.037-.089-.076-.124-.155-.126-.554-.012-1.109-.03-1.662-.047-.2-.006-.338-.341-.233-.557.077-.159.167-.273.341-.264.542.027,1.085.025,1.627.035.044,0,.087.008.13.005.172-.01.278.089.365.291.738,1.734,1.453,3.485,2.177,5.229a.485.485,0,0,1,.037.192q-.012,4.1-.02,8.2a.611.611,0,0,1-.076.254,1.4,1.4,0,0,1-.48.585.24.24,0,0,1-.162.032h-8.707Zm-.046-.791h8.587c.154,0,.3-.2.3-.409q0-3.426,0-6.852c0-.151-.031-.188-.145-.187q-2.411.008-4.822,0c-.121,0-.14.05-.14.192,0,.682.022,1.364-.016,2.046a1.036,1.036,0,0,1-.73,1.01,2.367,2.367,0,0,1-.39.038c-1.861.022-3.721.026-5.582-.027a1,1,0,0,1-.839-1.04c-.039-.691-.036-1.384-.04-2.076,0-.106-.022-.141-.106-.141q-2.423,0-4.846,0c-.093,0-.11.04-.11.151q0,3.465,0,6.929a.366.366,0,0,0,.061.206.325.325,0,0,0,.323.163Q1980.246,637.58,1984.492,637.582Z" transform="translate(-1974.975 -619.385)" fill="#613fb9"/>
      <path id="Path_25355" data-name="Path 25355" d="M2206.023,418.315a3.358,3.358,0,1,1,3.3-3.372A3.365,3.365,0,0,1,2206.023,418.315Zm-.034-.5a2.854,2.854,0,1,0-2.9-2.922A2.88,2.88,0,0,0,2205.989,417.812Z" transform="translate(-2196.44 -411.6)" fill="#613fb9"/>
      <path id="Path_25356" data-name="Path 25356" d="M2297.557,514.032a.176.176,0,0,1-.13-.053,12.46,12.46,0,0,1-.983-.93.228.228,0,0,1-.052-.284.208.208,0,0,1,.336-.092,4.744,4.744,0,0,1,.467.413c.08.071.158.145.24.213.1.082.1.08.172-.021q.581-.818,1.162-1.636c.086-.122.176-.241.267-.36a.21.21,0,0,1,.309-.036.218.218,0,0,1,.076.3c-.342.537-.715,1.053-1.087,1.57-.2.279-.4.559-.619.826A.2.2,0,0,1,2297.557,514.032Z" transform="translate(-2288.389 -509.253)" fill="#613fb9"/>
    </g>
  </g>
</svg>
