<svg xmlns="http://www.w3.org/2000/svg" width="30" height="30" viewBox="0 0 30 30">
  <g id="Group_46580" data-name="Group 46580" transform="translate(-3071 -1018)">
    <circle id="Ellipse_2412" data-name="Ellipse 2412" cx="15" cy="15" r="15" transform="translate(3071 1018)" fill="rgba(97,63,185,0.13)"/>
    <g id="Group_7057" data-name="Group 7057" transform="translate(3080.65 1027.95)">
      <path id="Path_10478" data-name="Path 10478" d="M177.6,165.583l3.515-3.515a1.036,1.036,0,1,1,1.465,1.464l-2.782,2.783,2.782,2.783a1.035,1.035,0,0,1-1.465,1.464l-3.515-3.515A1.036,1.036,0,0,1,177.6,165.583Z" transform="translate(-172.183 -161.765)" fill="#613fb9"/>
      <path id="Path_10479" data-name="Path 10479" d="M198.534,165.583l3.515-3.515a1.035,1.035,0,1,1,1.465,1.464l-2.782,2.783,2.782,2.783a1.035,1.035,0,0,1-1.465,1.464l-3.515-3.515A1.036,1.036,0,0,1,198.534,165.583Z" transform="translate(-198.231 -161.765)" fill="#613fb9" opacity="0.387"/>
    </g>
  </g>
</svg>
