<svg xmlns="http://www.w3.org/2000/svg" width="13.744" height="12" viewBox="0 0 13.744 12">
  <g id="Group_41618" data-name="Group 41618" transform="translate(3293.574 -1468.411)">
    <path id="Path_24747" data-name="Path 24747" d="M-3261.146,1527.684c-1.309,0-2.618,0-3.928-.006-.183,0-.5.119-.509-.18s.312-.195.492-.2c2.562-.008,5.123,0,7.685-.006a1.743,1.743,0,0,0,1.983-1.99c0-.4,0-.8,0-1.2a1.733,1.733,0,0,0-1.931-1.938c-1.8-.013-3.6,0-5.407,0-.152,0-.3,0-.455-.011-.091-.007-.2-.026-.209-.147-.014-.149.092-.2.213-.2,2.2.021,4.4-.125,6.6.072a1.907,1.907,0,0,1,1.578,1.964c.016.569.012,1.138,0,1.708a2.061,2.061,0,0,1-2.124,2.124C-3258.49,1527.7-3259.818,1527.684-3261.146,1527.684Z" transform="translate(-24.802 -47.29)" fill="#613fb9"/>
    <path id="Path_24748" data-name="Path 24748" d="M-3258.081,1536.557c-1.214,0-2.427,0-3.641,0-.172,0-.451.08-.454-.188s.272-.2.448-.2q3.556-.006,7.112,0c.851,0,.985-.142,1-.993.025-1.831.007-1.715-1.706-1.706-1.46.007-2.921,0-4.381,0a1.437,1.437,0,0,1-.227,0c-.185-.03-.494.1-.488-.214,0-.27.291-.168.461-.175.341-.014.683,0,1.024,0,1.479,0,2.958,0,4.438,0,.9,0,1.242.343,1.251,1.229,0,.379.007.759,0,1.138a1,1,0,0,1-1.133,1.116C-3255.615,1536.565-3256.848,1536.557-3258.081,1536.557Z" transform="translate(-27.822 -57.285)" fill="#613fb9"/>
    <path id="Path_24749" data-name="Path 24749" d="M-3288.6,1511.72a2.51,2.51,0,0,1-.794,1.82,4.427,4.427,0,0,0-1.492,2.73c-.011.122-.043.246-.168.259-.168.017-.215-.122-.226-.263a4.551,4.551,0,0,0-1.567-2.809,2.464,2.464,0,0,1-.364-3.037,2.5,2.5,0,0,1,2.8-1.1A2.458,2.458,0,0,1-3288.6,1511.72Zm-2.482,3.609a8.389,8.389,0,0,1,1.639-2.336,2.041,2.041,0,0,0-.218-2.828,2.086,2.086,0,0,0-2.8-.035,2.062,2.062,0,0,0-.3,2.826A8.319,8.319,0,0,1-3291.081,1515.329Z" transform="translate(0 -36.165)" fill="#613fb9"/>
    <path id="Path_24750" data-name="Path 24750" d="M-3280.8,1487.513c-1.271,0-2.543,0-3.814,0a1.472,1.472,0,0,0-1.623,1.456c-.018.157.049.407-.2.395-.283-.014-.19-.285-.186-.453a1.832,1.832,0,0,1,1.851-1.786c2.656-.02,5.313-.008,7.97,0,.156,0,.4-.058.385.2s-.245.188-.4.188C-3278.144,1487.515-3279.472,1487.513-3280.8,1487.513Z" transform="translate(-6.146 -16.574)" fill="#613fb9"/>
    <path id="Path_24751" data-name="Path 24751" d="M-3270.722,1497.772c-1.364,0-2.729,0-4.094,0-.336,0-.658,0-.759.416a.171.171,0,0,1-.207.145c-.15-.029-.151-.156-.134-.267.079-.514.439-.673.9-.676,1.023-.007,2.047-.007,3.07-.007q2.615,0,5.23,0a2.319,2.319,0,0,1,.451.035.234.234,0,0,1,.135.153c.028.113-.054.175-.158.185-.132.013-.265.014-.4.015Z" transform="translate(-15.64 -25.669)" fill="#613fb9"/>
    <path id="Path_24752" data-name="Path 24752" d="M-3195.539,1469.669a1.27,1.27,0,0,1,.886-1.193,1.283,1.283,0,0,1,1.421.438,1.223,1.223,0,0,1,.036,1.483,3.385,3.385,0,0,0-.9,1.542.21.21,0,0,1-.15.135.2.2,0,0,1-.157-.121,3.307,3.307,0,0,0-.934-1.588A1.034,1.034,0,0,1-3195.539,1469.669Zm1.284,1.393c.228-.266.441-.507.644-.755a.886.886,0,0,0-.046-1.273.864.864,0,0,0-1.187-.012.882.882,0,0,0-.073,1.271C-3194.713,1470.541-3194.5,1470.78-3194.254,1471.061Z" transform="translate(-86.867)" fill="#613fb9"/>
    <path id="Path_24753" data-name="Path 24753" d="M-3278.88,1522.935a.891.891,0,0,1,.912.993.914.914,0,0,1-.982.878.905.905,0,0,1-.877-.979A.869.869,0,0,1-3278.88,1522.935Zm.554.911c-.052-.329-.234-.547-.552-.548a.537.537,0,0,0-.585.555.54.54,0,0,0,.573.569C-3278.528,1524.423-3278.377,1524.166-3278.325,1523.847Z" transform="translate(-12.181 -48.313)" fill="#613fb9"/>
  </g>
</svg>
