<svg xmlns="http://www.w3.org/2000/svg" width="100.874" height="100.961" viewBox="0 0 100.874 100.961">
  <g id="Group_42937" data-name="Group 42937" transform="translate(6.064 -0.077) rotate(3)">
    <g id="Group_42936" data-name="Group 42936">
      <g id="Group_42931" data-name="Group 42931" transform="translate(1.476)">
        <rect id="Rectangle_15861" data-name="Rectangle 15861" width="0.401" height="2.462" transform="translate(64.487 12.53) rotate(-53.372)" fill="#aeb3bd"/>
        <rect id="Rectangle_15862" data-name="Rectangle 15862" width="0.401" height="6.324" transform="translate(57.787 7.55) rotate(-53.374)" fill="#aeb3bd"/>
        <path id="Path_25461" data-name="Path 25461" d="M196,114.6l-40.518,36.315,45.53-2.085,45.53-2.085-43.667-32.46A5.439,5.439,0,0,0,196,114.6Z" transform="translate(-155.485 -113.211)" fill="#dcdcdc"/>
        <path id="Path_25462" data-name="Path 25462" d="M196,114.6l-40.518,36.315,45.53-2.085,45.53-2.085-43.667-32.46A5.439,5.439,0,0,0,196,114.6Z" transform="translate(-155.485 -113.211)" fill="#fff" opacity="0.5"/>
      </g>
      <g id="Group_42932" data-name="Group 42932" transform="translate(0 31.79)">
        <path id="Path_25463" data-name="Path 25463" d="M244.643,257l-86.693,3.969a3.758,3.758,0,0,1-3.914-3.571l-2.42-52.862a3.757,3.757,0,0,1,3.571-3.913l86.693-3.969a3.757,3.757,0,0,1,3.913,3.571l2.421,52.862A3.757,3.757,0,0,1,244.643,257Z" transform="translate(-151.612 -196.647)" fill="#613fb9"/>
        <path id="Path_25464" data-name="Path 25464" d="M244.643,257l-86.693,3.969a3.758,3.758,0,0,1-3.914-3.571l-2.42-52.862a3.757,3.757,0,0,1,3.571-3.913l86.693-3.969a3.757,3.757,0,0,1,3.913,3.571l2.421,52.862A3.757,3.757,0,0,1,244.643,257Z" transform="translate(-151.612 -196.647)" fill="#fff" opacity="0.8"/>
      </g>
      <path id="Path_25465" data-name="Path 25465" d="M209.642,237.2l-40.316-33.276a1.788,1.788,0,0,1,1.057-3.166l38.712-1.772,38.711-1.772a1.788,1.788,0,0,1,1.342,3.056L212.04,237.087A1.789,1.789,0,0,1,209.642,237.2Z" transform="translate(-162.172 -165.204)" fill="#aeb3bd" opacity="0.2"/>
      <g id="Group_42934" data-name="Group 42934" transform="translate(6.504 4.544)">
        <rect id="Rectangle_15863" data-name="Rectangle 15863" width="69.177" height="46.645" rx="9.337" transform="matrix(0.951, 0.309, -0.309, 0.951, 14.853, 0.138)" fill="#613fb9"/>
        <g id="Group_42933" data-name="Group 42933" transform="translate(0 0)">
          <rect id="Rectangle_15864" data-name="Rectangle 15864" width="69.177" height="46.645" rx="9.337" transform="matrix(0.951, 0.309, -0.309, 0.951, 14.43, 0)" fill="#613fb9"/>
          <rect id="Rectangle_15865" data-name="Rectangle 15865" width="69.177" height="46.645" rx="9.337" transform="matrix(0.951, 0.309, -0.309, 0.951, 4.444, 0.523)" fill="#fff" opacity="0.2"/>
          <path id="Path_25466" data-name="Path 25466" d="M221.451,196.949l-9.586-3.118,33.9-38.023,9.586,3.118Z" transform="translate(-195.412 -144.121)" fill="#fff" opacity="0.2"/>
          <path id="Path_25467" data-name="Path 25467" d="M250.856,206.514l-5.592-1.819,33.9-38.024,5.592,1.819Z" transform="translate(-216.085 -150.846)" fill="#fff" opacity="0.2"/>
        </g>
        <rect id="Rectangle_15866" data-name="Rectangle 15866" width="0.445" height="46.921" transform="translate(36.274 6.961) rotate(18.017)" fill="#fff"/>
        <rect id="Rectangle_15867" data-name="Rectangle 15867" width="0.445" height="69.535" transform="matrix(-0.309, 0.951, -0.951, -0.309, 73.243, 43.426)" fill="#fff"/>
        <path id="Path_25468" data-name="Path 25468" d="M227.945,170.8a.149.149,0,0,1-.134-.085A76.327,76.327,0,0,0,223,162.871c-3.4-5.147-6.617-10.009-5.612-11.282.334-.422,1.05-.425,2.189-.008,5.064,1.853,9.6,12.025,8.512,19.094a.147.147,0,0,1-.125.124Zm-9.752-19.233a.69.69,0,0,0-.57.205c-.872,1.1,2.58,6.326,5.626,10.934a87.411,87.411,0,0,1,4.613,7.441c.8-6.928-3.542-16.516-8.385-18.289A4,4,0,0,0,218.193,151.568Z" transform="translate(-198.716 -141.313)" fill="#909090"/>
        <path id="Path_25469" data-name="Path 25469" d="M193.123,213.98a3.54,3.54,0,0,1-1.078-.151c-1.158-.371-1.72-1.384-1.668-3.01.043-1.343.869-2.694,2.458-4.014,4.249-3.531,13.252-6.1,18.525-5.292a.148.148,0,0,1,.1.229C208.3,206.473,198.041,213.98,193.123,213.98ZM209.2,201.657c-5.245,0-12.505,2.326-16.175,5.375-1.521,1.263-2.312,2.54-2.351,3.795-.047,1.478.445,2.393,1.462,2.719,4.054,1.3,15.484-6.829,18.945-11.775A14.469,14.469,0,0,0,209.2,201.657Z" transform="translate(-182.109 -172.319)" fill="#909090"/>
        <path id="Path_25470" data-name="Path 25470" d="M248.134,215.429h-.095a4.264,4.264,0,0,1-3.313-1.459c-2.045-2.457-1.452-7.636-.736-12.3a.148.148,0,0,1,.281-.041c.632,1.345,1.361,2.752,2.065,4.114,2.14,4.136,3.987,7.708,3.111,9.1A1.435,1.435,0,0,1,248.134,215.429Zm-3.923-13.235c-.671,4.469-1.155,9.3.743,11.585a3.93,3.93,0,0,0,3.094,1.352,1.2,1.2,0,0,0,1.149-.444c.786-1.249-1.114-4.92-3.124-8.806C245.444,204.664,244.8,203.409,244.211,202.194Z" transform="translate(-214.883 -172.432)" fill="#909090"/>
        <path id="Path_25471" data-name="Path 25471" d="M249.684,194.313a30.031,30.031,0,0,1-4.486-.324.148.148,0,0,1-.115-.2c.8-2.043,3.447-4.012,6.29-4.683a6.788,6.788,0,0,1,6.291,1.316c.805.726.765,1.32.589,1.691C257.563,193.566,253.709,194.313,249.684,194.313Zm-4.253-.589c5.464.8,11.759-.064,12.554-1.739.193-.407.018-.859-.52-1.343a6.5,6.5,0,0,0-6.025-1.247C248.766,190.025,246.278,191.828,245.431,193.724Z" transform="translate(-215.966 -164.581)" fill="#909090"/>
        <path id="Path_25472" data-name="Path 25472" d="M236.533,218.666c-.371,0-.783-.333-1.254-1.009-2.4-3.444-.742-11.946,3.107-15.96a.148.148,0,0,1,.253.128,59.216,59.216,0,0,0-.442,7.12c-.157,5.635-.344,9.354-1.487,9.695A.6.6,0,0,1,236.533,218.666Zm1.739-16.405c-3.535,4.059-5.013,11.975-2.749,15.227.452.648.833.95,1.1.868,1.023-.306,1.157-5.148,1.276-9.419C237.971,206.38,238.038,203.954,238.271,202.26Z" transform="translate(-209.212 -172.497)" fill="#fff"/>
        <path id="Path_25473" data-name="Path 25473" d="M258.458,204.876c-4.291,0-10.476-2.256-13.273-4.938a.148.148,0,0,1,.049-.245c4.456-1.728,15.632-1.813,17.755.987.58.765.485,1.672-.282,2.7a4.468,4.468,0,0,1-3.374,1.467C259.052,204.865,258.76,204.876,258.458,204.876Zm-12.894-4.989c3.029,2.749,9.615,5,13.745,4.66a4.2,4.2,0,0,0,3.16-1.349c.678-.9.773-1.691.283-2.338C260.772,198.246,249.99,198.308,245.565,199.886Z" transform="translate(-216.008 -170.53)" fill="#fff"/>
        <path id="Path_25474" data-name="Path 25474" d="M245.154,181.212a.148.148,0,0,1-.146-.173c.59-3.392,2.586-10.346,5.921-12.391a3.351,3.351,0,0,1,2.837-.406,1.434,1.434,0,0,1,1.091,1c.489,2.019-3.794,6.206-7.235,9.57-.877.857-1.7,1.666-2.361,2.351A.148.148,0,0,1,245.154,181.212Zm7.63-12.825a3.225,3.225,0,0,0-1.7.513c-2.722,1.669-4.826,7.14-5.7,11.71.594-.607,1.294-1.29,2.027-2.007,3.209-3.137,7.6-7.432,7.154-9.287a1.145,1.145,0,0,0-.89-.791A3.034,3.034,0,0,0,252.784,168.387Z" transform="translate(-215.925 -151.724)" fill="#fff"/>
        <path id="Path_25475" data-name="Path 25475" d="M226.987,195.067a8.442,8.442,0,0,1-3.087-.588,5.3,5.3,0,0,1-3.429-3.663c-.192-.84.109-1.21.4-1.372,1.508-.856,6.249,1.833,9.166,4.63a.148.148,0,0,1-.021.23A5.585,5.585,0,0,1,226.987,195.067Zm-5.4-5.488a1.178,1.178,0,0,0-.578.123c-.29.164-.375.517-.253,1.049a5.012,5.012,0,0,0,3.25,3.454,7.042,7.042,0,0,0,5.678-.047C227.01,191.64,223.281,189.578,221.59,189.578Z" transform="translate(-200.701 -164.842)" fill="#fff"/>
      </g>
      <path id="Path_25476" data-name="Path 25476" d="M205.546,268.864l-37.3,35.63,43.347-1.985,43.347-1.985-40.4-32.072A6.852,6.852,0,0,0,205.546,268.864Z" transform="translate(-161.908 -208.384)" fill="#909090" opacity="0.2"/>
      <g id="Group_42935" data-name="Group 42935" transform="translate(6.338 60.215)">
        <path id="Path_25477" data-name="Path 25477" d="M206.821,272.57l-38.575,34.573,43.347-1.985,43.347-1.985-41.573-30.9A5.178,5.178,0,0,0,206.821,272.57Z" transform="translate(-168.246 -271.248)" fill="#613fb9"/>
        <path id="Path_25478" data-name="Path 25478" d="M206.821,272.57l-38.575,34.573,43.347-1.985,43.347-1.985-41.573-30.9A5.178,5.178,0,0,0,206.821,272.57Z" transform="translate(-168.246 -271.248)" fill="#fff" opacity="0.676"/>
      </g>
    </g>
  </g>
</svg>
