<svg xmlns="http://www.w3.org/2000/svg" width="20.671" height="19.361" viewBox="0 0 20.671 19.361">
  <g id="Group_43455" data-name="Group 43455" transform="translate(-124 -867.475)">
    <g id="rCxKyN" transform="translate(4119.699 580.584)">
      <g id="Group_42293" data-name="Group 42293" transform="translate(-3995.699 286.89)">
        <path id="Path_25243" data-name="Path 25243" d="M-3990.441,290.561c.044-.294-.138-.4-.221-.548a2.1,2.1,0,0,1,.383-2.6,2.115,2.115,0,0,1,2.577-.156,7.4,7.4,0,0,1,2,2.189c.275.418.413.417.683,0a8.3,8.3,0,0,1,1.618-1.9,2.2,2.2,0,0,1,2.906-.174,2.106,2.106,0,0,1,.278,2.874c-.042.07-.067.15-.142.321,1.512,0,2.948,0,4.383,0,.939,0,.94,0,.941.969,0,.61-.017,1.22.008,1.829.018.441-.093.715-.6.642-.53-.077-.572.229-.571.647.01,3.569-.01,7.138.02,10.707.005.663-.146.9-.859.9q-8.335-.043-16.67,0c-.651,0-.852-.182-.846-.84.029-3.569.008-7.138.022-10.707,0-.485-.069-.794-.654-.706-.378.057-.52-.143-.512-.516.016-.768.028-1.537,0-2.3-.019-.475.152-.631.624-.624C-3993.539,290.575-3992,290.561-3990.441,290.561Zm3.347,9.362c0-1.763-.012-3.526.008-5.288.005-.445-.087-.647-.59-.64-1.943.025-3.887.019-5.831,0-.42,0-.54.143-.538.55q.019,5.322,0,10.645c0,.461.166.568.592.565,1.921-.017,3.842-.02,5.763,0,.475.006.615-.144.608-.614C-3987.107,303.4-3987.093,301.663-3987.094,299.923Zm3.458-.042c0,1.763.013,3.526-.009,5.288-.006.437.112.593.566.587q2.915-.032,5.831,0c.459,0,.566-.163.564-.592q-.021-5.288,0-10.577c0-.5-.193-.6-.635-.592-1.9.018-3.8.027-5.695,0-.529-.008-.641.181-.633.668C-3983.619,296.4-3983.635,298.141-3983.636,299.882Zm-.505.07v-4.263c0-1.7,0-1.667-1.691-1.7-.656-.014-.773.225-.768.812.025,3.045.012,6.09.012,9.136,0,1.844,0,1.822,1.827,1.827.531,0,.636-.181.629-.665C-3984.158,303.381-3984.142,301.666-3984.141,299.952Zm-6.986-8.9h-2.3c-1.833,0-1.815,0-1.8,1.869,0,.487.168.608.626.6,1.9-.021,3.794-.009,5.69-.009,1.878,0,1.862,0,1.83-1.9-.008-.458-.163-.58-.591-.572C-3988.823,291.061-3989.975,291.047-3991.127,291.048Zm11.563,2.463h2.236c1.847,0,1.827,0,1.828-1.834,0-.522-.173-.646-.667-.64-1.874.026-3.748.009-5.622.009-1.894,0-1.877,0-1.861,1.872,0,.493.185.607.632.6C-3981.867,293.495-3980.715,293.51-3979.564,293.511Zm-7.966-2.959v0h1.491c.285,0,.386-.118.219-.375a8.9,8.9,0,0,0-2.042-2.424,1.581,1.581,0,0,0-1.9-.11,1.571,1.571,0,0,0-.646,1.661,1.628,1.628,0,0,0,1.52,1.238C-3988.435,290.578-3987.981,290.552-3987.529,290.552Zm4.287,0c.429,0,.859.015,1.288,0a1.649,1.649,0,0,0,1.62-1.2,1.583,1.583,0,0,0-.6-1.682,1.606,1.606,0,0,0-2.01.141,9.27,9.27,0,0,0-1.945,2.332c-.184.28-.114.415.221.414Q-3983.954,290.555-3983.242,290.557Zm-.9,1.765c0-1.274,0-1.274-1.218-1.274s-1.229,0-1.229,1.2c0,1.268,0,1.268,1.286,1.268C-3984.141,293.511-3984.141,293.511-3984.141,292.321Z" transform="translate(3995.699 -286.89)" fill="#613fb9"/>
      </g>
    </g>
  </g>
</svg>
