<svg xmlns="http://www.w3.org/2000/svg" width="333.328" height="296.422" viewBox="0 0 333.328 296.422">
  <g id="Group_46582" data-name="Group 46582" transform="translate(-12210.658 -1193.672)">
    <g id="Group_46581" data-name="Group 46581">
      <g id="Group_42939" data-name="Group 42939" transform="translate(12137.986 1020.672)">
        <g id="Group_42915" data-name="Group 42915" transform="translate(72.672 173)" opacity="0.667">
          <g id="Group_42743" data-name="Group 42743" transform="translate(0 0)">
            <g id="Group_33017" data-name="Group 33017">
              <g id="Group_32946" data-name="Group 32946">
                <g id="Group_32934" data-name="Group 32934">
                  <path id="Rectangle_5866" data-name="Rectangle 5866" d="M15,0H318.328a15,15,0,0,1,15,15V296.422a0,0,0,0,1,0,0H0a0,0,0,0,1,0,0V15A15,15,0,0,1,15,0Z" fill="#fff"/>
                </g>
              </g>
            </g>
          </g>
        </g>
      </g>
      <g id="Group_42960" data-name="Group 42960" transform="translate(11956.193 1028.804)">
        <g id="Group_42959" data-name="Group 42959" transform="translate(284.936 183.87)">
          <path id="Path_25479" data-name="Path 25479" d="M1499.944,292.331c.051-.144,1.273-2.234,2.851-4.5,7.34-10.574,18.223-20.766,30.987-20.383l.009-.078a27.751,27.751,0,0,0-16.388,3.643c-8.188,4.414-16.166,12.826-20.531,19.291Z" transform="translate(-1317.608 -254.895)" fill="rgba(97,63,185,0.06)"/>
          <path id="Path_25480" data-name="Path 25480" d="M1705.306,202.271l.863-5.947-4.409-4.083a.826.826,0,0,1,.421-1.42l5.923-1.016,2.52-5.455a.826.826,0,0,1,1.481-.038l2.8,5.319,5.967.711a.826.826,0,0,1,.494,1.4l-4.194,4.3,1.168,5.895a.826.826,0,0,1-1.176.9l-5.389-2.659-5.245,2.932A.826.826,0,0,1,1705.306,202.271Z" transform="translate(-1491.964 -183.87)" fill="rgba(97,63,185,0.06)"/>
          <path id="Path_25481" data-name="Path 25481" d="M922.292,226.122l-.786,2.913,2.355,1.98-1.112,3.2,3.159,1.336-1.1,3.678,2.757,1.589-.477,3.711-1.4-.181.357-2.775-2.909-1.676,1.055-3.535-3.212-1.358,1.227-3.535-2.3-1.934.728-2.7-1.776-.954.67-1.248Z" transform="translate(-825.09 -218.606)" fill="rgba(97,63,185,0.06)"/>
          <g id="Group_42942" data-name="Group 42942" transform="translate(14.592 185.485)">
            <g id="Group_42941" data-name="Group 42941">
              <path id="Path_25482" data-name="Path 25482" d="M399.7,1440.938a9.235,9.235,0,1,1-13.042-.714A9.233,9.233,0,0,1,399.7,1440.938Z" transform="translate(-383.588 -1437.866)" fill="rgba(97,63,185,0.06)"/>
              <path id="Path_25483" data-name="Path 25483" d="M427.773,1491.976a4.937,4.937,0,1,0,7.354-6.59Z" transform="translate(-421.237 -1478.357)" fill="rgba(97,63,185,0.06)"/>
            </g>
          </g>
          <g id="Group_42944" data-name="Group 42944" transform="translate(0 149.697)">
            <path id="Path_25485" data-name="Path 25485" d="M305.59,1211.648l-2.413-1.369a13.475,13.475,0,0,1-2.267,2.734,1.688,1.688,0,0,1-2.309-.032l-.077-.074a1.685,1.685,0,0,1,.044-2.472,9.832,9.832,0,0,0,2.037-2.486c.821-1.448.824-2.755-.192-3.332-.965-.547-2.036-.08-3.737,1.439-2.455,2.2-4.777,3.333-7.241,1.936-2.235-1.268-3.095-3.836-2.087-6.857l-2.413-1.368,1.412-2.489,2.235,1.267a12.47,12.47,0,0,1,1.649-2.128,1.686,1.686,0,0,1,2.371-.026h0a1.687,1.687,0,0,1,0,2.427,8.977,8.977,0,0,0-1.582,2.052c-.936,1.651-.527,2.588.184,2.991.838.475,1.876-.111,3.913-1.809,2.781-2.418,4.869-2.844,7.155-1.548,2.261,1.282,3.284,3.977,2.135,7.186l2.591,1.469Z" transform="translate(-284.936 -1195.918)" fill="rgba(97,63,185,0.06)"/>
          </g>
          <path id="Path_25486" data-name="Path 25486" d="M1931.8,613.384l-1.6,3.981-6.69-1.862-3.053,5.533-5.234-.575-.291,2.65,7,.769,2.894-5.244,6.96,1.937,2.4-5.991Z" transform="translate(-1673.831 -549.853)" fill="rgba(97,63,185,0.06)"/>
          <g id="Group_42945" data-name="Group 42945" transform="translate(242.915 174.753)">
            <path id="Path_25487" data-name="Path 25487" d="M1930.677,1395.112l1.4-3.478a18.21,18.21,0,0,1-4.069-2.547,2.282,2.282,0,0,1-.37-3.1l.086-.117a2.278,2.278,0,0,1,3.32-.383,13.294,13.294,0,0,0,3.695,2.284c2.087.841,3.839.61,4.429-.854.561-1.391-.257-2.742-2.6-4.749-3.386-2.9-5.321-5.8-3.89-9.355,1.3-3.222,4.586-4.833,8.813-4.023l1.4-3.478,3.588,1.446-1.3,3.221a16.844,16.844,0,0,1,3.147,1.828,2.279,2.279,0,0,1,.459,3.172h0a2.28,2.28,0,0,1-3.251.44,12.108,12.108,0,0,0-3.032-1.752c-2.379-.959-3.561-.244-3.974.781-.487,1.208.485,2.493,3.124,4.919,3.737,3.293,4.683,6.015,3.355,9.309-1.312,3.258-4.74,5.111-9.245,4.147l-1.5,3.734Z" transform="translate(-1927.196 -1365.313)" fill="rgba(97,63,185,0.06)"/>
          </g>
          <path id="Path_25488" data-name="Path 25488" d="M516.39,662.236a1.23,1.23,0,0,1-.064,1.562,12.093,12.093,0,0,1-3.605,2.667,9.721,9.721,0,0,1-7.454.6,8.956,8.956,0,0,1-4.161-3.123l-1.364.665a.934.934,0,0,1-1.248-.43l-.017-.035a.934.934,0,0,1,.43-1.248l1.119-.545c-.222-.368-.377-.6-.479-.805a9.178,9.178,0,0,1-.491-1.275l-1.154.562a.934.934,0,0,1-1.248-.43h0a.934.934,0,0,1,.43-1.248l1.4-.682a9.587,9.587,0,0,1,.21-5.166,10.317,10.317,0,0,1,5.332-5.844,10.549,10.549,0,0,1,3.561-1.063,1.259,1.259,0,0,1,1.379,1.075l0,.021a1.263,1.263,0,0,1-1.088,1.427,9.032,9.032,0,0,0-2.765.865,6.721,6.721,0,0,0-3.484,3.775,5.605,5.605,0,0,0-.105,3.427l7.87-3.834a.934.934,0,0,1,1.248.43h0a.934.934,0,0,1-.431,1.248l-8.22,4c.152.4.305.8.424,1.049.153.315.307.63.546,1.032l8.237-4.013a.953.953,0,0,1,1.275.439h0a.953.953,0,0,1-.439,1.275l-7.887,3.843a5.934,5.934,0,0,0,2.591,1.854,6.564,6.564,0,0,0,5.242-.433,10.289,10.289,0,0,0,2.578-1.793,1.23,1.23,0,0,1,1.83.146Z" transform="translate(-465.256 -577.978)" fill="rgba(97,63,185,0.06)"/>
          <path id="Path_25489" data-name="Path 25489" d="M368.228,858.976l-4.073.413-1.389-6.479-6.029-.13-1.832-4.679-2.368.927,2.45,6.258,5.714.123,1.445,6.74,6.128-.622Z" transform="translate(-342.538 -749.851)" fill="rgba(97,63,185,0.06)"/>
          <g id="Group_42946" data-name="Group 42946" transform="translate(217 57.549)">
            <path id="Path_25490" data-name="Path 25490" d="M1754.827,577.132l2.557.843s4.054-1.314,4.454-2.14.512-2.831,1.088-2.886a1.747,1.747,0,0,1,1.957,1.505c.193,1-1.266,3.875-1.038,4.181a13.955,13.955,0,0,0,2.668,1.086,1.993,1.993,0,0,1,1.319,1.608v0a1.1,1.1,0,0,1-.685,1.179l-.736.284.235.76a1.1,1.1,0,0,1-.694,1.36l-.569.191.182.463a1.1,1.1,0,0,1-.708,1.45l-.5.144.021.133a1.1,1.1,0,0,1-.8,1.226l-.494.129-6.81-2.247a4.851,4.851,0,0,1-1.726-1l-2.262-1.194a.561.561,0,0,1-.263-.683l2.1-6.038A.56.56,0,0,1,1754.827,577.132Z" transform="translate(-1751.997 -572.941)" fill="rgba(97,63,185,0.06)"/>
          </g>
          <path id="Path_25491" data-name="Path 25491" d="M499.735,494.658c-.056-.161-1.421-2.494-3.183-5.029-8.194-11.805-20.344-23.183-34.593-22.756l-.01-.087a30.98,30.98,0,0,1,18.3,4.067c9.141,4.928,18.048,14.318,22.921,21.537Z" transform="translate(-435.766 -424.805)" fill="rgba(97,63,185,0.06)"/>
          <path id="Path_25492" data-name="Path 25492" d="M378.616,394.114l-.964-6.639,4.923-4.558a.922.922,0,0,0-.47-1.585l-6.612-1.135-2.813-6.09a.922.922,0,0,0-1.653-.042L367.9,380l-6.662.794a.922.922,0,0,0-.551,1.559l4.682,4.8-1.3,6.581a.922.922,0,0,0,1.312,1.006l6.016-2.968,5.856,3.273A.922.922,0,0,0,378.616,394.114Z" transform="translate(-349.262 -345.512)" fill="rgba(97,63,185,0.06)"/>
          <g id="Group_42947" data-name="Group 42947" transform="translate(252.223 145.242)">
            <path id="Path_25493" data-name="Path 25493" d="M1990.129,1184.331l.462-1.574a6.6,6.6,0,0,0,5.24-4.465,13.889,13.889,0,0,0,.488-2.249l-3.273-.943.582-1.983,2.956.851a21.661,21.661,0,0,1,.648-3.5,6.115,6.115,0,0,1,7.9-4.381,8.462,8.462,0,0,1,2.361,1.051,1.143,1.143,0,0,1,.317,1.58h0a1.175,1.175,0,0,1-1.594.348,7.112,7.112,0,0,0-1.74-.744c-2.479-.714-3.995.693-4.65,2.928a17.4,17.4,0,0,0-.607,3.477l4.577,1.318-.582,1.983-4.322-1.244a11.364,11.364,0,0,1-1.162,3.489,6.877,6.877,0,0,1-3.191,2.768l-.019.063,8.353,2.4a1.151,1.151,0,0,1,.793,1.429l-.024.083a1.166,1.166,0,0,1-1.443.785Z" transform="translate(-1990.129 -1165.797)" fill="rgba(97,63,185,0.06)"/>
          </g>
          <path id="Path_25494" data-name="Path 25494" d="M292.619,621.888l1.555-2.626-1.282-2.769a.419.419,0,0,1,.472-.585l2.977.667,2.238-2.075a.419.419,0,0,1,.7.268l.286,3.038,2.665,1.487a.419.419,0,0,1-.038.751l-2.8,1.21-.591,2.994a.419.419,0,0,1-.726.2l-2.017-2.29-3.03.363A.42.42,0,0,1,292.619,621.888Z" transform="translate(-291.432 -550.707)" fill="rgba(97,63,185,0.06)"/>
          <path id="Path_25495" data-name="Path 25495" d="M2167.1,948.533l-3.729-.3-.509,3.45-3.687-.134-.893,3.237-2.775.351.177,1.405,3.712-.469.846-3.067,3.836.14.5-3.393,3.38.273Z" transform="translate(-1878.821 -835.171)" fill="rgba(97,63,185,0.06)"/>
          <path id="Path_25496" data-name="Path 25496" d="M829.41,323.406l-.228-3.735-3.487-.018-.387-3.669-3.33-.428-.738-2.7-1.366.374.987,3.609,3.156.405.4,3.817,3.43.017.206,3.384Z" transform="translate(-740.749 -293.779)" fill="rgba(97,63,185,0.06)"/>
          <path id="Path_25497" data-name="Path 25497" d="M327.741,1107.69l2.819,1.076,2.208-2.143,3.074,1.43,1.648-3.007,3.548,1.464,1.859-2.583,3.644.85-.322,1.379-2.725-.635-1.962,2.725-3.411-1.407-1.676,3.058-3.393-1.578-2.156,2.093-2.613-1-1.129,1.67-1.173-.793Z" transform="translate(-319.912 -967.837)" fill="rgba(97,63,185,0.06)"/>
          <path id="Path_25498" data-name="Path 25498" d="M1445.486,326.423l-.183,2.272-3.688.11-.677,3.289-2.746.534.27,1.39,3.673-.713.642-3.117,3.836-.114.275-3.419Z" transform="translate(-1267.609 -305.337)" fill="rgba(97,63,185,0.06)"/>
          <g id="Group_42948" data-name="Group 42948" transform="translate(234.632 18.487)">
            <path id="Path_25499" data-name="Path 25499" d="M1889.266,311.823a10.674,10.674,0,1,1-15.093.315A10.674,10.674,0,0,1,1889.266,311.823Z" transform="translate(-1871.203 -308.852)" fill="rgba(97,63,185,0.06)"/>
            <path id="Path_25500" data-name="Path 25500" d="M1907.178,338.584l-4.542,1.4-1.425,4.533a.463.463,0,0,1-.821.128l-2.731-3.889-4.752.046a.463.463,0,0,1-.375-.741l2.854-3.8-1.512-4.505a.463.463,0,0,1,.589-.585l4.5,1.54,3.818-2.83a.463.463,0,0,1,.739.379l-.076,4.751,3.871,2.756A.463.463,0,0,1,1907.178,338.584Z" transform="translate(-1889.298 -326.689)" fill="rgba(97,63,185,0.06)"/>
          </g>
          <path id="Path_25501" data-name="Path 25501" d="M2166.353,664.016l2.5-.15a.37.37,0,0,0,.24-.592l-1.595-2.086.687-2.656a.334.334,0,0,0-.434-.424l-2.33,1.057-2.078-1.491a.335.335,0,0,0-.509.331l.155,2.739-1.972,1.735a.37.37,0,0,0,.12.628l2.426.637.86,2.563a.315.315,0,0,0,.584.058Z" transform="translate(-1883.411 -587.54)" fill="rgba(97,63,185,0.06)"/>
          <path id="Path_25503" data-name="Path 25503" d="M992.942,767.931c-.1.063-.476.174-.565.254l-.689.218a4.127,4.127,0,0,1,2.819,1.078A4.774,4.774,0,0,0,992.942,767.931Z" transform="translate(-887.149 -681.54)" fill="rgba(97,63,185,0.06)"/>
          <path id="Path_25504" data-name="Path 25504" d="M1539.975,762.05a4.773,4.773,0,0,0,1.2-2.719l.351-1.131c-.267-.124-5.543-1.124-7.143-1.239a2.925,2.925,0,0,0-.24,1.2c.178,1.32,1.458,9.9,1.458,9.9l4.57.3S1539.408,763.273,1539.975,762.05Z" transform="translate(-1349.36 -672.192)" fill="rgba(97,63,185,0.06)"/>
          <path id="Path_25505" data-name="Path 25505" d="M1549.073,762.423a6.347,6.347,0,0,0-1.991,1.69s-2.51-1.777-2.4-2.3c.153-.691,2.736.724,2.736.724Z" transform="translate(-1358.349 -676.167)" fill="rgba(97,63,185,0.06)"/>
          <path id="Path_25514" data-name="Path 25514" d="M1354.048,1116.164c-4.522.26-6.427.978-7.818.712s-5.1-1.589-5.034-2.98c4.968-.993,13.645.545,13.645.545C1354.245,1117.34,1354.048,1116.164,1354.048,1116.164Z" transform="translate(-1184.959 -976.047)" fill="rgba(97,63,185,0.06)"/>
          <path id="Path_25523" data-name="Path 25523" d="M1567.752,753.131c-.551-.964-1.372.027-.84,1.279a.267.267,0,0,1,0,.147,8.829,8.829,0,0,1-1.414,1.347s1.023,2.861,1.6,2.109a11.247,11.247,0,0,0,1.011-3.19Z" transform="translate(-1376.086 -668.599)" fill="rgba(97,63,185,0.06)"/>
          <g id="Group_42958" data-name="Group 42958" transform="translate(96.527 19.806)">
            <g id="Group_42953" data-name="Group 42953" transform="translate(0 37.262)" opacity="0.212">
              <g id="Group_42951" data-name="Group 42951" transform="translate(55.225 0.571)">
                <path id="Path_25541" data-name="Path 25541" d="M1324.609,573.559c-2.674.526-13.357,14.841-13.357,14.841l-.377.991s19.328-2.149,20.028-2.976C1332.794,584.185,1326.806,573.126,1324.609,573.559ZM1311.388,588.7c3.527-4.508,11.563-11.091,13.3-12.489a21.905,21.905,0,0,1,4.195,8.36C1326.661,585.034,1317.027,588.023,1311.388,588.7Z" transform="translate(-1310.876 -573.546)" fill="rgba(97,63,185,0.06)"/>
              </g>
              <g id="Group_42952" data-name="Group 42952" transform="translate(29.535)">
                <path id="Path_25542" data-name="Path 25542" d="M1150.728,572.714c-5.259-3.43-6.7-3.4-8.234-2.535s-7.182,8.974-4.657,11.5,22.554,4.331,22.554,4.331l.452-1.225S1155.985,576.144,1150.728,572.714Zm-9.41,8.076c-1.168-1.165,1.739-6.018,3.065-7.05.338-.19,13.813,8.384,15.694,11.313C1152.555,584.238,1142.405,581.756,1141.318,580.79Z" transform="translate(-1137.196 -569.688)" fill="rgba(97,63,185,0.06)"/>
              </g>
              <path id="Rectangle_15868" data-name="Rectangle 15868" d="M2.586,0h0A2.586,2.586,0,0,1,5.172,2.586V4.774A2.586,2.586,0,0,1,2.586,7.36h0A2.586,2.586,0,0,1,0,4.774V2.586A2.586,2.586,0,0,1,2.586,0Z" transform="translate(50.868 12.764)" fill="rgba(97,63,185,0.06)"/>
              <path id="Path_25543" data-name="Path 25543" d="M1033.139,679.5l-91.629-.274a3.977,3.977,0,0,0-3.943,4.575l1.418,9.35,4.593-.009,2.768,47.053a4.762,4.762,0,0,0,4.753,4.484h73.135l3.042-51.711,4.326-.009Z" transform="translate(-937.521 -663.02)" fill="rgba(97,63,185,0.06)"/>
              <path id="Path_25545" data-name="Path 25545" d="M1193.632,751.87H1137.5l-3.006-64.2h66.7l-2.8,59.74A4.725,4.725,0,0,1,1193.632,751.87Z" transform="translate(-1105.354 -670.215)" fill="rgba(97,63,185,0.06)"/>
              <path id="Path_25546" data-name="Path 25546" d="M1177.4,693.134l-72.405.192-1.653-13.931,70.929.272a3.976,3.976,0,0,1,3.945,4.33Z" transform="translate(-1078.815 -663.168)" fill="rgba(97,63,185,0.06)"/>
              <path id="Path_25547" data-name="Path 25547" d="M1114.516,772.471l69.059-.192-66.869,3.651Z" transform="translate(-1088.336 -742.312)" fill="rgba(97,63,185,0.06)"/>
              <rect id="Rectangle_15869" data-name="Rectangle 15869" width="1.921" height="13.759" transform="translate(53.35 16.336)" fill="rgba(97,63,185,0.06)"/>
              <rect id="Rectangle_15870" data-name="Rectangle 15870" width="2.402" height="51.721" transform="translate(58.923 30.03)" fill="rgba(97,63,185,0.06)"/>
            </g>
            <g id="Group_42954" data-name="Group 42954" transform="translate(1.765 22.296)">
              <path id="Path_25548" data-name="Path 25548" d="M951.036,472.826a155.861,155.861,0,0,0,16.915,5.548c1.732.46,4.6,1.771,6.2.6a1.887,1.887,0,0,0,.689-2.491c-.893-1.779-3.653-1.906-5.4-2.371-5.32-1.417-11.273-3.273-17.18-5.5a2.211,2.211,0,0,0-2.715,1.494,2.238,2.238,0,0,0,1.494,2.715Z" transform="translate(-949.453 -468.508)" fill="rgba(97,63,185,0.06)"/>
            </g>
            <g id="Group_42955" data-name="Group 42955" transform="translate(37.999)">
              <path id="Path_25549" data-name="Path 25549" d="M1200.7,334.559c-1.887-14.45-1.763-14.487-2.565-15.851a1.941,1.941,0,0,0-3.511.411c-.438,1.6-.338,1.343,1.7,16.54a2.268,2.268,0,0,0,2.736,1.636,2.308,2.308,0,0,0,1.636-2.736Z" transform="translate(-1194.418 -317.772)" fill="rgba(97,63,185,0.06)"/>
            </g>
            <g id="Group_42956" data-name="Group 42956" transform="translate(63.46 4.893)">
              <path id="Path_25550" data-name="Path 25550" d="M1370.61,364.6a33.417,33.417,0,0,0,3.625-6.179c.917-2.034,2.6-5.03,1.023-7.045a1.66,1.66,0,0,0-1.646-.463c-2.137.737-2.544,3.734-3.4,5.607a39.583,39.583,0,0,1-3.347,5.841,2.2,2.2,0,0,0,.753,2.992,2.231,2.231,0,0,0,2.991-.753Z" transform="translate(-1366.55 -350.852)" fill="rgba(97,63,185,0.06)"/>
            </g>
            <g id="Group_42957" data-name="Group 42957" transform="translate(86.121 26.495)">
              <path id="Path_25551" data-name="Path 25551" d="M1533.317,500.025a1.938,1.938,0,0,0-.656-2.605c-1.564-1.167-4.324-.09-6.03.38a38.261,38.261,0,0,0-5.778,2.148,2.22,2.22,0,0,0-.829,3,2.256,2.256,0,0,0,3,.829C1530.213,500.783,1531.721,502.216,1533.317,500.025Z" transform="translate(-1519.754 -496.895)" fill="rgba(97,63,185,0.06)"/>
            </g>
          </g>
        </g>
      </g>
      <g id="Character" transform="translate(12311.418 1201.265) rotate(3)">
        <g id="Group_42937" data-name="Group 42937" transform="translate(22.498 10.428)">
          <g id="Group_42936" data-name="Group 42936">
            <g id="Group_42931" data-name="Group 42931" transform="translate(1.476)">
              <rect id="Rectangle_15861" data-name="Rectangle 15861" width="0.401" height="2.462" transform="translate(64.487 12.53) rotate(-53.372)" fill="#aeb3bd"/>
              <rect id="Rectangle_15862" data-name="Rectangle 15862" width="0.401" height="6.324" transform="translate(57.787 7.55) rotate(-53.374)" fill="#aeb3bd"/>
              <path id="Path_25461" data-name="Path 25461" d="M196,114.6l-40.518,36.315,45.53-2.085,45.53-2.085-43.667-32.46A5.439,5.439,0,0,0,196,114.6Z" transform="translate(-155.485 -113.211)" fill="#dcdcdc"/>
              <path id="Path_25462" data-name="Path 25462" d="M196,114.6l-40.518,36.315,45.53-2.085,45.53-2.085-43.667-32.46A5.439,5.439,0,0,0,196,114.6Z" transform="translate(-155.485 -113.211)" fill="#fff" opacity="0.5"/>
            </g>
            <g id="Group_42932" data-name="Group 42932" transform="translate(0 31.79)">
              <path id="Path_25463" data-name="Path 25463" d="M244.643,257l-86.693,3.969a3.758,3.758,0,0,1-3.914-3.571l-2.42-52.862a3.757,3.757,0,0,1,3.571-3.913l86.693-3.969a3.757,3.757,0,0,1,3.913,3.571l2.421,52.862A3.757,3.757,0,0,1,244.643,257Z" transform="translate(-151.612 -196.647)" fill="#613fb9"/>
              <path id="Path_25464" data-name="Path 25464" d="M244.643,257l-86.693,3.969a3.758,3.758,0,0,1-3.914-3.571l-2.42-52.862a3.757,3.757,0,0,1,3.571-3.913l86.693-3.969a3.757,3.757,0,0,1,3.913,3.571l2.421,52.862A3.757,3.757,0,0,1,244.643,257Z" transform="translate(-151.612 -196.647)" fill="#fff" opacity="0.8"/>
            </g>
            <path id="Path_25465" data-name="Path 25465" d="M209.642,237.2l-40.316-33.276a1.788,1.788,0,0,1,1.057-3.166l38.712-1.772,38.711-1.772a1.788,1.788,0,0,1,1.342,3.056L212.04,237.087A1.789,1.789,0,0,1,209.642,237.2Z" transform="translate(-162.172 -165.204)" fill="#aeb3bd" opacity="0.2"/>
            <g id="Group_42934" data-name="Group 42934" transform="translate(6.504 4.544)">
              <rect id="Rectangle_15863" data-name="Rectangle 15863" width="69.177" height="46.645" rx="9.337" transform="matrix(0.951, 0.309, -0.309, 0.951, 14.853, 0.138)" fill="#613fb9"/>
              <g id="Group_42933" data-name="Group 42933" transform="translate(0 0)">
                <rect id="Rectangle_15864" data-name="Rectangle 15864" width="69.177" height="46.645" rx="9.337" transform="matrix(0.951, 0.309, -0.309, 0.951, 14.43, 0)" fill="#613fb9"/>
                <rect id="Rectangle_15865" data-name="Rectangle 15865" width="69.177" height="46.645" rx="9.337" transform="matrix(0.951, 0.309, -0.309, 0.951, 4.444, 0.523)" fill="#fff" opacity="0.2"/>
                <path id="Path_25466" data-name="Path 25466" d="M221.451,196.949l-9.586-3.118,33.9-38.023,9.586,3.118Z" transform="translate(-195.412 -144.121)" fill="#fff" opacity="0.2"/>
                <path id="Path_25467" data-name="Path 25467" d="M250.856,206.514l-5.592-1.819,33.9-38.024,5.592,1.819Z" transform="translate(-216.085 -150.846)" fill="#fff" opacity="0.2"/>
              </g>
              <rect id="Rectangle_15866" data-name="Rectangle 15866" width="0.445" height="46.921" transform="translate(36.274 6.961) rotate(18.017)" fill="#fff"/>
              <rect id="Rectangle_15867" data-name="Rectangle 15867" width="0.445" height="69.535" transform="matrix(-0.309, 0.951, -0.951, -0.309, 73.243, 43.426)" fill="#fff"/>
              <path id="Path_25468" data-name="Path 25468" d="M227.945,170.8a.149.149,0,0,1-.134-.085A76.327,76.327,0,0,0,223,162.871c-3.4-5.147-6.617-10.009-5.612-11.282.334-.422,1.05-.425,2.189-.008,5.064,1.853,9.6,12.025,8.512,19.094a.147.147,0,0,1-.125.124Zm-9.752-19.233a.69.69,0,0,0-.57.205c-.872,1.1,2.58,6.326,5.626,10.934a87.411,87.411,0,0,1,4.613,7.441c.8-6.928-3.542-16.516-8.385-18.289A4,4,0,0,0,218.193,151.568Z" transform="translate(-198.716 -141.313)" fill="#909090"/>
              <path id="Path_25469" data-name="Path 25469" d="M193.123,213.98a3.54,3.54,0,0,1-1.078-.151c-1.158-.371-1.72-1.384-1.668-3.01.043-1.343.869-2.694,2.458-4.014,4.249-3.531,13.252-6.1,18.525-5.292a.148.148,0,0,1,.1.229C208.3,206.473,198.041,213.98,193.123,213.98ZM209.2,201.657c-5.245,0-12.505,2.326-16.175,5.375-1.521,1.263-2.312,2.54-2.351,3.795-.047,1.478.445,2.393,1.462,2.719,4.054,1.3,15.484-6.829,18.945-11.775A14.469,14.469,0,0,0,209.2,201.657Z" transform="translate(-182.109 -172.319)" fill="#909090"/>
              <path id="Path_25470" data-name="Path 25470" d="M248.134,215.429h-.095a4.264,4.264,0,0,1-3.313-1.459c-2.045-2.457-1.452-7.636-.736-12.3a.148.148,0,0,1,.281-.041c.632,1.345,1.361,2.752,2.065,4.114,2.14,4.136,3.987,7.708,3.111,9.1A1.435,1.435,0,0,1,248.134,215.429Zm-3.923-13.235c-.671,4.469-1.155,9.3.743,11.585a3.93,3.93,0,0,0,3.094,1.352,1.2,1.2,0,0,0,1.149-.444c.786-1.249-1.114-4.92-3.124-8.806C245.444,204.664,244.8,203.409,244.211,202.194Z" transform="translate(-214.883 -172.432)" fill="#909090"/>
              <path id="Path_25471" data-name="Path 25471" d="M249.684,194.313a30.031,30.031,0,0,1-4.486-.324.148.148,0,0,1-.115-.2c.8-2.043,3.447-4.012,6.29-4.683a6.788,6.788,0,0,1,6.291,1.316c.805.726.765,1.32.589,1.691C257.563,193.566,253.709,194.313,249.684,194.313Zm-4.253-.589c5.464.8,11.759-.064,12.554-1.739.193-.407.018-.859-.52-1.343a6.5,6.5,0,0,0-6.025-1.247C248.766,190.025,246.278,191.828,245.431,193.724Z" transform="translate(-215.966 -164.581)" fill="#909090"/>
              <path id="Path_25472" data-name="Path 25472" d="M236.533,218.666c-.371,0-.783-.333-1.254-1.009-2.4-3.444-.742-11.946,3.107-15.96a.148.148,0,0,1,.253.128,59.216,59.216,0,0,0-.442,7.12c-.157,5.635-.344,9.354-1.487,9.695A.6.6,0,0,1,236.533,218.666Zm1.739-16.405c-3.535,4.059-5.013,11.975-2.749,15.227.452.648.833.95,1.1.868,1.023-.306,1.157-5.148,1.276-9.419C237.971,206.38,238.038,203.954,238.271,202.26Z" transform="translate(-209.212 -172.497)" fill="#fff"/>
              <path id="Path_25473" data-name="Path 25473" d="M258.458,204.876c-4.291,0-10.476-2.256-13.273-4.938a.148.148,0,0,1,.049-.245c4.456-1.728,15.632-1.813,17.755.987.58.765.485,1.672-.282,2.7a4.468,4.468,0,0,1-3.374,1.467C259.052,204.865,258.76,204.876,258.458,204.876Zm-12.894-4.989c3.029,2.749,9.615,5,13.745,4.66a4.2,4.2,0,0,0,3.16-1.349c.678-.9.773-1.691.283-2.338C260.772,198.246,249.99,198.308,245.565,199.886Z" transform="translate(-216.008 -170.53)" fill="#fff"/>
              <path id="Path_25474" data-name="Path 25474" d="M245.154,181.212a.148.148,0,0,1-.146-.173c.59-3.392,2.586-10.346,5.921-12.391a3.351,3.351,0,0,1,2.837-.406,1.434,1.434,0,0,1,1.091,1c.489,2.019-3.794,6.206-7.235,9.57-.877.857-1.7,1.666-2.361,2.351A.148.148,0,0,1,245.154,181.212Zm7.63-12.825a3.225,3.225,0,0,0-1.7.513c-2.722,1.669-4.826,7.14-5.7,11.71.594-.607,1.294-1.29,2.027-2.007,3.209-3.137,7.6-7.432,7.154-9.287a1.145,1.145,0,0,0-.89-.791A3.034,3.034,0,0,0,252.784,168.387Z" transform="translate(-215.925 -151.724)" fill="#fff"/>
              <path id="Path_25475" data-name="Path 25475" d="M226.987,195.067a8.442,8.442,0,0,1-3.087-.588,5.3,5.3,0,0,1-3.429-3.663c-.192-.84.109-1.21.4-1.372,1.508-.856,6.249,1.833,9.166,4.63a.148.148,0,0,1-.021.23A5.585,5.585,0,0,1,226.987,195.067Zm-5.4-5.488a1.178,1.178,0,0,0-.578.123c-.29.164-.375.517-.253,1.049a5.012,5.012,0,0,0,3.25,3.454,7.042,7.042,0,0,0,5.678-.047C227.01,191.64,223.281,189.578,221.59,189.578Z" transform="translate(-200.701 -164.842)" fill="#fff"/>
            </g>
            <path id="Path_25476" data-name="Path 25476" d="M205.546,268.864l-37.3,35.63,43.347-1.985,43.347-1.985-40.4-32.072A6.852,6.852,0,0,0,205.546,268.864Z" transform="translate(-161.908 -208.384)" fill="#909090" opacity="0.2"/>
            <g id="Group_42935" data-name="Group 42935" transform="translate(6.338 60.215)">
              <path id="Path_25477" data-name="Path 25477" d="M206.821,272.57l-38.575,34.573,43.347-1.985,43.347-1.985-41.573-30.9A5.178,5.178,0,0,0,206.821,272.57Z" transform="translate(-168.246 -271.248)" fill="#613fb9"/>
              <path id="Path_25478" data-name="Path 25478" d="M206.821,272.57l-38.575,34.573,43.347-1.985,43.347-1.985-41.573-30.9A5.178,5.178,0,0,0,206.821,272.57Z" transform="translate(-168.246 -271.248)" fill="#fff" opacity="0.676"/>
            </g>
          </g>
        </g>
      </g>
    </g>
  </g>
</svg>
