<svg id="Group_46585" data-name="Group 46585" xmlns="http://www.w3.org/2000/svg" width="23.503" height="23.491" viewBox="0 0 23.503 23.491">
  <path id="Path_25571" data-name="Path 25571" d="M5608.491,893.565a11.742,11.742,0,1,1-11.431,12.056A11.748,11.748,0,0,1,5608.491,893.565Zm.337,12.227c-1.154,0-2.309.016-3.461-.009-.383-.009-.472.111-.459.477a26.31,26.31,0,0,0,.447,3.53c.08.471.262.627.765.573a28.814,28.814,0,0,1,5.633-.027c.253.022.376-.018.437-.3a21.742,21.742,0,0,0,.517-3.84c.012-.342-.1-.416-.417-.411C5611.135,905.8,5609.981,905.791,5608.828,905.791Zm-.05-.966c1.17,0,2.342-.01,3.513.007.319,0,.426-.068.417-.41a25.99,25.99,0,0,0-.362-3.166c-.059-.39-.214-.521-.616-.485a30.068,30.068,0,0,1-6.056-.057c-.24-.027-.3.069-.341.281a20.853,20.853,0,0,0-.427,3.423c-.01.338.089.419.413.414C5606.471,904.814,5607.624,904.825,5608.778,904.825Zm-7.805.962c-.853,0-1.706.013-2.558-.007-.318-.007-.377.1-.354.4a10.905,10.905,0,0,0,1.686,4.987.48.48,0,0,0,.65.231,22.793,22.793,0,0,1,3.683-.8c.408-.054.451-.2.371-.546a18.46,18.46,0,0,1-.5-3.845c-.005-.321-.089-.432-.422-.424C5602.679,905.8,5601.827,905.787,5600.973,905.787Zm15.665,0c-.851,0-1.7.014-2.554-.007-.329-.008-.42.1-.425.42a18.5,18.5,0,0,1-.5,3.839c-.07.308-.019.429.323.474a25.506,25.506,0,0,1,3.9.8.4.4,0,0,0,.521-.2,10.94,10.94,0,0,0,1.648-4.936c.024-.311-.056-.4-.361-.389C5618.34,905.8,5617.489,905.787,5616.638,905.787Zm-15.691-.962c.868,0,1.737-.011,2.606.006.3.006.395-.088.4-.389a17.212,17.212,0,0,1,.41-3.422c.069-.317.011-.477-.349-.526a23.827,23.827,0,0,1-3.98-.9.36.36,0,0,0-.5.2,10.814,10.814,0,0,0-1.471,4.664c-.021.283.048.369.335.364C5599.245,904.814,5600.1,904.825,5600.947,904.825Zm15.7,0c.852,0,1.7-.013,2.552.007.315.007.379-.093.356-.394a11.1,11.1,0,0,0-1.37-4.478.422.422,0,0,0-.593-.226,24.725,24.725,0,0,1-3.993.831c-.347.043-.4.185-.337.487a17.585,17.585,0,0,1,.4,3.422c0,.284.107.361.376.357C5614.906,904.817,5615.774,904.825,5616.643,904.825ZM5609,899.919c.978,0,1.792-.017,2.607-.092.321-.029.384-.1.291-.412a32.371,32.371,0,0,0-1.1-3.151c-.784-1.886-.893-1.951-2.92-1.7a.517.517,0,0,0-.474.337,34.077,34.077,0,0,0-1.66,4.415c-.11.379-.01.467.339.483C5607.106,899.847,5608.13,899.965,5609,899.919Zm-3.222,11.436a23.573,23.573,0,0,0,1.049,3.019c.769,1.856.873,1.918,2.88,1.671a.307.307,0,0,1,.054,0,.416.416,0,0,0,.437-.3,35.527,35.527,0,0,0,1.561-4.054c.093-.309.046-.416-.27-.431A33.41,33.41,0,0,0,5605.778,911.354Zm5.367-16.577a28.585,28.585,0,0,1,1.758,4.674c.059.208.151.244.339.216a28.045,28.045,0,0,0,4.162-.866A10.948,10.948,0,0,0,5611.145,894.777Zm-10.844,3.908a33.342,33.342,0,0,0,3.9.9c.353.066.506-.043.593-.38a22.5,22.5,0,0,1,1.165-3.3c.15-.347.3-.695.485-1.13A10.97,10.97,0,0,0,5600.3,898.685Zm10.857,17.15a10.931,10.931,0,0,0,5.928-3.621,28.87,28.87,0,0,0-3.5-.734c-.73-.119-.735-.131-.95.577A30.624,30.624,0,0,1,5611.159,915.835Zm-10.533-3.513a10.868,10.868,0,0,0,5.827,3.509,29.66,29.66,0,0,1-1.591-4.138c-.042-.143-.1-.255-.3-.224A28.86,28.86,0,0,0,5600.626,912.322Z" transform="translate(-5597.054 -893.555)" fill="#613fb9"/>
</svg>
