<svg xmlns="http://www.w3.org/2000/svg" width="23.444" height="24.253" viewBox="0 0 23.444 24.253">
  <g id="Group_46582" data-name="Group 46582" transform="translate(-11925.359 -2087.982)">
    <path id="Path_25570" data-name="Path 25570" d="M5882.527,646.677c-.155.222-.351.407-.626.3-.3-.116-.359-.4-.379-.714-.086-1.407-.194-2.812-.293-4.21-.2-.057-.263.1-.349.186-1.8,1.839-3.58,3.691-5.389,5.517-.285.288-.145.437.026.662a9.2,9.2,0,0,1-1.661,12.888,8.155,8.155,0,0,1-3.72,1.623.786.786,0,0,0-.18.076h-2.394a.9.9,0,0,0-.183-.073,8.821,8.821,0,0,1-7.049-6.636c-.107-.445-.169-.9-.25-1.353v-1.86a11.029,11.029,0,0,1,.862-2.992,8.506,8.506,0,0,1,13.075-3.18c.4.319.61.358.989-.051,1.553-1.677,3.15-3.307,4.73-4.958.208-.218.4-.454.65-.744-.912-.181-1.767-.169-2.611-.259-.528-.056-1.061-.077-1.589-.125-.244-.022-.515-.019-.627-.321-.116-.32.087-.511.279-.7h.9a3.982,3.982,0,0,0,.436.081c1.418.111,2.835.231,4.254.317.489.029.714.223.733.743.03.752.1,1.5.17,2.253.072.8.044,1.6.193,2.392Zm-6.133,7.32a7.671,7.671,0,1,0-7.807,7.994A7.815,7.815,0,0,0,5876.394,654Z" transform="translate(6065.777 1448.729)" fill="#613fb9" stroke="#613fb9" stroke-width="1"/>
  </g>
</svg>
