<svg id="Group_42727" data-name="Group 42727" xmlns="http://www.w3.org/2000/svg" width="17.141" height="10.153" viewBox="0 0 17.141 10.153">
  <g id="Group_38274" data-name="Group 38274" transform="translate(0 0)">
    <g id="Group_38232" data-name="Group 38232">
      <g id="Group_38228" data-name="Group 38228">
        <path id="Path_24465" data-name="Path 24465" d="M635.139,552.639H620.26a.155.155,0,0,1-.158-.15V544.3a.155.155,0,0,1,.158-.151h14.879a.155.155,0,0,1,.158.151v8.186A.155.155,0,0,1,635.139,552.639Zm-14.721-.3h14.563v-7.885H620.418Z" transform="translate(-620.102 -544.152)" fill="#613fb9"/>
      </g>
      <g id="Group_38229" data-name="Group 38229" transform="translate(1.204 0.88)">
        <path id="Path_24466" data-name="Path 24466" d="M635.832,555.1h-7.87a.15.15,0,0,1-.15-.15,1.788,1.788,0,0,0-1.785-1.786.15.15,0,0,1-.15-.151v-2.551a.15.15,0,0,1,.15-.151,1.788,1.788,0,0,0,1.785-1.788.15.15,0,0,1,.15-.151h7.87a.151.151,0,0,1,.151.151,1.788,1.788,0,0,0,1.784,1.788.15.15,0,0,1,.151.151v2.551a.15.15,0,0,1-.151.151,1.787,1.787,0,0,0-1.784,1.786A.151.151,0,0,1,635.832,555.1Zm-7.725-.3h7.58a2.09,2.09,0,0,1,1.93-1.931v-2.261a2.09,2.09,0,0,1-1.93-1.933h-7.58a2.091,2.091,0,0,1-1.93,1.933v2.261A2.09,2.09,0,0,1,628.107,554.8Z" transform="translate(-625.876 -548.373)" fill="#613fb9"/>
      </g>
      <g id="Group_38230" data-name="Group 38230" transform="translate(6.276 2.294)">
        <path id="Path_24467" data-name="Path 24467" d="M649.931,558.957c-.712,0-1.27-.871-1.27-1.983s.558-1.985,1.27-1.985,1.269.872,1.269,1.985S650.642,558.957,649.931,558.957Zm0-3.666c-.525,0-.969.771-.969,1.683s.444,1.682.969,1.682.968-.77.968-1.682S650.456,555.291,649.931,555.291Z" transform="translate(-648.661 -554.99)" fill="#613fb9"/>
      </g>
      <g id="Group_38231" data-name="Group 38231" transform="translate(1.945 1.666)">
        <path id="Path_24468" data-name="Path 24468" d="M644.468,560.193H629.589a.154.154,0,0,1-.158-.151v-1.575a.154.154,0,0,1,.158-.151h12.675v-6.461a.154.154,0,0,1,.158-.151h2.046a.155.155,0,0,1,.158.151v8.186A.154.154,0,0,1,644.468,560.193Zm-14.721-.3H644.31v-7.885h-1.729v6.461a.155.155,0,0,1-.158.15H629.747Z" transform="translate(-629.431 -551.706)" fill="#613fb9"/>
      </g>
    </g>
  </g>
</svg>
