<svg xmlns="http://www.w3.org/2000/svg" width="79" height="80" viewBox="0 0 79 80">
  <g id="Group_45075" data-name="Group 45075" transform="translate(-175 -793)">
    <rect id="Rectangle_4746" data-name="Rectangle 4746" width="69" height="69" rx="6" transform="translate(180 798)" fill="#613fb9"/>
    <g id="Group_6772" data-name="Group 6772">
      <g id="Rectangle_4747" data-name="Rectangle 4747" transform="translate(254 793) rotate(90)" fill="none" stroke="#613fb9" stroke-linecap="square" stroke-width="1" stroke-dasharray="60 1000">
        <rect width="50" height="40" rx="9" stroke="none"/>
        <rect x="0.5" y="0.5" width="49" height="39" rx="8.5" fill="none"/>
      </g>
      <g id="Rectangle_4748" data-name="Rectangle 4748" transform="translate(175 793)" fill="none" stroke="#613fb9" stroke-linecap="square" stroke-width="1" stroke-dasharray="60 1000" opacity="0.194">
        <rect width="50" height="40" rx="9" stroke="none"/>
        <rect x="0.5" y="0.5" width="49" height="39" rx="8.5" fill="none"/>
      </g>
    </g>
    <g id="Group_6773" data-name="Group 6773" transform="translate(254 873) rotate(180)">
      <g id="Rectangle_4747-2" data-name="Rectangle 4747" transform="translate(79) rotate(90)" fill="none" stroke="#613fb9" stroke-linecap="square" stroke-width="1" stroke-dasharray="60 1000">
        <rect width="50" height="40" rx="9" stroke="none"/>
        <rect x="0.5" y="0.5" width="49" height="39" rx="8.5" fill="none"/>
      </g>
      <g id="Rectangle_4748-2" data-name="Rectangle 4748" fill="none" stroke="#613fb9" stroke-linecap="square" stroke-width="1" stroke-dasharray="60 1000">
        <rect width="50" height="40" rx="9" stroke="none"/>
        <rect x="0.5" y="0.5" width="49" height="39" rx="8.5" fill="none"/>
      </g>
    </g>
    <g id="Group_7057" data-name="Group 7057" transform="translate(202.218 823)" opacity="0.738">
      <path id="Path_10478" data-name="Path 10478" d="M177.865,168.918l6.585-6.585a1.94,1.94,0,1,1,2.744,2.743l-5.212,5.213,5.212,5.213a1.94,1.94,0,0,1-2.744,2.743l-6.585-6.585A1.941,1.941,0,0,1,177.865,168.918Z" transform="translate(-165.035 -160.269)" fill="#fff" opacity="0.28"/>
      <path id="Path_10479" data-name="Path 10479" d="M198.9,170.173l7.74-7.74a2.28,2.28,0,1,1,3.225,3.225l-6.127,6.128,6.127,6.128a2.28,2.28,0,0,1-3.225,3.225l-7.74-7.74A2.28,2.28,0,0,1,198.9,170.173Z" transform="translate(-198.231 -161.765)" fill="#fff"/>
    </g>
  </g>
</svg>
