<svg xmlns="http://www.w3.org/2000/svg" width="369.493" height="227.854" viewBox="0 0 369.493 227.854">
  <g id="Group_43959" data-name="Group 43959" transform="translate(-74.254 -219.147)">
    <path id="Path_26943" data-name="Path 26943" d="M661.9,261.493c-26.881-8.334-63.268-50.024-48.481-90.668,8.412-23.124,34.826-24.846,55.588-28.688,28.851-5.338,41.839-22.314,60.948-43.209,21.353-23.346,69.848-50.62,112.744-14.281,11.551,9.787,13.391,28.71,28.3,42,14.99,13.361,34.537,13.421,43.334,39.871,6.855,20.609-22.654,63.488-42.648,76.266C834.7,266.415,722.52,280.286,661.9,261.493Z" transform="translate(-487.769 156.821)" fill="#ede9f7"/>
    <g id="Group_43552" data-name="Group 43552" transform="translate(95.601 431.405)" opacity="0.38">
      <g id="Group_43551" data-name="Group 43551">
        <ellipse id="Ellipse_4072" data-name="Ellipse 4072" cx="163.644" cy="7.798" rx="163.644" ry="7.798" fill="#ede9f7"/>
      </g>
    </g>
    <g id="Group_43616" data-name="Group 43616" transform="translate(74.254 317.225)">
      <g id="Group_43558" data-name="Group 43558" transform="translate(21.693 0.097)">
        <g id="Group_43557" data-name="Group 43557">
          <g id="Group_43556" data-name="Group 43556">
            <g id="Group_43555" data-name="Group 43555">
              <g id="Group_43554" data-name="Group 43554">
                <g id="Group_43553" data-name="Group 43553">
                  <path id="Path_26816" data-name="Path 26816" d="M46.974,142.41c0,.16-.009.318-.013.48-.579,19.739,1.447,35.125,4.874,47.115l10.172,6.324-8.366-1.295L53.4,195c4.538,13.175,10.812,21.69,16.741,27.164a43.426,43.426,0,0,0,10.158,7.1c.193.1.382.189.571.278.469.227.925.428,1.357.612l5.6.293c.077-.26.15-.517.218-.778.049-.163.092-.326.132-.491.063-.213.117-.432.173-.646,6.613-25.481-1.721-45.8-12.608-60.292a1.1,1.1,0,0,0-.107-.144,98.585,98.585,0,0,0-11.761-12.938l-2.474,6.3-.356-8.823A97.081,97.081,0,0,0,47.3,142.6C47.086,142.471,46.974,142.41,46.974,142.41Z" transform="translate(-46.862 -142.41)" fill="rgba(97,63,185,0.68)"/>
                </g>
              </g>
            </g>
          </g>
        </g>
      </g>
      <g id="Group_43565" data-name="Group 43565" transform="translate(21.607)">
        <g id="Group_43564" data-name="Group 43564">
          <g id="Group_43563" data-name="Group 43563">
            <g id="Group_43562" data-name="Group 43562">
              <g id="Group_43561" data-name="Group 43561">
                <g id="Group_43560" data-name="Group 43560">
                  <g id="Group_43559" data-name="Group 43559">
                    <path id="Path_26817" data-name="Path 26817" d="M46.8,142.527l.185.389,11.49,24.059.207.425,3.131,6.56.107.219,9.989,20.912.014.028L88.2,229.2l.246.51.388.81.488.025-.384-.81-.566-1.183L72.307,194.922l-.3-.624L47.322,142.621l-.135-.283Z" transform="translate(-46.798 -142.338)" fill="#fff"/>
                  </g>
                </g>
              </g>
            </g>
          </g>
        </g>
      </g>
      <g id="Group_43571" data-name="Group 43571" transform="translate(22.335 21.941)">
        <g id="Group_43570" data-name="Group 43570" transform="translate(0 0)">
          <g id="Group_43569" data-name="Group 43569">
            <g id="Group_43568" data-name="Group 43568">
              <g id="Group_43567" data-name="Group 43567">
                <g id="Group_43566" data-name="Group 43566">
                  <rect id="Rectangle_15927" data-name="Rectangle 15927" width="0.376" height="17.292" transform="matrix(0.567, -0.824, 0.824, 0.567, 0, 0.31)" fill="#fff"/>
                </g>
              </g>
            </g>
          </g>
        </g>
      </g>
      <g id="Group_43577" data-name="Group 43577" transform="translate(22.242 17.184)">
        <g id="Group_43576" data-name="Group 43576" transform="translate(0 0)">
          <g id="Group_43575" data-name="Group 43575">
            <g id="Group_43574" data-name="Group 43574">
              <g id="Group_43573" data-name="Group 43573">
                <g id="Group_43572" data-name="Group 43572">
                  <rect id="Rectangle_15928" data-name="Rectangle 15928" width="0.376" height="13.554" transform="translate(0 0.31) rotate(-55.478)" fill="#fff"/>
                </g>
              </g>
            </g>
          </g>
        </g>
      </g>
      <g id="Group_43583" data-name="Group 43583" transform="translate(46.711 25.748)">
        <g id="Group_43582" data-name="Group 43582" transform="translate(0 0)">
          <g id="Group_43581" data-name="Group 43581">
            <g id="Group_43580" data-name="Group 43580">
              <g id="Group_43579" data-name="Group 43579">
                <g id="Group_43578" data-name="Group 43578">
                  <rect id="Rectangle_15929" data-name="Rectangle 15929" width="27.259" height="0.376" transform="matrix(0.129, -0.992, 0.992, 0.129, 0, 27.032)" fill="#fff"/>
                </g>
              </g>
            </g>
          </g>
        </g>
      </g>
      <g id="Group_43589" data-name="Group 43589" transform="translate(0.109 52.668)">
        <g id="Group_43588" data-name="Group 43588">
          <g id="Group_43587" data-name="Group 43587">
            <g id="Group_43586" data-name="Group 43586">
              <g id="Group_43585" data-name="Group 43585">
                <g id="Group_43584" data-name="Group 43584">
                  <path id="Path_26818" data-name="Path 26818" d="M95.655,221.224s-13.263,6.266-32.13-4.985l6.118-2.9-9.987.4c-7.364-5.152-15.447-13-23.838-24.82l2.336-1.106-3.028.119Q33,184.9,30.858,181.521a73.107,73.107,0,0,1,13.461.425l4.066,5.505-1.153-5.113C63.429,184.8,87.008,193.282,95.655,221.224Z" transform="translate(-30.858 -181.389)" fill="rgba(97,63,185,0.52)"/>
                </g>
              </g>
            </g>
          </g>
        </g>
      </g>
      <g id="Group_43596" data-name="Group 43596" transform="translate(0 52.618)">
        <g id="Group_43595" data-name="Group 43595" transform="translate(0 0)">
          <g id="Group_43594" data-name="Group 43594">
            <g id="Group_43593" data-name="Group 43593">
              <g id="Group_43592" data-name="Group 43592">
                <g id="Group_43591" data-name="Group 43591">
                  <g id="Group_43590" data-name="Group 43590">
                    <rect id="Rectangle_15930" data-name="Rectangle 15930" width="0.425" height="76.22" transform="translate(0 0.366) rotate(-59.695)" fill="#fff"/>
                  </g>
                </g>
              </g>
            </g>
          </g>
        </g>
      </g>
      <g id="Group_43602" data-name="Group 43602" transform="translate(7.798 62.775)">
        <g id="Group_43601" data-name="Group 43601" transform="translate(0 0)">
          <g id="Group_43600" data-name="Group 43600">
            <g id="Group_43599" data-name="Group 43599">
              <g id="Group_43598" data-name="Group 43598">
                <g id="Group_43597" data-name="Group 43597">
                  <rect id="Rectangle_15931" data-name="Rectangle 15931" width="9.471" height="0.394" transform="translate(0 0.971) rotate(-5.886)" fill="#fff"/>
                </g>
              </g>
            </g>
          </g>
        </g>
      </g>
      <g id="Group_43608" data-name="Group 43608" transform="translate(10.73 65.324)">
        <g id="Group_43607" data-name="Group 43607" transform="translate(0 0)">
          <g id="Group_43606" data-name="Group 43606">
            <g id="Group_43605" data-name="Group 43605">
              <g id="Group_43604" data-name="Group 43604">
                <g id="Group_43603" data-name="Group 43603">
                  <rect id="Rectangle_15932" data-name="Rectangle 15932" width="11.16" height="0.395" transform="translate(0 1.958) rotate(-10.104)" fill="#fff"/>
                </g>
              </g>
            </g>
          </g>
        </g>
      </g>
      <g id="Group_43615" data-name="Group 43615" transform="translate(29.586 56.564)">
        <g id="Group_43614" data-name="Group 43614">
          <g id="Group_43613" data-name="Group 43613">
            <g id="Group_43612" data-name="Group 43612">
              <g id="Group_43611" data-name="Group 43611">
                <g id="Group_43610" data-name="Group 43610">
                  <g id="Group_43609" data-name="Group 43609">
                    <path id="Path_26819" data-name="Path 26819" d="M72.53,196.028l.33-.371a58.031,58.031,0,0,0-19.986-11.379l-.16.472A57.538,57.538,0,0,1,72.53,196.028Z" transform="translate(-52.714 -184.278)" fill="#2e4882"/>
                  </g>
                </g>
              </g>
            </g>
          </g>
        </g>
      </g>
    </g>
    <g id="Group_43644" data-name="Group 43644" transform="translate(131.943 259.198)">
      <g id="Group_43621" data-name="Group 43621" transform="translate(4.296 0.337)">
        <g id="Group_43620" data-name="Group 43620">
          <g id="Group_43619" data-name="Group 43619">
            <g id="Group_43618" data-name="Group 43618">
              <g id="Group_43617" data-name="Group 43617">
                <rect id="Rectangle_15933" data-name="Rectangle 15933" width="92.16" height="178.597" rx="3.188" fill="#613fb9"/>
              </g>
            </g>
          </g>
        </g>
      </g>
      <g id="Group_43626" data-name="Group 43626" transform="translate(0.337 0.337)">
        <g id="Group_43625" data-name="Group 43625">
          <g id="Group_43624" data-name="Group 43624">
            <g id="Group_43623" data-name="Group 43623">
              <g id="Group_43622" data-name="Group 43622">
                <path id="Path_27161" data-name="Path 27161" d="M3.227,0H88.933A3.227,3.227,0,0,1,92.16,3.227V175.37a3.227,3.227,0,0,1-3.227,3.227H3.227A3.227,3.227,0,0,1,0,175.37V3.227A3.227,3.227,0,0,1,3.227,0Z" fill="#8e6de3"/>
              </g>
            </g>
          </g>
        </g>
      </g>
      <g id="Group_43631" data-name="Group 43631" transform="translate(6.982 16.544)">
        <g id="Group_43630" data-name="Group 43630">
          <g id="Group_43629" data-name="Group 43629">
            <g id="Group_43628" data-name="Group 43628">
              <g id="Group_43627" data-name="Group 43627">
                <path id="Path_26820" data-name="Path 26820" d="M78.729,116.549V251.292a4.816,4.816,0,0,0,4.65,4.967h70.2a4.817,4.817,0,0,0,4.65-4.967V116.549a4.817,4.817,0,0,0-4.65-4.969h-70.2A4.816,4.816,0,0,0,78.729,116.549Z" transform="translate(-78.729 -111.58)" fill="#ede9f7"/>
              </g>
            </g>
          </g>
        </g>
      </g>
      <g id="Group_43636" data-name="Group 43636" transform="translate(4.97 15.549)">
        <g id="Group_43635" data-name="Group 43635">
          <g id="Group_43634" data-name="Group 43634">
            <g id="Group_43633" data-name="Group 43633">
              <g id="Group_43632" data-name="Group 43632">
                <path id="Path_26821" data-name="Path 26821" d="M77.237,251.55V116.806A5.873,5.873,0,0,1,83,110.842h72a5.873,5.873,0,0,1,5.764,5.964V251.55A5.872,5.872,0,0,1,155,257.512H83A5.872,5.872,0,0,1,77.237,251.55ZM83,112.833a3.882,3.882,0,0,0-3.774,3.973V251.55A3.882,3.882,0,0,0,83,255.523h72a3.883,3.883,0,0,0,3.774-3.973V116.806A3.883,3.883,0,0,0,155,112.833Z" transform="translate(-77.237 -110.842)" fill="#fff"/>
              </g>
            </g>
          </g>
        </g>
      </g>
      <g id="Group_43643" data-name="Group 43643" transform="translate(0)">
        <g id="Group_43642" data-name="Group 43642">
          <g id="Group_43641" data-name="Group 43641">
            <g id="Group_43640" data-name="Group 43640">
              <g id="Group_43639" data-name="Group 43639">
                <g id="Group_43637" data-name="Group 43637" transform="translate(4.635)">
                  <path id="Path_26822" data-name="Path 26822" d="M160.551,278.584H92.442v-.674h68.109a3.967,3.967,0,0,0,3.962-3.962v-170a3.966,3.966,0,0,0-3.962-3.961H76.989v-.674h83.562a4.642,4.642,0,0,1,4.637,4.635v170A4.643,4.643,0,0,1,160.551,278.584Z" transform="translate(-76.989 -99.313)" fill="#3f5a9f"/>
                </g>
                <g id="Group_43638" data-name="Group 43638" transform="translate(0 10.67)">
                  <rect id="Rectangle_15935" data-name="Rectangle 15935" width="0.674" height="40.406" fill="#3f5a9f"/>
                </g>
              </g>
            </g>
          </g>
        </g>
      </g>
    </g>
    <g id="Group_43672" data-name="Group 43672" transform="translate(249.623 250.092)">
      <g id="Group_43647" data-name="Group 43647">
        <g id="Group_43646" data-name="Group 43646">
          <g id="Group_43645" data-name="Group 43645">
            <path id="Path_26823" data-name="Path 26823" d="M181.476,92.57a21.273,21.273,0,1,0,21.866,20.662A21.273,21.273,0,0,0,181.476,92.57Zm17.719,20.781a17.121,17.121,0,1,1-18.077-16.61c.16-.009.316-.013.476-.018a17.139,17.139,0,0,1,17.579,16.16C199.183,113.039,199.191,113.194,199.195,113.351Z" transform="translate(-160.807 -92.562)" fill="#fcc659"/>
          </g>
        </g>
      </g>
      <g id="Group_43650" data-name="Group 43650" transform="translate(4.153 4.153)">
        <g id="Group_43649" data-name="Group 43649">
          <g id="Group_43648" data-name="Group 43648">
            <path id="Path_26824" data-name="Path 26824" d="M198.1,111.809c.008.156.016.312.022.468a17.122,17.122,0,1,1-18.078-16.612c.16-.008.316-.013.476-.018A17.14,17.14,0,0,1,198.1,111.809Z" transform="translate(-163.886 -95.641)" fill="#f49b51"/>
          </g>
        </g>
      </g>
      <g id="Group_43654" data-name="Group 43654" transform="translate(15.333 8.139)">
        <g id="Group_43653" data-name="Group 43653">
          <g id="Group_43652" data-name="Group 43652">
            <g id="Group_43651" data-name="Group 43651">
              <path id="Path_26825" data-name="Path 26825" d="M177.758,124.866l-.178-3.217a9.288,9.288,0,0,1-4.951-1.132l.646-2.175a8.5,8.5,0,0,0,4.662,1.114c2.262-.125,3.717-1.516,3.617-3.331-.1-1.752-1.4-2.766-3.81-3.59-3.319-1.094-5.407-2.448-5.561-5.218-.147-2.643,1.621-4.754,4.525-5.395l-.179-3.217L178.5,98.6l.173,3.089a8.519,8.519,0,0,1,4.2.885l-.678,2.146a7.725,7.725,0,0,0-4.073-.859c-2.453.136-3.295,1.652-3.225,2.927.092,1.656,1.316,2.418,4.151,3.411,3.354,1.156,5.1,2.72,5.26,5.555.14,2.515-1.481,4.97-4.731,5.693l.183,3.312Z" transform="translate(-172.176 -98.596)" fill="#fcc659"/>
            </g>
          </g>
        </g>
      </g>
      <g id="Group_43657" data-name="Group 43657" transform="translate(27.628 5.138)">
        <g id="Group_43656" data-name="Group 43656">
          <g id="Group_43655" data-name="Group 43655">
            <path id="Path_26826" data-name="Path 26826" d="M191.092,107.318c-.043-.138-.092-.274-.139-.41A16.92,16.92,0,0,0,181.292,96.8l.173-.43a17.362,17.362,0,0,1,9.917,10.357c.058.169.107.309.152.449Z" transform="translate(-181.292 -96.371)" fill="#2e4882"/>
          </g>
        </g>
      </g>
      <g id="Group_43660" data-name="Group 43660" transform="translate(16.051 3.886)">
        <g id="Group_43659" data-name="Group 43659">
          <g id="Group_43658" data-name="Group 43658">
            <path id="Path_26827" data-name="Path 26827" d="M184.285,97.125a16.9,16.9,0,0,0-11.436-.417l-.142-.441a17.342,17.342,0,0,1,11.75.428Z" transform="translate(-172.708 -95.443)" fill="#2e4882"/>
          </g>
        </g>
      </g>
      <g id="Group_43663" data-name="Group 43663" transform="translate(36.355 22.633)">
        <g id="Group_43662" data-name="Group 43662">
          <g id="Group_43661" data-name="Group 43661">
            <path id="Path_26828" data-name="Path 26828" d="M188.175,115.891l-.413-.213a16.8,16.8,0,0,0,1.827-6.335l.463.039A17.271,17.271,0,0,1,188.175,115.891Z" transform="translate(-187.762 -109.343)" fill="#2e4882"/>
          </g>
        </g>
      </g>
      <g id="Group_43667" data-name="Group 43667" transform="translate(28.547 1.075)">
        <g id="Group_43666" data-name="Group 43666">
          <g id="Group_43665" data-name="Group 43665">
            <g id="Group_43664" data-name="Group 43664">
              <path id="Path_26829" data-name="Path 26829" d="M187.646,96.994a20.961,20.961,0,0,0-5.673-3.167l.173-.468a21.5,21.5,0,0,1,5.806,3.242Z" transform="translate(-181.973 -93.359)" fill="#2e4882"/>
            </g>
          </g>
        </g>
      </g>
      <g id="Group_43671" data-name="Group 43671" transform="translate(33.95 8.741)">
        <g id="Group_43670" data-name="Group 43670">
          <g id="Group_43669" data-name="Group 43669">
            <g id="Group_43668" data-name="Group 43668">
              <path id="Path_26830" data-name="Path 26830" d="M186.28,128.745l-.3-.4a21.03,21.03,0,0,0,4.416-29.016l.4-.29a21.53,21.53,0,0,1-4.519,29.7Z" transform="translate(-185.979 -99.043)" fill="#2e4882"/>
            </g>
          </g>
        </g>
      </g>
    </g>
    <g id="Group_43703" data-name="Group 43703" transform="translate(302.411 289.506)">
      <g id="Group_43700" data-name="Group 43700">
        <g id="Group_43675" data-name="Group 43675">
          <g id="Group_43674" data-name="Group 43674">
            <g id="Group_43673" data-name="Group 43673">
              <path id="Path_26831" data-name="Path 26831" d="M219.345,121.844a17.963,17.963,0,1,0,16.47,19.34A17.962,17.962,0,0,0,219.345,121.844Zm12.977,19.061a14.457,14.457,0,1,1-13.658-15.594c.135.007.267.018.4.028a14.474,14.474,0,0,1,13.282,15.171C232.34,140.642,232.333,140.774,232.323,140.905Z" transform="translate(-199.947 -121.786)" fill="#fcc659"/>
            </g>
          </g>
        </g>
        <g id="Group_43678" data-name="Group 43678" transform="translate(3.507 3.504)">
          <g id="Group_43677" data-name="Group 43677">
            <g id="Group_43676" data-name="Group 43676">
              <path id="Path_26832" data-name="Path 26832" d="M231.441,139.605c-.007.131-.013.263-.024.394a14.458,14.458,0,1,1-13.66-15.595c.135.008.267.019.4.03A14.473,14.473,0,0,1,231.441,139.605Z" transform="translate(-202.547 -124.384)" fill="#f49b51"/>
            </g>
          </g>
        </g>
        <g id="Group_43682" data-name="Group 43682" transform="translate(12.557 6.884)">
          <g id="Group_43681" data-name="Group 43681">
            <g id="Group_43680" data-name="Group 43680">
              <g id="Group_43679" data-name="Group 43679">
                <path id="Path_26833" data-name="Path 26833" d="M213.165,148.963l.144-2.716a7.836,7.836,0,0,1-4.053-1.4l.74-1.768a7.179,7.179,0,0,0,3.813,1.362c1.91.1,3.258-.933,3.339-2.467.078-1.48-.921-2.449-2.87-3.361-2.687-1.222-4.314-2.549-4.192-4.889.119-2.232,1.8-3.842,4.292-4.115l.143-2.718,1.668.089-.139,2.608a7.189,7.189,0,0,1,3.447,1.126l-.766,1.74a6.524,6.524,0,0,0-3.341-1.094c-2.072-.109-2.917,1.087-2.974,2.162-.074,1.4.885,2.151,3.173,3.244,2.711,1.276,4.035,2.749,3.909,5.143a4.684,4.684,0,0,1-4.491,4.348l-.148,2.8Z" transform="translate(-209.257 -126.89)" fill="#fcc659"/>
              </g>
            </g>
          </g>
        </g>
        <g id="Group_43685" data-name="Group 43685" transform="translate(24.733 5.014)">
          <g id="Group_43684" data-name="Group 43684">
            <g id="Group_43683" data-name="Group 43683">
              <path id="Path_26834" data-name="Path 26834" d="M225.552,135.572c-.024-.119-.051-.237-.08-.356a14.286,14.286,0,0,0-7.187-9.367l.185-.347a14.663,14.663,0,0,1,7.379,9.6c.034.147.062.268.088.391Z" transform="translate(-218.285 -125.503)" fill="#2e4882"/>
            </g>
          </g>
        </g>
        <g id="Group_43688" data-name="Group 43688" transform="translate(15.092 3.287)">
          <g id="Group_43687" data-name="Group 43687">
            <g id="Group_43686" data-name="Group 43686">
              <path id="Path_26835" data-name="Path 26835" d="M220.777,126.3a14.257,14.257,0,0,0-9.562-1.393l-.078-.384a14.661,14.661,0,0,1,9.825,1.431Z" transform="translate(-211.137 -124.223)" fill="#2e4882"/>
            </g>
          </g>
        </g>
        <g id="Group_43691" data-name="Group 43691" transform="translate(29.923 20.649)">
          <g id="Group_43690" data-name="Group 43690">
            <g id="Group_43689" data-name="Group 43689">
              <path id="Path_26836" data-name="Path 26836" d="M222.459,142.462l-.326-.216a14.213,14.213,0,0,0,2.112-5.151l.384.074A14.564,14.564,0,0,1,222.459,142.462Z" transform="translate(-222.133 -137.096)" fill="#2e4882"/>
            </g>
          </g>
        </g>
        <g id="Group_43695" data-name="Group 43695" transform="translate(25.871 1.689)">
          <g id="Group_43694" data-name="Group 43694">
            <g id="Group_43693" data-name="Group 43693">
              <g id="Group_43692" data-name="Group 43692">
                <path id="Path_26837" data-name="Path 26837" d="M223.6,126.59a17.677,17.677,0,0,0-4.472-3.176l.188-.376a18.15,18.15,0,0,1,4.579,3.252Z" transform="translate(-219.129 -123.038)" fill="#2e4882"/>
              </g>
            </g>
          </g>
        </g>
        <g id="Group_43699" data-name="Group 43699" transform="translate(27.076 9.041)">
          <g id="Group_43698" data-name="Group 43698">
            <g id="Group_43697" data-name="Group 43697">
              <g id="Group_43696" data-name="Group 43696">
                <path id="Path_26838" data-name="Path 26838" d="M220.238,153.011l-.216-.36a17.759,17.759,0,0,0,6.354-23.956l.367-.206a18.179,18.179,0,0,1-6.5,24.522Z" transform="translate(-220.022 -128.489)" fill="#2e4882"/>
              </g>
            </g>
          </g>
        </g>
      </g>
      <g id="Group_43702" data-name="Group 43702" transform="translate(5.935 6.13)">
        <g id="Group_43701" data-name="Group 43701">
          <path id="Path_26839" data-name="Path 26839" d="M204.347,127.824a4.712,4.712,0,0,1,1.357,2.789h0a4.725,4.725,0,0,1,2.726-1.492h0a4.712,4.712,0,0,1-1.359-2.79h0A4.724,4.724,0,0,1,204.347,127.824Z" transform="translate(-204.347 -126.331)" fill="#ffe6a6"/>
        </g>
      </g>
    </g>
    <path id="Path_26840" data-name="Path 26840" d="M150.627,174.676c5.845-.891,27.084-9.012,27.084-9.012s-1.562-3.035-7.185-2.232-19.989,4.463-19.989,4.463Z" transform="translate(85.236 182.195)" fill="#fcb47e"/>
    <g id="Group_43731" data-name="Group 43731" transform="translate(215.656 307.376)">
      <g id="Group_43706" data-name="Group 43706">
        <g id="Group_43705" data-name="Group 43705">
          <g id="Group_43704" data-name="Group 43704">
            <path id="Path_26841" data-name="Path 26841" d="M158.686,135.048a22.319,22.319,0,1,0,21.56,23.052A22.319,22.319,0,0,0,158.686,135.048ZM175.9,157.956a17.963,17.963,0,1,1-17.854-18.565c.169,0,.332.007.5.012A17.982,17.982,0,0,1,175.9,157.465C175.9,157.628,175.9,157.791,175.9,157.956Z" transform="translate(-135.621 -135.035)" fill="#fcc659"/>
          </g>
        </g>
      </g>
      <g id="Group_43709" data-name="Group 43709" transform="translate(4.357 4.354)">
        <g id="Group_43708" data-name="Group 43708">
          <g id="Group_43707" data-name="Group 43707">
            <path id="Path_26842" data-name="Path 26842" d="M174.777,156.339c0,.163,0,.326-.007.491a17.963,17.963,0,1,1-17.855-18.566c.169,0,.332.008.5.013A17.981,17.981,0,0,1,174.777,156.339Z" transform="translate(-138.852 -138.264)" fill="#f49b51"/>
          </g>
        </g>
      </g>
      <g id="Group_43713" data-name="Group 43713" transform="translate(16.007 8.577)">
        <g id="Group_43712" data-name="Group 43712">
          <g id="Group_43711" data-name="Group 43711">
            <g id="Group_43710" data-name="Group 43710">
              <path id="Path_26843" data-name="Path 26843" d="M152.579,168.868l.022-3.38a9.739,9.739,0,0,1-5.11-1.5l.817-2.237a8.92,8.92,0,0,0,4.809,1.469c2.376.015,3.991-1.347,4-3.254.012-1.841-1.287-2.986-3.756-4.006-3.405-1.361-5.5-2.913-5.485-5.825.018-2.777,2-4.874,5.087-5.356l.02-3.38,2.076.012-.02,3.246a8.934,8.934,0,0,1,4.343,1.2l-.851,2.2a8.1,8.1,0,0,0-4.209-1.164c-2.576-.016-3.557,1.517-3.566,2.857-.011,1.74,1.222,2.618,4.127,3.841,3.438,1.427,5.167,3.179,5.148,6.157-.016,2.643-1.873,5.109-5.323,5.656l-.022,3.48Z" transform="translate(-147.49 -141.395)" fill="#fcc659"/>
            </g>
          </g>
        </g>
      </g>
      <g id="Group_43716" data-name="Group 43716" transform="translate(29.992 5.845)">
        <g id="Group_43715" data-name="Group 43715">
          <g id="Group_43714" data-name="Group 43714">
            <path id="Path_26844" data-name="Path 26844" d="M167.44,151.456c-.036-.146-.077-.291-.119-.437a17.746,17.746,0,0,0-9.462-11.21l.209-.44a18.223,18.223,0,0,1,9.715,11.488c.05.179.092.329.131.48Z" transform="translate(-157.859 -139.369)" fill="#2e4882"/>
          </g>
        </g>
      </g>
      <g id="Group_43719" data-name="Group 43719" transform="translate(17.923 4.081)">
        <g id="Group_43718" data-name="Group 43718">
          <g id="Group_43717" data-name="Group 43717">
            <path id="Path_26845" data-name="Path 26845" d="M160.979,140.265a17.727,17.727,0,0,0-11.948-1.176l-.12-.472a18.2,18.2,0,0,1,12.277,1.208Z" transform="translate(-148.911 -138.061)" fill="#2e4882"/>
          </g>
        </g>
      </g>
      <g id="Group_43722" data-name="Group 43722" transform="translate(37.614 24.838)">
        <g id="Group_43721" data-name="Group 43721">
          <g id="Group_43720" data-name="Group 43720">
            <path id="Path_26846" data-name="Path 26846" d="M163.929,160.217l-.418-.25a17.643,17.643,0,0,0,2.325-6.516l.481.07A18.143,18.143,0,0,1,163.929,160.217Z" transform="translate(-163.511 -153.452)" fill="#2e4882"/>
          </g>
        </g>
      </g>
      <g id="Group_43726" data-name="Group 43726" transform="translate(31.215 1.651)">
        <g id="Group_43725" data-name="Group 43725">
          <g id="Group_43724" data-name="Group 43724">
            <g id="Group_43723" data-name="Group 43723">
              <path id="Path_26847" data-name="Path 26847" d="M164.5,140.421a22.051,22.051,0,0,0-5.735-3.683l.21-.477a22.55,22.55,0,0,1,5.871,3.771Z" transform="translate(-158.766 -136.26)" fill="#2e4882"/>
            </g>
          </g>
        </g>
      </g>
      <g id="Group_43730" data-name="Group 43730" transform="translate(34.508 10.329)">
        <g id="Group_43729" data-name="Group 43729">
          <g id="Group_43728" data-name="Group 43728">
            <g id="Group_43727" data-name="Group 43727">
              <path id="Path_26848" data-name="Path 26848" d="M161.5,173.5l-.29-.434a22.067,22.067,0,0,0,6.5-30.1l.442-.278A22.589,22.589,0,0,1,161.5,173.5Z" transform="translate(-161.208 -142.694)" fill="#2e4882"/>
            </g>
          </g>
        </g>
      </g>
    </g>
    <path id="Path_26849" data-name="Path 26849" d="M169.608,166.057s-.529-6.2-9.46-6.6c-6.915-.313-9.191-4.105-14.9-4.641-5.509-.517-11.155,2.231-11.155,2.231a23.385,23.385,0,0,1-5.559,1.391,17,17,0,0,1-9.522-1.926l.089,19.1s14.546-1.25,17.58-.535,17.223,6.87,23.068,5.979,27.083-9.013,27.083-9.013-1.293-3.57-6.916-2.766-10.62,2.588-12.315,2.677a8.334,8.334,0,0,1-3.213-.535l-13.475-5.623A91.893,91.893,0,0,0,169.608,166.057Z" transform="translate(74.242 179.214)" fill="#ffc49c"/>
    <path id="Path_26850" data-name="Path 26850" d="M100.6,174.052c0,4.915.2,9.639.572,14.039,0,.032,0,.066.008.1C102.6,205.073,106.5,217.2,111.1,217.2c4.751,0,8.765-12.956,10.061-30.735v-.186l.231-20.681v-.167c-.974-19.7-5.213-34.518-10.292-34.518-4.946,0-9.085,14.029-10.2,32.928,0,.03,0,.059,0,.089C100.705,167.175,100.6,170.565,100.6,174.052Z" transform="translate(67.823 170.901)" fill="#494f71"/>
    <g id="Group_43735" data-name="Group 43735" transform="translate(164.236 297.599)">
      <g id="Group_43732" data-name="Group 43732" transform="translate(1.957 64.493)">
        <path id="Path_26851" data-name="Path 26851" d="M123.577,175.605c-2.02,18.168-7.1,30.213-12.837,30.213-4.9,0-9.309-8.545-11.793-22.854l.635-.088c2.4,13.8,6.671,22.373,11.158,22.373,5.3,0,10.208-12.041,12.184-29.571Z" transform="translate(-98.947 -175.605)" fill="#3f5a9f"/>
      </g>
      <g id="Group_43733" data-name="Group 43733" transform="translate(0 21.92)">
        <path id="Path_26852" data-name="Path 26852" d="M97.758,178.8c-.174-3.035-.262-6.174-.262-9.33,0-3.679.127-7.4.376-11.067a.5.5,0,0,1,0-.053l0-.045a129.45,129.45,0,0,1,1.743-14.271l.634.09a129.425,129.425,0,0,0-1.736,14.215.459.459,0,0,1,0,.051l0,.046c-.25,3.652-.375,7.365-.375,11.032,0,3.147.088,6.275.262,9.3Z" transform="translate(-97.496 -144.039)" fill="#3f5a9f"/>
      </g>
      <g id="Group_43734" data-name="Group 43734" transform="translate(3.938)">
        <path id="Path_26853" data-name="Path 26853" d="M123.151,158.842l-.635.019c-1.9-17.935-6.869-30.509-12.288-30.509-3.38,0-6.734,4.952-9.191,13.595l-.62-.135c2.575-9.046,6.058-14.026,9.812-14.026,3.2,0,6.18,3.555,8.615,10.276A91.954,91.954,0,0,1,123.151,158.842Z" transform="translate(-100.416 -127.786)" fill="#3f5a9f"/>
      </g>
    </g>
    <g id="Group_43740" data-name="Group 43740" transform="translate(253.123 260.932)">
      <g id="Group_43737" data-name="Group 43737">
        <g id="Group_43736" data-name="Group 43736">
          <path id="Path_26854" data-name="Path 26854" d="M163.4,104.44a8.036,8.036,0,0,1,3.655,3.834h0a8.068,8.068,0,0,1,3.66-3.841h0a8.054,8.054,0,0,1-3.66-3.834h0A8.05,8.05,0,0,1,163.4,104.44Z" transform="translate(-163.402 -100.599)" fill="#ffe6a6"/>
        </g>
      </g>
      <g id="Group_43739" data-name="Group 43739" transform="translate(5.813 11.661)">
        <g id="Group_43738" data-name="Group 43738">
          <path id="Path_26855" data-name="Path 26855" d="M167.712,111.477a4.668,4.668,0,0,1,2.124,2.228h0a4.677,4.677,0,0,1,2.127-2.232h0a4.68,4.68,0,0,1-2.127-2.228h0A4.683,4.683,0,0,1,167.712,111.477Z" transform="translate(-167.712 -109.245)" fill="#ffe6a6"/>
        </g>
      </g>
    </g>
    <path id="Path_26856" data-name="Path 26856" d="M119.025,159.538l.069,15.14s2.4-.2,5.441-.4c-.158-3.494-.757-12.291-2.91-16.416C121.086,156.832,120.162,157.616,119.025,159.538Z" transform="translate(74.247 180.142)" fill="#ffa87d"/>
    <g id="Group_43741" data-name="Group 43741" transform="translate(225.196 344.616)">
      <path id="Path_26857" data-name="Path 26857" d="M154.216,164a112.977,112.977,0,0,1-11.521-.677l.069-.673a102.412,102.412,0,0,0,13.615.643l.02.674Q155.331,164,154.216,164Z" transform="translate(-142.695 -162.647)" fill="#2e4882"/>
    </g>
    <g id="Group_43742" data-name="Group 43742" transform="translate(233.013 348.025)">
      <path id="Path_26858" data-name="Path 26858" d="M156.985,168.657a8.7,8.7,0,0,1-3.006-.571l-5.488-2.29.259-.622,5.488,2.289a7.718,7.718,0,0,0,3.064.51,25.116,25.116,0,0,0,3.641-.807,77.576,77.576,0,0,1,8.644-1.867c5.818-.84,7.267,2.946,7.28,2.983l-.634.231c-.05-.134-1.292-3.295-6.552-2.548a77.053,77.053,0,0,0-8.568,1.853,24.612,24.612,0,0,1-3.775.828C157.22,168.653,157.1,168.657,156.985,168.657Z" transform="translate(-148.491 -165.175)" fill="#2e4882"/>
    </g>
    <g id="Group_43743" data-name="Group 43743" transform="translate(203.981 334.569)">
      <path id="Path_26859" data-name="Path 26859" d="M127.336,159.429l-.371-.564a35.6,35.6,0,0,1,8.479-3.667l.181.649A35.707,35.707,0,0,0,127.336,159.429Z" transform="translate(-126.965 -155.198)" fill="#2e4882"/>
    </g>
    <path id="Path_26860" data-name="Path 26860" d="M128.361,175.1q-.243,2.157-.635,4.344l-4.563.469-1.426.143-.8.084-19.458,2.005c0-.038,0-.07-.008-.107-.4-5.375-.608-11.14-.608-17.142,0-4.019.1-7.932.278-11.7.009-.217.023-.436.032-.649,0-.032.005-.065.005-.1h.023L121.18,154.3l.7.065,1.532.139,4.312.4A66.951,66.951,0,0,1,128.361,175.1Z" transform="translate(67.915 178.413)" fill="#613fb9"/>
    <path id="Path_26861" data-name="Path 26861" d="M128.42,175.073q-.257,2.157-.664,4.344l-4.743.469-1.217.12-1.09.107-19.174,1.9-.1.009q-.069-.767-.139-1.546c0-.032,0-.066-.009-.1-.386-4.418-.589-9.172-.589-14.11,0-3.505.112-6.916.306-10.184,0-.028.005-.055.005-.089.055-.951.125-1.888.194-2.817.009-.217.023-.436.032-.649h.019l2.089.185c.394,4.42,1.782,16.014,5.671,19.193,2.7,2.205,8.406,2.888,12.927,3.064,3.578.139,6.414-.043,6.414-.043Z" transform="translate(67.856 178.439)" fill="#613fb9"/>
    <g id="Group_43832" data-name="Group 43832" transform="translate(345.931 278.668)">
      <g id="Group_43745" data-name="Group 43745" transform="translate(16.39 2.861)">
        <g id="Group_43744" data-name="Group 43744">
          <path id="Path_26862" data-name="Path 26862" d="M245.428,120.784a2.51,2.51,0,0,1-.77-3.113c.693-1.306,3.016-1.8,3.016-1.8-.7.893-1.007,3.492-1.709,4.386Z" transform="translate(-244.367 -115.871)" fill="#374263"/>
        </g>
      </g>
      <g id="Group_43755" data-name="Group 43755" transform="translate(17.201 2.711)">
        <g id="Group_43748" data-name="Group 43748" transform="translate(5.682 9.769)">
          <g id="Group_43747" data-name="Group 43747">
            <g id="Group_43746" data-name="Group 43746">
              <path id="Path_26863" data-name="Path 26863" d="M249.53,136.1s2.616-5.828-.348-10.157L254.505,123a69.521,69.521,0,0,0,5.437,16.153C257.069,141.7,249.953,141.614,249.53,136.1Z" transform="translate(-249.182 -123.003)" fill="#ffc49c"/>
            </g>
          </g>
        </g>
        <g id="Group_43751" data-name="Group 43751" transform="translate(5.68 11.736)">
          <g id="Group_43750" data-name="Group 43750">
            <g id="Group_43749" data-name="Group 43749">
              <path id="Path_26864" data-name="Path 26864" d="M249.18,125.431a8.538,8.538,0,0,1,1.411,4.8c2.541-1.787,4.617-5.77,4.617-5.77Z" transform="translate(-249.18 -124.461)" fill="#374263"/>
            </g>
          </g>
        </g>
        <g id="Group_43754" data-name="Group 43754">
          <g id="Group_43753" data-name="Group 43753">
            <g id="Group_43752" data-name="Group 43752">
              <path id="Path_26865" data-name="Path 26865" d="M257.195,128.323c-.949,1.21-5.133,4.693-8.009,4.321-3.635-.471-5.821-13.607-2.777-16.1,1.635-1.342,6.181-1.106,8.735,1.89S258.464,126.708,257.195,128.323Z" transform="translate(-244.969 -115.759)" fill="#ffc49c"/>
            </g>
          </g>
        </g>
      </g>
      <g id="Group_43758" data-name="Group 43758" transform="translate(7.08 143.454)">
        <g id="Group_43757" data-name="Group 43757">
          <g id="Group_43756" data-name="Group 43756">
            <path id="Path_26866" data-name="Path 26866" d="M237.464,223.186a25.176,25.176,0,0,0,19.42,0l-10.007-3.071Z" transform="translate(-237.464 -220.115)" fill="#374263"/>
          </g>
        </g>
      </g>
      <g id="Group_43761" data-name="Group 43761" transform="translate(38.082 139.439)">
        <g id="Group_43760" data-name="Group 43760">
          <g id="Group_43759" data-name="Group 43759">
            <path id="Path_26867" data-name="Path 26867" d="M279.19,219.113s-6.262,7.887-18.739,5.793l.2-7.767Z" transform="translate(-260.451 -217.138)" fill="#374263"/>
          </g>
        </g>
      </g>
      <g id="Group_43765" data-name="Group 43765" transform="translate(46.814 140.076)">
        <g id="Group_43764" data-name="Group 43764">
          <g id="Group_43763" data-name="Group 43763">
            <g id="Group_43762" data-name="Group 43762">
              <path id="Path_26868" data-name="Path 26868" d="M277.255,224.29l-3.026-6.68-7.3,2.486,3.871,6.169C272.443,228.66,277.214,227.291,277.255,224.29Z" transform="translate(-266.925 -217.61)" fill="#ffc49c"/>
            </g>
          </g>
        </g>
      </g>
      <g id="Group_43769" data-name="Group 43769" transform="translate(12.735 144.462)">
        <g id="Group_43768" data-name="Group 43768">
          <g id="Group_43767" data-name="Group 43767">
            <g id="Group_43766" data-name="Group 43766">
              <path id="Path_26869" data-name="Path 26869" d="M248.407,228.161l1.331-7.3h-7.715l-.367,7.087C242.446,230.748,247.4,230.989,248.407,228.161Z" transform="translate(-241.657 -220.862)" fill="#ffc49c"/>
            </g>
          </g>
        </g>
      </g>
      <g id="Group_43772" data-name="Group 43772" transform="translate(16.493 62.828)">
        <g id="Group_43771" data-name="Group 43771">
          <g id="Group_43770" data-name="Group 43770">
            <path id="Path_26870" data-name="Path 26870" d="M284.771,238.92a44.973,44.973,0,0,1-18.739,5.793s-26.5-38.405-20.782-84.378h19.42S259.943,195.872,284.771,238.92Z" transform="translate(-244.444 -160.334)" fill="#613fb9"/>
          </g>
        </g>
      </g>
      <g id="Group_43774" data-name="Group 43774" transform="translate(22.92 71.106)">
        <g id="Group_43773" data-name="Group 43773">
          <path id="Path_26871" data-name="Path 26871" d="M249.209,210.225a148.95,148.95,0,0,0,9.67,22.968l6.3-43.327a132.952,132.952,0,0,1-2.19-15.711l-1.979-7.684Z" transform="translate(-249.209 -166.472)" fill="#613fb9"/>
        </g>
      </g>
      <g id="Group_43777" data-name="Group 43777" transform="translate(6.86 59.427)">
        <g id="Group_43776" data-name="Group 43776">
          <g id="Group_43775" data-name="Group 43775">
            <path id="Path_26872" data-name="Path 26872" d="M237.3,244.982a72.476,72.476,0,0,0,19.421,0l10.657-62.954a24.983,24.983,0,0,0,5.756-11.929,18.849,18.849,0,0,0-.1-6.8,17.657,17.657,0,0,0-.51-2.015l-.668-.093-7.963-1.1-1.876-.259-14.555-2.019Z" transform="translate(-237.301 -157.812)" fill="#613fb9"/>
          </g>
        </g>
      </g>
      <g id="Group_43778" data-name="Group 43778" transform="translate(20.49 61.446)">
        <path id="Path_26873" data-name="Path 26873" d="M247.407,161.627c4.816,5.725,17.3,7.474,22.2,7.949a18.849,18.849,0,0,0-.1-6.8l-1.177-2.108,0-.005-7.959-1.1-1.876-.259Z" transform="translate(-247.407 -159.309)" fill="#314b87"/>
      </g>
      <g id="Group_43783" data-name="Group 43783" transform="translate(15.168 22.393)">
        <g id="Group_43782" data-name="Group 43782">
          <g id="Group_43781" data-name="Group 43781">
            <g id="Group_43780" data-name="Group 43780">
              <g id="Group_43779" data-name="Group 43779">
                <path id="Path_26874" data-name="Path 26874" d="M243.461,170.3a27.1,27.1,0,0,0,3.793,1.9,48.228,48.228,0,0,0,5.884,1.964A111.16,111.16,0,0,0,274.3,177.3c-4.186-14.013-.654-26.805-3.588-36.906-1.991-6.846-8.429-10.04-8.429-10.04-2.173,1.447-7.856,4.038-10.265,1.857a.707.707,0,0,0-1.037.08c-10.023,12.988-7.044,19.091-6.962,28.726A84.91,84.91,0,0,1,243.461,170.3Z" transform="translate(-243.461 -130.353)" fill="#bac8f3"/>
              </g>
            </g>
          </g>
        </g>
      </g>
      <g id="Group_43786" data-name="Group 43786" transform="translate(29.13 83.53)">
        <g id="Group_43785" data-name="Group 43785" transform="translate(0)">
          <g id="Group_43784" data-name="Group 43784">
            <rect id="Rectangle_15936" data-name="Rectangle 15936" width="48.958" height="0.511" transform="translate(0 48.337) rotate(-80.861)" fill="#fff"/>
          </g>
        </g>
      </g>
      <g id="Group_43788" data-name="Group 43788" transform="translate(17.416 0.678)">
        <g id="Group_43787" data-name="Group 43787">
          <path id="Path_26875" data-name="Path 26875" d="M245.249,118.441c-.457-1.44.453-2.047,1.5-3.146a4.5,4.5,0,0,1,4.216-.893,7.108,7.108,0,0,1,3.676,1.817c1.736,1.743,2.119,6.455-.929,6.594C248.9,123.032,246.036,120.921,245.249,118.441Z" transform="translate(-245.128 -114.252)" fill="#374263"/>
        </g>
      </g>
      <g id="Group_43790" data-name="Group 43790" transform="translate(18.066)">
        <g id="Group_43789" data-name="Group 43789">
          <path id="Path_26876" data-name="Path 26876" d="M255.584,126.13c-.66-1.962-2.259-3.161-3.481-4.836l-6.493-4.041c1.6-2.421,6.588-4.331,9.855-3.138,3.493,1.275,5.524,4.867,7.375,10.245a15.557,15.557,0,0,0,4.119,6.208c9.326,8.865,9.647,17.944,3.967,21.5a8.218,8.218,0,0,1-9.788-.343C254.813,147.227,254.832,130.683,255.584,126.13Z" transform="translate(-245.61 -113.75)" fill="#374263"/>
        </g>
      </g>
      <g id="Group_43792" data-name="Group 43792" transform="translate(17.431 5.807)">
        <g id="Group_43791" data-name="Group 43791">
          <path id="Path_26877" data-name="Path 26877" d="M249.741,122.775a9.293,9.293,0,0,0,3.9-.325l-.121-.363c-.031.009-3.231,1.044-5.6-.33a5.23,5.23,0,0,1-2.4-3.7l-.374.076a5.594,5.594,0,0,0,2.583,3.96A5.721,5.721,0,0,0,249.741,122.775Z" transform="translate(-245.139 -118.055)" fill="#374263"/>
        </g>
      </g>
      <g id="Group_43794" data-name="Group 43794" transform="translate(25.758 9.569)">
        <g id="Group_43793" data-name="Group 43793">
          <path id="Path_26878" data-name="Path 26878" d="M251.333,122.3a1.707,1.707,0,1,0,1.943-1.431A1.706,1.706,0,0,0,251.333,122.3Z" transform="translate(-251.313 -120.844)" fill="#ffc49c"/>
        </g>
      </g>
      <g id="Group_43806" data-name="Group 43806" transform="translate(43.785 145.016)">
        <g id="Group_43797" data-name="Group 43797">
          <g id="Group_43796" data-name="Group 43796">
            <g id="Group_43795" data-name="Group 43795">
              <path id="Path_26879" data-name="Path 26879" d="M264.884,235.708l9.085.012a.95.95,0,0,0,.685-.293l8.493-8.895a.869.869,0,0,0-.012-1.21l-3.9-3.759c-.473-.477-1.587-.364-1.536.306.248,3.256-3.612,3.814-5.98,3.3a.588.588,0,0,0-.685.414c-.341,1.219-.774,4.022-1.334,4.772-.989,1.324-2.48,1.621-3.655,2.231A2.373,2.373,0,0,0,264.884,235.708Z" transform="translate(-264.68 -221.273)" fill="#374263"/>
            </g>
          </g>
        </g>
        <g id="Group_43799" data-name="Group 43799" transform="translate(5.423 7.874)">
          <g id="Group_43798" data-name="Group 43798">
            <path id="Path_26880" data-name="Path 26880" d="M271.048,228.176a2.159,2.159,0,0,1-2.347-.882l.3-.183a1.776,1.776,0,0,0,1.961.726Z" transform="translate(-268.701 -227.111)" fill="#fff"/>
          </g>
        </g>
        <g id="Group_43801" data-name="Group 43801" transform="translate(4.563 9.515)">
          <g id="Group_43800" data-name="Group 43800">
            <path id="Path_26881" data-name="Path 26881" d="M270.3,229.352a2.175,2.175,0,0,1-2.242-.831l.291-.193a1.834,1.834,0,0,0,1.884.68Z" transform="translate(-268.063 -228.328)" fill="#fff"/>
          </g>
        </g>
        <g id="Group_43803" data-name="Group 43803" transform="translate(9.383 2.66)">
          <g id="Group_43802" data-name="Group 43802">
            <path id="Path_26882" data-name="Path 26882" d="M274.264,225.364a6.467,6.467,0,0,1-2.627.456l.023-.349c.035,0,3.457.2,4.122-2.225l.339.092A3.071,3.071,0,0,1,274.264,225.364Z" transform="translate(-271.637 -223.245)" fill="#fff"/>
          </g>
        </g>
        <g id="Group_43805" data-name="Group 43805" transform="translate(9.141 5.497)">
          <g id="Group_43804" data-name="Group 43804" transform="translate(0 0)">
            <rect id="Rectangle_15937" data-name="Rectangle 15937" width="10.033" height="0.35" transform="translate(0 7.161) rotate(-45.536)" fill="#fff"/>
          </g>
        </g>
      </g>
      <g id="Group_43825" data-name="Group 43825" transform="translate(0 150.678)">
        <g id="Group_43812" data-name="Group 43812">
          <g id="Group_43811" data-name="Group 43811">
            <g id="Group_43810" data-name="Group 43810">
              <g id="Group_43809" data-name="Group 43809">
                <g id="Group_43808" data-name="Group 43808">
                  <g id="Group_43807" data-name="Group 43807">
                    <path id="Path_26883" data-name="Path 26883" d="M253.239,234.183l-19.826.073a1.19,1.19,0,0,1-1.195-1.269v-.024c.013-.151.031-.307.054-.464a3.108,3.108,0,0,1,.453-1.386c.936-1.25,2.759-1.826,6.006-3.128a26.05,26.05,0,0,0,4.528-2.41.626.626,0,0,1,.785.08c3.936,3.819,6.34,2.994,7.054,1.409.546-1.208,1.327-.959,1.543-.607.665,1.1,1.04,4.34,1.192,5.963.019.174.034.334.043.464.024.3.038.486.038.486A.692.692,0,0,1,253.239,234.183Z" transform="translate(-232.215 -225.471)" fill="#374263"/>
                  </g>
                </g>
              </g>
            </g>
          </g>
        </g>
        <g id="Group_43819" data-name="Group 43819" transform="translate(4.745 2.442)">
          <g id="Group_43814" data-name="Group 43814" transform="translate(1.686)">
            <g id="Group_43813" data-name="Group 43813">
              <path id="Path_26884" data-name="Path 26884" d="M238.2,229.43a2.118,2.118,0,0,1-1.2-2.148l.34.051a1.744,1.744,0,0,0,1.013,1.786Z" transform="translate(-236.983 -227.282)" fill="#fff"/>
            </g>
          </g>
          <g id="Group_43816" data-name="Group 43816" transform="translate(0 0.696)">
            <g id="Group_43815" data-name="Group 43815">
              <path id="Path_26885" data-name="Path 26885" d="M236.9,229.84a2.135,2.135,0,0,1-1.157-2.042l.341.039a1.8,1.8,0,0,0,.985,1.7Z" transform="translate(-235.733 -227.798)" fill="#fff"/>
            </g>
          </g>
          <g id="Group_43818" data-name="Group 43818" transform="translate(9.802 0.506)">
            <g id="Group_43817" data-name="Group 43817">
              <path id="Path_26886" data-name="Path 26886" d="M245.55,228.984a6.337,6.337,0,0,1-2.549-.606l.156-.306c.03.016,3.044,1.516,4.583-.415l.27.214A3.013,3.013,0,0,1,245.55,228.984Z" transform="translate(-243.001 -227.657)" fill="#fff"/>
            </g>
          </g>
        </g>
        <g id="Group_43824" data-name="Group 43824" transform="translate(3.474 7.171)">
          <g id="Group_43821" data-name="Group 43821" transform="translate(4.215 0)">
            <g id="Group_43820" data-name="Group 43820" transform="translate(0)">
              <rect id="Rectangle_15938" data-name="Rectangle 15938" width="11.554" height="0.344" transform="translate(0 0.043) rotate(-0.211)" fill="#fff"/>
            </g>
          </g>
          <g id="Group_43823" data-name="Group 43823" transform="translate(0 0.048)">
            <g id="Group_43822" data-name="Group 43822" transform="translate(0 0)">
              <rect id="Rectangle_15939" data-name="Rectangle 15939" width="2.732" height="0.344" transform="matrix(1, -0.004, 0.004, 1, 0, 0.01)" fill="#fff"/>
            </g>
          </g>
        </g>
      </g>
      <path id="Path_26887" data-name="Path 26887" d="M246.273,166.7a48.231,48.231,0,0,0,5.884,1.964c2.878-3.217,9.2-9.028,9.8-22.538Z" transform="translate(-227.313 -102.461)" fill="#9aade5"/>
      <g id="Group_43826" data-name="Group 43826" transform="translate(10.188 34.658)">
        <path id="Path_26888" data-name="Path 26888" d="M242.178,172.391c18.8-4.266,22.043-23.939,22.043-23.939s-3.106-8.655-6.907-8.973l-.109-.008a6.726,6.726,0,0,0-7.264,6.41c-.333,6.83-1.68,15.316-10.172,20.348Z" transform="translate(-239.769 -139.447)" fill="#bac8f3"/>
      </g>
      <g id="Group_43828" data-name="Group 43828" transform="translate(10.051 30.524)">
        <g id="Group_43827" data-name="Group 43827">
          <path id="Path_26889" data-name="Path 26889" d="M239.942,167.53l-.275-.464c7.818-4.633,8.895-12.153,9.844-18.789.066-.463.132-.918.2-1.365.345-2.32,1.528-7.988,5.058-10.531l.316.437c-3.362,2.422-4.5,7.921-4.84,10.172-.066.448-.131.9-.2,1.364C249.127,154.775,247.983,162.765,239.942,167.53Z" transform="translate(-239.667 -136.382)" fill="#2e4882"/>
        </g>
      </g>
      <g id="Group_43829" data-name="Group 43829" transform="translate(28.749 44.659)">
        <path id="Path_26890" data-name="Path 26890" d="M253.937,159.081l-.406-.356c3.24-3.7,5.49-11.782,5.512-11.863l.521.143C259.471,147.342,257.257,155.286,253.937,159.081Z" transform="translate(-253.531 -146.862)" fill="#2e4882"/>
      </g>
      <g id="Group_43830" data-name="Group 43830" transform="translate(19.401 66.617)">
        <path id="Path_26891" data-name="Path 26891" d="M251.013,168.636c-.159-.081-3.925-2-4.413-5.418l.534-.076c.448,3.136,4.084,4.993,4.12,5.01Z" transform="translate(-246.6 -163.143)" fill="#fff"/>
      </g>
      <g id="Group_43831" data-name="Group 43831" transform="translate(2.26 62.334)">
        <path id="Path_26892" data-name="Path 26892" d="M237.074,165.162c.046.158-3.3.85-3.1,1.378.264.705,2.937-.561,3.086-.251.07.154-.951.432-1.54.678-.325.134-.27.422-.032.445,2.473.237,5.979-2.312,6.391-2.4.715-.144,1.407-.306,2.074-.479l-1.782-4.567c-.334.236-.682.454-1.04.668a7.747,7.747,0,0,1-2.228,1.036c-.488.013-3.115-.251-3.12.316,0,.589,1.842.39,1.759.854-.051.287-3.666.734-3.4,1.393.171.432,2.325-.135,2.329.12.005.237-2.789.386-2.567,1.04C234.135,166.076,236.985,164.842,237.074,165.162Z" transform="translate(-233.891 -159.968)" fill="#ffbb8d"/>
      </g>
    </g>
    <g id="Group_43837" data-name="Group 43837" transform="translate(269.198 369.483)">
      <g id="Group_43833" data-name="Group 43833" transform="translate(22.431 11.822)">
        <path id="Path_26893" data-name="Path 26893" d="M197.609,190.028,191.956,212.5a.261.261,0,0,0,.027.175.246.246,0,0,0,.14.1h.005l6.738,1.694a.226.226,0,0,0,.186-.034.23.23,0,0,0,.1-.16l3.388-23.038a.238.238,0,0,0-.173-.26l-4.475-1.123A.238.238,0,0,0,197.609,190.028Z" transform="translate(-191.952 -189.851)" fill="#613fb9"/>
      </g>
      <g id="Group_43834" data-name="Group 43834" transform="translate(15.085 0.633)">
        <path id="Path_26894" data-name="Path 26894" d="M199.247,193.808l-12.742-3.2,1.225-4.876a5.853,5.853,0,0,1,7.226-3.987l1.03.26a6.224,6.224,0,0,1,3.709,2.6,5.4,5.4,0,0,1,.776,4.323Zm-10.286-4.668,8.816,2.212.731-2.912a3.4,3.4,0,0,0-.5-2.716,4.2,4.2,0,0,0-2.513-1.753l-1.03-.26a3.834,3.834,0,0,0-4.77,2.518Z" transform="translate(-186.505 -181.554)" fill="#374263"/>
      </g>
      <g id="Group_43835" data-name="Group 43835" transform="translate(0 6.753)">
        <path id="Path_26895" data-name="Path 26895" d="M175.332,208.155a.266.266,0,0,0,.014.19.243.243,0,0,0,.148.115l22.434,5.629a.225.225,0,0,0,.272-.146l7.894-21.905a.23.23,0,0,0-.014-.192.242.242,0,0,0-.147-.115L183.505,186.1a.236.236,0,0,0-.278.148Z" transform="translate(-175.32 -186.093)" fill="#a4a7b8"/>
      </g>
      <g id="Group_43836" data-name="Group 43836" transform="translate(12.114)">
        <path id="Path_26896" data-name="Path 26896" d="M197.044,195.167l-12.742-3.2,1.683-6.7a5.4,5.4,0,0,1,2.724-3.443,6.231,6.231,0,0,1,4.5-.542l1.029.259a6.234,6.234,0,0,1,3.712,2.6,5.408,5.408,0,0,1,.775,4.321ZM186.758,190.5l8.816,2.213,1.19-4.741a3.4,3.4,0,0,0-.5-2.716,4.213,4.213,0,0,0-2.514-1.753l-1.03-.259a4.224,4.224,0,0,0-3.044.357,3.4,3.4,0,0,0-1.726,2.159Z" transform="translate(-184.302 -181.085)" fill="#374263"/>
      </g>
    </g>
    <g id="Group_43842" data-name="Group 43842" transform="translate(281.632 336.836)">
      <g id="Group_43838" data-name="Group 43838" transform="translate(30.178 15.256)">
        <path id="Path_26897" data-name="Path 26897" d="M218.762,168.352l-11.835,37.623a.232.232,0,0,0,.151.289l9.067,2.855a.231.231,0,0,0,.187-.023.216.216,0,0,0,.107-.151l8.807-38.559a.224.224,0,0,0-.156-.27l-6.035-1.914a.232.232,0,0,0-.175.012A.255.255,0,0,0,218.762,168.352Z" transform="translate(-206.916 -168.19)" fill="#613fb9"/>
      </g>
      <g id="Group_43839" data-name="Group 43839" transform="translate(26.661 0.955)">
        <path id="Path_26898" data-name="Path 26898" d="M217.883,171.5l-.575-.181,1.609-5.117a5.879,5.879,0,0,0-3.829-7.35l-1.242-.39a5.868,5.868,0,0,0-7.352,3.832l-1.61,5.116-.576-.181,1.61-5.117a6.482,6.482,0,0,1,8.108-4.225l1.242.39a6.482,6.482,0,0,1,4.224,8.108Z" transform="translate(-204.308 -157.587)" fill="#3f5a9f"/>
      </g>
      <g id="Group_43840" data-name="Group 43840" transform="translate(0 6.727)">
        <path id="Path_26899" data-name="Path 26899" d="M184.556,198.662a.231.231,0,0,0,.008.189.225.225,0,0,0,.136.121h0l30.176,9.495a.233.233,0,0,0,.286-.132l14.864-36.653a.241.241,0,0,0,0-.186.3.3,0,0,0-.14-.124l-30.18-9.495a.224.224,0,0,0-.282.134Z" transform="translate(-184.54 -161.866)" fill="#494f71"/>
      </g>
      <g id="Group_43841" data-name="Group 43841" transform="translate(22.875)">
        <path id="Path_26900" data-name="Path 26900" d="M215.078,173.193l-.576-.181,2.364-7.518a5.867,5.867,0,0,0-3.832-7.35l-1.242-.391a5.87,5.87,0,0,0-7.35,3.833l-2.366,7.516-.576-.181,2.366-7.518a6.47,6.47,0,0,1,8.108-4.225l1.242.39a6.486,6.486,0,0,1,4.225,8.108Z" transform="translate(-201.501 -156.879)" fill="#3f5a9f"/>
      </g>
    </g>
    <g id="Group_43847" data-name="Group 43847" transform="translate(266.171 348.496)">
      <g id="Group_43843" data-name="Group 43843" transform="translate(20.333 6.371)">
        <path id="Path_26901" data-name="Path 26901" d="M188.157,171.52l4.947,22.636a.266.266,0,0,0,.1.144.237.237,0,0,0,.173.03h0l6.789-1.485a.231.231,0,0,0,.169-.3l-7.228-22.136a.236.236,0,0,0-.27-.156l-4.507.987A.237.237,0,0,0,188.157,171.52Z" transform="translate(-188.152 -170.247)" fill="#f49b51"/>
      </g>
      <g id="Group_43844" data-name="Group 43844" transform="translate(7.178)">
        <path id="Path_26902" data-name="Path 26902" d="M179.363,175.749l-.859-3.922a4.7,4.7,0,0,1,.793-3.737,5.525,5.525,0,0,1,3.361-2.2l1.037-.228a5.523,5.523,0,0,1,3.972.6,4.7,4.7,0,0,1,2.282,3.064l.859,3.921-.589.129-.859-3.922a4.1,4.1,0,0,0-2-2.67,4.925,4.925,0,0,0-3.539-.531l-1.038.228a4.927,4.927,0,0,0-3,1.962,4.105,4.105,0,0,0-.7,3.261l.859,3.922Z" transform="translate(-178.399 -165.524)" fill="#3f5a9f"/>
      </g>
      <g id="Group_43845" data-name="Group 43845" transform="translate(0 6.867)">
        <path id="Path_26903" data-name="Path 26903" d="M175.767,198.952a.258.258,0,0,0,.1.165.238.238,0,0,0,.183.036l22.592-4.951a.225.225,0,0,0,.179-.252l-2.688-23.129a.225.225,0,0,0-.1-.165.247.247,0,0,0-.183-.038l-22.589,4.947a.238.238,0,0,0-.183.258Z" transform="translate(-173.076 -170.616)" fill="#fcc659"/>
      </g>
      <g id="Group_43846" data-name="Group 43846" transform="translate(4.647 0.554)">
        <path id="Path_26904" data-name="Path 26904" d="M177.891,178l-1.262-5.762a4.692,4.692,0,0,1,.793-3.737,5.53,5.53,0,0,1,3.36-2.205l1.036-.227a5.528,5.528,0,0,1,3.975.6,4.7,4.7,0,0,1,2.282,3.064l1.262,5.762-.589.128-1.262-5.762a4.1,4.1,0,0,0-2-2.67,4.923,4.923,0,0,0-3.542-.53l-1.037.227a4.926,4.926,0,0,0-2.994,1.962,4.1,4.1,0,0,0-.7,3.261l1.261,5.762Z" transform="translate(-176.522 -165.935)" fill="#3f5a9f"/>
      </g>
    </g>
    <g id="Group_43863" data-name="Group 43863" transform="translate(254.159 342.493)">
      <g id="Group_43848" data-name="Group 43848" transform="translate(7.377 63.564)">
        <path id="Path_26905" data-name="Path 26905" d="M225.576,227.011H169.64v-.7h55.936a2.719,2.719,0,0,0,2.523-1.706,2.888,2.888,0,0,0-.579-3.176l-9.581-12.811.558-.417,9.551,12.776a3.545,3.545,0,0,1,.691,3.9A3.406,3.406,0,0,1,225.576,227.011Z" transform="translate(-169.64 -208.203)" fill="#3f5a9f"/>
      </g>
      <g id="Group_43850" data-name="Group 43850" transform="translate(13.591 82.506)">
        <path id="Path_26906" data-name="Path 26906" d="M174.247,229.57a5,5,0,1,0,5-5A5,5,0,0,0,174.247,229.57Z" transform="translate(-174.247 -221.438)" fill="#374263"/>
        <g id="Group_43849" data-name="Group 43849" transform="translate(0.371)">
          <path id="Path_26907" data-name="Path 26907" d="M174.522,222.248l3.012,8.8a1.76,1.76,0,1,0,3.331-1.138l-2.619-7.665Z" transform="translate(-174.522 -222.248)" fill="#a4a7b8"/>
        </g>
        <path id="Path_26908" data-name="Path 26908" d="M177.069,228.662a1.194,1.194,0,1,0,1.194-1.194A1.193,1.193,0,0,0,177.069,228.662Z" transform="translate(-173.263 -220.428)" fill="#374263"/>
      </g>
      <g id="Group_43852" data-name="Group 43852" transform="translate(50.266 82.506)">
        <path id="Path_26909" data-name="Path 26909" d="M201.44,229.57a5,5,0,1,0,5-5A5,5,0,0,0,201.44,229.57Z" transform="translate(-201.44 -221.438)" fill="#374263"/>
        <g id="Group_43851" data-name="Group 43851" transform="translate(0.371)">
          <path id="Path_26910" data-name="Path 26910" d="M201.715,222.248l3.012,8.8a1.761,1.761,0,0,0,3.333-1.138l-2.621-7.665Z" transform="translate(-201.715 -222.248)" fill="#a4a7b8"/>
        </g>
        <path id="Path_26911" data-name="Path 26911" d="M204.262,228.662a1.194,1.194,0,1,0,1.194-1.194A1.193,1.193,0,0,0,204.262,228.662Z" transform="translate(-200.456 -220.428)" fill="#374263"/>
      </g>
      <g id="Group_43853" data-name="Group 43853" transform="translate(76.015 2.129)">
        <path id="Path_26912" data-name="Path 26912" d="M221.18,187.092l-.648-.254,9.15-23.337,9.316-.849.064.693-8.888.81Z" transform="translate(-220.532 -162.652)" fill="#3f5a9f"/>
      </g>
      <g id="Group_43862" data-name="Group 43862" transform="translate(0 19.668)">
        <g id="Group_43854" data-name="Group 43854">
          <path id="Path_26913" data-name="Path 26913" d="M222.056,220.074c-.073,0-.144,0-.218,0l-48.767-1.756a7.126,7.126,0,0,1-6.547-6.816l-2.353-29.039.345-.028,78.9-6.774-15.078,39.815A6.86,6.86,0,0,1,222.056,220.074Zm-57.136-36.98,2.3,28.347a6.433,6.433,0,0,0,5.879,6.177l48.767,1.756a6.113,6.113,0,0,0,5.818-4.15l14.686-38.779Z" transform="translate(-164.17 -175.656)" fill="#3f5a9f"/>
        </g>
        <g id="Group_43857" data-name="Group 43857" transform="translate(2.058 14.906)">
          <g id="Group_43855" data-name="Group 43855" transform="translate(0.648 14.6)">
            <rect id="Rectangle_15940" data-name="Rectangle 15940" width="57.677" height="0.697" transform="translate(0 1.876) rotate(-1.864)" fill="#3f5a9f"/>
          </g>
          <g id="Group_43856" data-name="Group 43856" transform="translate(0 0)">
            <rect id="Rectangle_15941" data-name="Rectangle 15941" width="66.707" height="0.697" transform="matrix(0.998, -0.06, 0.06, 0.998, 0, 3.991)" fill="#3f5a9f"/>
          </g>
        </g>
        <g id="Group_43858" data-name="Group 43858" transform="translate(49.227 1.697)">
          <rect id="Rectangle_15942" data-name="Rectangle 15942" width="43.722" height="0.696" transform="translate(0 41.477) rotate(-71.558)" fill="#3f5a9f"/>
        </g>
        <g id="Group_43859" data-name="Group 43859" transform="translate(13.312 6.026)">
          <rect id="Rectangle_15943" data-name="Rectangle 15943" width="0.696" height="36.38" transform="translate(0 0.049) rotate(-4.027)" fill="#3f5a9f"/>
        </g>
        <g id="Group_43860" data-name="Group 43860" transform="translate(38.1 3.154)">
          <rect id="Rectangle_15944" data-name="Rectangle 15944" width="40.638" height="0.696" transform="translate(0 39.824) rotate(-78.512)" fill="#3f5a9f"/>
        </g>
        <g id="Group_43861" data-name="Group 43861" transform="translate(27.206 4.379)">
          <rect id="Rectangle_15945" data-name="Rectangle 15945" width="38.708" height="0.696" transform="matrix(0.06, -0.998, 0.998, 0.06, 0, 38.639)" fill="#3f5a9f"/>
        </g>
      </g>
      <path id="Path_26914" data-name="Path 26914" d="M232.624,166.654l4.563-.438a2.585,2.585,0,0,0,2.318-2.812h0a2.585,2.585,0,0,0-2.812-2.318l-4.563.44a2.583,2.583,0,0,0-2.318,2.812h0A2.584,2.584,0,0,0,232.624,166.654Z" transform="translate(-141.285 -161.073)" fill="#374263"/>
    </g>
    <g id="Group_43870" data-name="Group 43870" transform="translate(232.741 219.147)">
      <g id="Group_43866" data-name="Group 43866" transform="translate(7.907 4.843)">
        <g id="Group_43865" data-name="Group 43865">
          <g id="Group_43864" data-name="Group 43864">
            <path id="Path_26915" data-name="Path 26915" d="M96,83.228l-.426-.256c5.032-8.393,13.136-14.087,25.508-17.92l.147.475C108.984,69.322,100.968,74.946,96,83.228Z" transform="translate(-95.577 -65.052)" fill="#2e4882"/>
          </g>
        </g>
      </g>
      <g id="Group_43869" data-name="Group 43869">
        <g id="Group_43868" data-name="Group 43868">
          <g id="Group_43867" data-name="Group 43867">
            <path id="Path_26916" data-name="Path 26916" d="M90.181,88.459l-.467-.17c6.5-17.853,23.166-23.581,38.617-26.828l.1.487C113.117,65.169,96.594,70.836,90.181,88.459Z" transform="translate(-89.714 -61.461)" fill="#2e4882"/>
          </g>
        </g>
      </g>
    </g>
    <g id="Group_43877" data-name="Group 43877" transform="translate(411.401 289.38)">
      <g id="Group_43873" data-name="Group 43873" transform="translate(4.185 5.918)">
        <g id="Group_43872" data-name="Group 43872">
          <g id="Group_43871" data-name="Group 43871">
            <path id="Path_26917" data-name="Path 26917" d="M305.1,148.872c-5.565-11.55-12.315-18.646-21.239-22.332l.19-.46c9.044,3.735,15.875,10.907,21.5,22.576Z" transform="translate(-283.861 -126.08)" fill="#2e4882"/>
          </g>
        </g>
      </g>
      <g id="Group_43876" data-name="Group 43876">
        <g id="Group_43875" data-name="Group 43875">
          <g id="Group_43874" data-name="Group 43874">
            <path id="Path_26918" data-name="Path 26918" d="M312.637,156.088c-5.45-14.671-13.5-30.174-31.879-33.908l.1-.488c18.617,3.783,26.749,19.423,32.247,34.223Z" transform="translate(-280.758 -121.692)" fill="#2e4882"/>
          </g>
        </g>
      </g>
    </g>
    <g id="Group_43945" data-name="Group 43945" transform="translate(106.929 403.401)">
      <g id="Group_43924" data-name="Group 43924" transform="translate(49.175 5.925)">
        <g id="Group_43882" data-name="Group 43882" transform="translate(7.464 22.785)">
          <g id="Group_43879" data-name="Group 43879" transform="translate(0 2.27)">
            <g id="Group_43878" data-name="Group 43878">
              <path id="Path_26919" data-name="Path 26919" d="M97,235.57c0,1.284,9.43,2.328,21.06,2.328s21.06-1.044,21.06-2.328a.3.3,0,0,0-.011-.07v-6.3H97.015v6.281A.262.262,0,0,0,97,235.57Z" transform="translate(-97 -229.204)" fill="#f49b51"/>
            </g>
          </g>
          <g id="Group_43881" data-name="Group 43881" transform="translate(0.002)">
            <g id="Group_43880" data-name="Group 43880">
              <ellipse id="Ellipse_4073" data-name="Ellipse 4073" cx="21.058" cy="2.329" rx="21.058" ry="2.329" fill="#fcc659"/>
            </g>
          </g>
        </g>
        <g id="Group_43887" data-name="Group 43887" transform="translate(2.487 15.19)">
          <g id="Group_43884" data-name="Group 43884" transform="translate(0 2.271)">
            <g id="Group_43883" data-name="Group 43883">
              <path id="Path_26920" data-name="Path 26920" d="M93.31,229.937c0,1.284,9.43,2.329,21.06,2.329s21.06-1.045,21.06-2.329a.3.3,0,0,0-.011-.069v-6.3H93.326v6.281A.231.231,0,0,0,93.31,229.937Z" transform="translate(-93.31 -223.573)" fill="#f49b51"/>
            </g>
          </g>
          <g id="Group_43886" data-name="Group 43886" transform="translate(0.003)">
            <g id="Group_43885" data-name="Group 43885">
              <ellipse id="Ellipse_4074" data-name="Ellipse 4074" cx="21.058" cy="2.329" rx="21.058" ry="2.329" fill="#fcc659"/>
            </g>
          </g>
        </g>
        <g id="Group_43892" data-name="Group 43892" transform="translate(7.464 7.595)">
          <g id="Group_43889" data-name="Group 43889" transform="translate(0 2.271)">
            <g id="Group_43888" data-name="Group 43888">
              <path id="Path_26921" data-name="Path 26921" d="M97,224.306c0,1.284,9.43,2.329,21.06,2.329s21.06-1.045,21.06-2.329a.316.316,0,0,0-.011-.07v-6.294H97.015v6.28A.268.268,0,0,0,97,224.306Z" transform="translate(-97 -217.942)" fill="#f49b51"/>
            </g>
          </g>
          <g id="Group_43891" data-name="Group 43891" transform="translate(0.002)">
            <g id="Group_43890" data-name="Group 43890">
              <ellipse id="Ellipse_4075" data-name="Ellipse 4075" cx="21.058" cy="2.329" rx="21.058" ry="2.329" fill="#fcc659"/>
            </g>
          </g>
        </g>
        <g id="Group_43899" data-name="Group 43899" transform="translate(14.334 31.418)">
          <g id="Group_43895" data-name="Group 43895" transform="translate(12.706)">
            <g id="Group_43894" data-name="Group 43894">
              <g id="Group_43893" data-name="Group 43893">
                <path id="Path_26922" data-name="Path 26922" d="M113,236.5c8.566,0,21.308-.686,21.308-2.579h-.5c0,.727-7.147,2.081-20.81,2.081-.5,0-.99,0-1.477-.007l0,.5C112,236.5,112.5,236.5,113,236.5Z" transform="translate(-111.515 -233.922)" fill="#2e4882"/>
              </g>
            </g>
          </g>
          <g id="Group_43898" data-name="Group 43898" transform="translate(0 1.475)">
            <g id="Group_43897" data-name="Group 43897">
              <g id="Group_43896" data-name="Group 43896">
                <path id="Path_26923" data-name="Path 26923" d="M107.932,235.929l.023-.5c-2.132-.1-4.088-.241-5.812-.415l-.05.495C103.827,235.685,105.791,235.827,107.932,235.929Z" transform="translate(-102.094 -235.016)" fill="#2e4882"/>
              </g>
            </g>
          </g>
        </g>
        <g id="Group_43909" data-name="Group 43909" transform="translate(6.806 23.795)">
          <g id="Group_43902" data-name="Group 43902" transform="translate(29.983)">
            <g id="Group_43901" data-name="Group 43901">
              <g id="Group_43900" data-name="Group 43900">
                <path id="Path_26924" data-name="Path 26924" d="M118.788,230.316c7.914-.72,7.914-1.717,7.914-2.046h-.5c0,.243-1.341.994-7.461,1.551Z" transform="translate(-118.743 -228.27)" fill="#2e4882"/>
              </g>
            </g>
          </g>
          <g id="Group_43905" data-name="Group 43905" transform="translate(11.088 1.952)">
            <g id="Group_43904" data-name="Group 43904">
              <g id="Group_43903" data-name="Group 43903">
                <path id="Path_26925" data-name="Path 26925" d="M110.279,230.344c2.367,0,4.692-.045,6.911-.129l-.02-.5c-3.961.154-8.34.171-12.423.047l-.013.5C106.54,230.316,108.405,230.344,110.279,230.344Z" transform="translate(-104.733 -229.717)" fill="#2e4882"/>
              </g>
            </g>
          </g>
          <g id="Group_43908" data-name="Group 43908" transform="translate(0 1.187)">
            <g id="Group_43907" data-name="Group 43907">
              <g id="Group_43906" data-name="Group 43906">
                <path id="Path_26926" data-name="Path 26926" d="M102.371,230.214l.034-.5c-2.246-.147-4.205-.339-5.822-.566l-.07.492C98.143,229.873,100.113,230.064,102.371,230.214Z" transform="translate(-96.512 -229.15)" fill="#2e4882"/>
              </g>
            </g>
          </g>
        </g>
        <g id="Group_43916" data-name="Group 43916" transform="translate(16.353 9.947)">
          <g id="Group_43912" data-name="Group 43912" transform="translate(26.279)">
            <g id="Group_43911" data-name="Group 43911">
              <g id="Group_43910" data-name="Group 43910">
                <path id="Path_26927" data-name="Path 26927" d="M123.127,219.962c7.019-.716,7.019-1.62,7.019-1.96h-.5c0,.008-.179.813-6.572,1.465Z" transform="translate(-123.076 -218.002)" fill="#2e4882"/>
              </g>
            </g>
          </g>
          <g id="Group_43915" data-name="Group 43915" transform="translate(0 1.664)">
            <g id="Group_43914" data-name="Group 43914">
              <g id="Group_43913" data-name="Group 43913">
                <path id="Path_26928" data-name="Path 26928" d="M115.632,220.149c2.421,0,4.789-.044,7.037-.134l-.02-.5c-2.242.089-4.6.134-7.017.134-4.321,0-8.472-.143-12-.415l-.038.495C107.134,220,111.3,220.149,115.632,220.149Z" transform="translate(-103.591 -219.236)" fill="#2e4882"/>
              </g>
            </g>
          </g>
        </g>
        <g id="Group_43923" data-name="Group 43923">
          <g id="Group_43918" data-name="Group 43918" transform="translate(0 2.27)">
            <g id="Group_43917" data-name="Group 43917">
              <path id="Path_26929" data-name="Path 26929" d="M91.466,218.676c0,1.284,9.43,2.328,21.059,2.328s21.06-1.044,21.06-2.328a.4.4,0,0,0-.009-.07v-6.3H91.481v6.281A.23.23,0,0,0,91.466,218.676Z" transform="translate(-91.466 -212.31)" fill="#f49b51"/>
            </g>
          </g>
          <g id="Group_43920" data-name="Group 43920" transform="translate(0.001)">
            <g id="Group_43919" data-name="Group 43919">
              <ellipse id="Ellipse_4076" data-name="Ellipse 4076" cx="21.058" cy="2.329" rx="21.058" ry="2.329" fill="#fcc659"/>
            </g>
          </g>
          <g id="Group_43922" data-name="Group 43922" transform="translate(3.907 0.762)">
            <g id="Group_43921" data-name="Group 43921">
              <ellipse id="Ellipse_4077" data-name="Ellipse 4077" cx="17.153" cy="1.566" rx="17.153" ry="1.566" fill="#f49b51"/>
            </g>
          </g>
        </g>
      </g>
      <g id="Group_43944" data-name="Group 43944">
        <g id="Group_43926" data-name="Group 43926">
          <g id="Group_43925" data-name="Group 43925">
            <path id="Path_26930" data-name="Path 26930" d="M76.854,206.242a21.272,21.272,0,1,0,20.688,21.841A21.271,21.271,0,0,0,76.854,206.242Zm16.54,21.73a17.121,17.121,0,1,1-17.128-17.587c.16,0,.317,0,.477.008A17.14,17.14,0,0,1,93.4,227.5C93.4,227.661,93.4,227.816,93.394,227.972Z" transform="translate(-55.005 -206.234)" fill="#fcc659"/>
          </g>
        </g>
        <g id="Group_43928" data-name="Group 43928" transform="translate(4.153 4.15)">
          <g id="Group_43927" data-name="Group 43927">
            <path id="Path_26931" data-name="Path 26931" d="M92.326,226.431c0,.156,0,.312,0,.468a17.122,17.122,0,1,1-17.13-17.588c.16,0,.317.005.477.009A17.14,17.14,0,0,1,92.326,226.431Z" transform="translate(-58.084 -209.311)" fill="#f49b51"/>
          </g>
        </g>
        <g id="Group_43931" data-name="Group 43931" transform="translate(15.309 8.18)">
          <g id="Group_43930" data-name="Group 43930">
            <g id="Group_43929" data-name="Group 43929">
              <path id="Path_26932" data-name="Path 26932" d="M71.236,238.487v-3.222a9.284,9.284,0,0,1-4.88-1.4l.766-2.138a8.5,8.5,0,0,0,4.592,1.372c2.266,0,3.8-1.308,3.8-3.125,0-1.755-1.245-2.839-3.605-3.8-3.253-1.276-5.263-2.743-5.263-5.519,0-2.647,1.881-4.657,4.816-5.134V212.3h1.977v3.094a8.509,8.509,0,0,1,4.147,1.117l-.8,2.1a7.725,7.725,0,0,0-4.019-1.084c-2.456,0-3.381,1.467-3.381,2.743,0,1.659,1.18,2.488,3.954,3.637,3.285,1.339,4.944,3,4.944,5.837,0,2.519-1.755,4.881-5.039,5.423v3.316Z" transform="translate(-66.356 -212.299)" fill="#fcc659"/>
            </g>
          </g>
        </g>
        <g id="Group_43933" data-name="Group 43933" transform="translate(28.488 5.523)">
          <g id="Group_43932" data-name="Group 43932">
            <path id="Path_26933" data-name="Path 26933" d="M85.33,221.794c-.035-.139-.076-.278-.116-.417a16.913,16.913,0,0,0-9.086-10.628l.2-.421a17.367,17.367,0,0,1,9.328,10.892c.049.171.09.313.128.457Z" transform="translate(-76.128 -210.329)" fill="#2e4882"/>
          </g>
        </g>
        <g id="Group_43935" data-name="Group 43935" transform="translate(16.977 3.889)">
          <g id="Group_43934" data-name="Group 43934">
            <path id="Path_26934" data-name="Path 26934" d="M79.1,211.172a16.894,16.894,0,0,0-11.4-1.049l-.116-.449A17.357,17.357,0,0,1,79.3,210.751Z" transform="translate(-67.593 -209.118)" fill="#2e4882"/>
          </g>
        </g>
        <g id="Group_43937" data-name="Group 43937" transform="translate(35.905 23.567)">
          <g id="Group_43936" data-name="Group 43936">
            <path id="Path_26935" data-name="Path 26935" d="M82.026,230.168l-.4-.235a16.818,16.818,0,0,0,2.177-6.226l.459.065A17.227,17.227,0,0,1,82.026,230.168Z" transform="translate(-81.627 -223.708)" fill="#2e4882"/>
          </g>
        </g>
        <g id="Group_43940" data-name="Group 43940" transform="translate(29.629 1.519)">
          <g id="Group_43939" data-name="Group 43939">
            <g id="Group_43938" data-name="Group 43938">
              <path id="Path_26936" data-name="Path 26936" d="M82.462,211.294a21,21,0,0,0-5.488-3.477l.2-.457a21.479,21.479,0,0,1,5.617,3.559Z" transform="translate(-76.974 -207.36)" fill="#2e4882"/>
            </g>
          </g>
        </g>
        <g id="Group_43943" data-name="Group 43943" transform="translate(33.001 9.731)">
          <g id="Group_43942" data-name="Group 43942">
            <g id="Group_43941" data-name="Group 43941">
              <path id="Path_26937" data-name="Path 26937" d="M79.752,242.855l-.278-.413a21.029,21.029,0,0,0,6.017-28.726l.419-.267a21.525,21.525,0,0,1-6.158,29.406Z" transform="translate(-79.474 -213.449)" fill="#2e4882"/>
            </g>
          </g>
        </g>
      </g>
    </g>
    <g id="Group_43951" data-name="Group 43951" transform="translate(168.313 266.497)">
      <g id="Group_43950" data-name="Group 43950">
        <g id="Group_43949" data-name="Group 43949">
          <g id="Group_43948" data-name="Group 43948">
            <g id="Group_43947" data-name="Group 43947">
              <g id="Group_43946" data-name="Group 43946">
                <path id="Path_26938" data-name="Path 26938" d="M124.156,105.554H100.934a.415.415,0,1,1,0-.829h23.222a.415.415,0,0,1,0,.829Z" transform="translate(-100.519 -104.725)" fill="#2e4882"/>
              </g>
            </g>
          </g>
        </g>
      </g>
    </g>
    <g id="Group_43958" data-name="Group 43958" transform="translate(114.027 408.788)">
      <g id="Group_43953" data-name="Group 43953" transform="translate(1.455)">
        <g id="Group_43952" data-name="Group 43952">
          <path id="Path_26939" data-name="Path 26939" d="M61.347,214.069A8.036,8.036,0,0,1,65,217.9h0a8.068,8.068,0,0,1,3.66-3.841h0A8.053,8.053,0,0,1,65,210.228h0A8.044,8.044,0,0,1,61.347,214.069Z" transform="translate(-61.347 -210.228)" fill="#ffe6a6"/>
        </g>
      </g>
      <g id="Group_43955" data-name="Group 43955" transform="translate(22.438 24.38)">
        <g id="Group_43954" data-name="Group 43954">
          <path id="Path_26940" data-name="Path 26940" d="M76.905,230.537a4.687,4.687,0,0,1,2.124,2.228h0a4.692,4.692,0,0,1,2.126-2.232h0a4.677,4.677,0,0,1-2.126-2.228h0A4.683,4.683,0,0,1,76.905,230.537Z" transform="translate(-76.905 -228.305)" fill="#ffe6a6"/>
        </g>
      </g>
      <g id="Group_43957" data-name="Group 43957" transform="translate(0 20.43)">
        <g id="Group_43956" data-name="Group 43956">
          <path id="Path_26941" data-name="Path 26941" d="M60.268,227.608a4.674,4.674,0,0,1,2.124,2.228h0a4.689,4.689,0,0,1,2.127-2.232h0a4.674,4.674,0,0,1-2.127-2.228h0A4.671,4.671,0,0,1,60.268,227.608Z" transform="translate(-60.268 -225.376)" fill="#ffe6a6"/>
        </g>
      </g>
    </g>
  </g>
</svg>
