<svg xmlns="http://www.w3.org/2000/svg" width="21.662" height="21.232" viewBox="0 0 21.662 21.232">
  <g id="Group_46586" data-name="Group 46586" transform="translate(1132.713 -1003.84)">
    <path id="Path_25360" data-name="Path 25360" d="M-1122.6,1025.07q-4.2,0-8.4,0c-1.329,0-1.713-.462-1.714-2.049q0-6.808,0-13.617c0-1.478.405-2.01,1.642-1.934a7.635,7.635,0,0,0,3.766-.816c1.967-.918,3.966-1.736,5.955-2.589.967-.415,1.181-.317,1.545.8.142.437.3.561.672.373.388-.2.794-.343,1.191-.513.515-.22.865.006,1.091.565.02.05.039.1.057.153.242.653.215,1.6.734,1.907.5.289,1.2.1,1.806.1,1.484.006,1.845.419,1.851,2.149,0,1.058.02,2.117-.007,3.174-.014.532.119.792.591.708.591-.1.783.206.764.894-.036,1.28-.028,2.562,0,3.842.011.566-.142.86-.64.784-.621-.094-.741.273-.717.925.04,1.084.015,2.171.009,3.257-.008,1.336-.451,1.874-1.588,1.878C-1116.861,1025.077-1119.731,1025.069-1122.6,1025.07Zm-.009-.724c2.871,0,5.742-.009,8.613.007.624,0,.994-.219.985-1.037q-.02-1.88,0-3.761c0-.4-.134-.548-.457-.545-.635.006-1.271.008-1.906-.013a2.5,2.5,0,0,1-2.372-2.77,2.524,2.524,0,0,1,2.413-2.744c.611-.015,1.224-.019,1.835,0,.369.015.493-.153.487-.584-.018-1.2,0-2.4-.008-3.594-.006-.914-.195-1.163-.953-1.164q-8.578-.009-17.155.005c-.8,0-1.007.253-1.008,1.193q-.009,6.9,0,13.79c0,.984.2,1.208,1.055,1.21Q-1126.845,1024.351-1122.61,1024.347Zm8.813-6.027c.539,0,1.079-.017,1.617.006.377.016.561-.115.551-.606q-.031-1.456,0-2.914c.012-.493-.177-.614-.551-.608-1.078.017-2.157-.014-3.235.013a1.9,1.9,0,0,0-1.757,2.044,1.939,1.939,0,0,0,1.755,2.059C-1114.876,1018.339-1114.336,1018.319-1113.8,1018.32Zm-13.13-11.077.035.219c.985-.1,1.985.2,2.954-.169,1.094-.417,2.16-.933,3.246-1.377.392-.161.505-.353.342-.85s-.353-.546-.741-.372c-1.491.669-2.994,1.306-4.491,1.956C-1126.032,1006.845-1126.479,1007.045-1126.927,1007.243Zm4.935-.02.033.231c1.264,0,2.527.012,3.791-.007.411-.006,1.06.23,1.181-.129.177-.524-.238-1.132-.41-1.7-.069-.228-.222-.281-.4-.205Q-1119.9,1006.312-1121.993,1007.222Z" fill="#613fb9"/>
    <path id="Path_25361" data-name="Path 25361" d="M-725.309,1237.1a.958.958,0,0,1,.942.954.964.964,0,0,1-1,.961.975.975,0,0,1-.944-.958A.962.962,0,0,1-725.309,1237.1Zm.43.944a.452.452,0,0,0-.432-.443.417.417,0,0,0-.467.427.411.411,0,0,0,.418.473C-725.088,1238.515-724.923,1238.354-724.879,1238.042Z" transform="translate(-389.271 -221.719)" fill="#613fb9"/>
  </g>
</svg>
