<svg xmlns="http://www.w3.org/2000/svg" width="80.019" height="49.215" viewBox="0 0 80.019 49.215">
  <g id="Group_43371" data-name="Group 43371" transform="translate(-326 -144.025)">
    <g id="Group_43365" data-name="Group 43365" transform="translate(326 144.025)" opacity="0.078">
      <g id="Group_43329" data-name="Group 43329">
        <path id="Path_25894" data-name="Path 25894" d="M846.938,2875.344s7.779-15.64-2.166-27.105-17.738-8.114-22.078-8.433-6.073-9.87-18.911-12.9-33.973,2.82-22.663,24.319c6.718,12.772-13.919,6.942-11.025,24.152Z" transform="translate(-769.815 -2826.162)" fill="#613fb9"/>
      </g>
    </g>
    <g id="_3D7yPz" data-name="3D7yPz" transform="translate(344.568 148.444)">
      <g id="Group_43358" data-name="Group 43358" transform="translate(0)">
        <path id="Path_25905" data-name="Path 25905" d="M-1767.8,866.314a20.229,20.229,0,0,1-7.132-1.256,11.226,11.226,0,0,1-3.816-2.291,5.33,5.33,0,0,1-1.511-2.327,4.113,4.113,0,0,1,.626-3.669,8.654,8.654,0,0,1,3.545-2.829,18.5,18.5,0,0,1,6.79-1.69,22.014,22.014,0,0,1,7.093.608,14.22,14.22,0,0,1,4.574,2,6.7,6.7,0,0,1,2.288,2.466,4.054,4.054,0,0,1-.135,4.1,7.666,7.666,0,0,1-2.984,2.741,17.079,17.079,0,0,1-6.48,1.99A23.515,23.515,0,0,1-1767.8,866.314Z" transform="translate(1796.825 -852.192)" fill="#613fb9"/>
        <path id="Path_25906" data-name="Path 25906" d="M-2069.943,1199.555a21.088,21.088,0,0,1-7.906-1.249,10.764,10.764,0,0,1-3.989-2.456,4.6,4.6,0,0,1-1.506-3.725,4.86,4.86,0,0,1,1.639-3.1,12.388,12.388,0,0,1,5.546-2.874,21.749,21.749,0,0,1,7.625-.616,18.979,18.979,0,0,1,5.576,1.293,10.623,10.623,0,0,1,3.641,2.314,5,5,0,0,1,1.487,2.755,4.157,4.157,0,0,1-.706,3,8.2,8.2,0,0,1-3.105,2.657,17.253,17.253,0,0,1-6.059,1.828A18.969,18.969,0,0,1-2069.943,1199.555Z" transform="translate(2083.37 -1167.43)" fill="#613fb9"/>
        <path id="Path_25907" data-name="Path 25907" d="M-2083.509,1365.519a6.269,6.269,0,0,0,2.871,3.78,14.574,14.574,0,0,0,4.929,2.042,22.276,22.276,0,0,0,6.811.484,18.342,18.342,0,0,0,6.625-1.685,8.906,8.906,0,0,0,3.463-2.727,5.349,5.349,0,0,0,.881-2.015c0,.37,0,.74,0,1.11a12.494,12.494,0,0,1-.033,1.673,4.981,4.981,0,0,1-1.62,2.944,11.592,11.592,0,0,1-4.587,2.591,21.374,21.374,0,0,1-8.071.942,19.494,19.494,0,0,1-5.658-1.163,11.047,11.047,0,0,1-4.013-2.42,5.01,5.01,0,0,1-1.558-2.861,17.522,17.522,0,0,1-.039-1.861C-2083.519,1366.075-2083.509,1365.8-2083.509,1365.519Z" transform="translate(2083.514 -1337.669)" fill="#613fb9"/>
        <path id="Path_25908" data-name="Path 25908" d="M-2083.455,1456.386a6.251,6.251,0,0,0,3.169,4.035,15.593,15.593,0,0,0,5.621,2.034,22.5,22.5,0,0,0,7.813.017,16.106,16.106,0,0,0,5.287-1.8,7.381,7.381,0,0,0,3.292-3.272,5.664,5.664,0,0,0,.359-1.1c0,.355,0,.709,0,1.064a14.051,14.051,0,0,1-.029,1.673,4.734,4.734,0,0,1-1.274,2.628,9.4,9.4,0,0,1-3.021,2.181,18.271,18.271,0,0,1-6.3,1.661,22.252,22.252,0,0,1-6.922-.4,14.269,14.269,0,0,1-5.606-2.415,6.607,6.607,0,0,1-1.906-2.139,4.207,4.207,0,0,1-.521-2.016c0-.648,0-1.3,0-1.944C-2083.491,1456.532-2083.522,1456.457-2083.455,1456.386Z" transform="translate(2083.5 -1423.662)" fill="#613fb9"/>
        <path id="Path_25909" data-name="Path 25909" d="M-1755.056,1032.457c0,.364.012.729,0,1.092a12.146,12.146,0,0,1-.063,1.858,5.221,5.221,0,0,1-1.692,2.852,12,12,0,0,1-4.7,2.563,21.473,21.473,0,0,1-8.055.863,20.933,20.933,0,0,1-3.116-.478,2.627,2.627,0,0,1-.822-.322,14.389,14.389,0,0,0-3.7-1.6,3.716,3.716,0,0,1-1.471-.852,5.236,5.236,0,0,1-1.92-3.188,17.925,17.925,0,0,1-.041-2.266,3.252,3.252,0,0,1,.019-.445,6.421,6.421,0,0,0,3.285,4.083,15.931,15.931,0,0,0,5.743,2.012,22.136,22.136,0,0,0,5.244.261,18.266,18.266,0,0,0,7.454-1.971,9.125,9.125,0,0,0,2.354-1.744A5.383,5.383,0,0,0-1755.056,1032.457Z" transform="translate(1797.019 -1022.717)" fill="#613fb9"/>
        <path id="Path_25910" data-name="Path 25910" d="M-1574.372,1124.013a17.376,17.376,0,0,1-.09,3.085,5.154,5.154,0,0,1-1.656,2.69,11.936,11.936,0,0,1-4.648,2.539,20.514,20.514,0,0,1-7.456.9c-.084-.005-.158,0-.179-.113a7.058,7.058,0,0,0-1.229-2.779.7.7,0,0,1,.358.008,20.492,20.492,0,0,0,9.971-1.376,9.191,9.191,0,0,0,4.086-3.029A4.885,4.885,0,0,0-1574.372,1124.013Z" transform="translate(1616.315 -1109.326)" fill="#613fb9"/>
        <path id="Path_25911" data-name="Path 25911" d="M-1553.386,1305.241a19.566,19.566,0,0,1,0,2.7,4.9,4.9,0,0,1-1.712,3.095,12.289,12.289,0,0,1-5.132,2.7,20.652,20.652,0,0,1-6.8.77c-.189-.01-.246-.068-.24-.252.013-.369.006-.738.009-1.107a3.367,3.367,0,0,0-.115-.933c-.118-.422-.024-.546.4-.525a20.714,20.714,0,0,0,6.88-.806,12.721,12.721,0,0,0,4.535-2.254,5.661,5.661,0,0,0,2.121-3.1C-1553.422,1305.428-1553.405,1305.334-1553.386,1305.241Z" transform="translate(1595.309 -1280.762)" fill="#613fb9"/>
        <path id="Path_25912" data-name="Path 25912" d="M-1553.066,1214.379a17.94,17.94,0,0,1,0,2.762,4.971,4.971,0,0,1-1.735,3.055,11.842,11.842,0,0,1-4.5,2.484,20.45,20.45,0,0,1-7.452.948c-.159-.009-.2-.064-.192-.209.009-.387,0-.774.007-1.161a3.032,3.032,0,0,0-.1-.881.843.843,0,0,1-.038-.21c-.009-.343.012-.372.357-.353a20.6,20.6,0,0,0,6.781-.754,12.479,12.479,0,0,0,5-2.558,5.371,5.371,0,0,0,1.823-2.865C-1553.1,1214.552-1553.082,1214.465-1553.066,1214.379Z" transform="translate(1594.983 -1194.809)" fill="#613fb9"/>
      </g>
    </g>
  </g>
</svg>
