<svg xmlns="http://www.w3.org/2000/svg" width="306.661" height="94.966" viewBox="0 0 306.661 94.966">
  <g id="Group_46579" data-name="Group 46579" transform="translate(-219 452)">
    <path id="Path_26235" data-name="Path 26235" d="M0,85.628H4.888V50.46h.089C8.8,59.494,17.509,65.194,28.263,65.194c16.087,0,27.463-12.045,27.463-29.146S44.261,6.8,28.174,6.8C17.42,6.8,8.621,12.6,4.888,21.744H4.8l-.356-12.8H0ZM27.818,59.6C14.309,59.6,4.8,49.707,4.8,36.048c0-13.766,9.51-23.661,23.019-23.661,13.42,0,23.019,9.894,23.019,23.661C50.837,49.707,41.239,59.6,27.818,59.6Z" transform="translate(219 -442.663)" fill="#613fb9"/>
    <path id="Path_26236" data-name="Path 26236" d="M53.72,65.194c16.887,0,28-11.508,28-29.146S70.606,6.8,53.72,6.8s-28,11.615-28,29.253S36.833,65.194,53.72,65.194Zm0-5.485c-13.954,0-23.108-9.357-23.108-23.661S39.766,12.388,53.72,12.388s23.108,9.357,23.108,23.661S67.673,59.709,53.72,59.709Z" transform="translate(254.348 -442.663)" fill="#613fb9"/>
    <path id="Path_26237" data-name="Path 26237" d="M52.863,61.8H57.84V7.7H52.863Z" transform="translate(291.641 -441.418)" fill="#613fb9"/>
    <path id="Path_26238" data-name="Path 26238" d="M86.721,6.8C75.967,6.8,67.79,12.28,64.235,21.422h-.089L63.791,8.946H59.258v54.1h4.888V36.694c0-14.95,8.266-24.414,21.686-24.414,10.576,0,16.975,7.1,16.975,18.713v32.05H107.7V30.563C107.7,15.722,99.875,6.8,86.721,6.8Z" transform="translate(300.429 -442.663)" fill="#613fb9"/>
    <path id="Path_26239" data-name="Path 26239" d="M108.529,72.427h11.5V67.05H108.706c-6.488,0-10.4-4.947-10.31-13.121V23.446h21.628V18.283H98.4V0L93.419,1.506V18.283H80.266v5.162H93.509V54.251C93.419,65.651,99.108,72.427,108.529,72.427Z" transform="translate(329.297 -452)" fill="#613fb9"/>
    <path id="Path_26240" data-name="Path 26240" d="M98.337,61.8l47.816.154V56.467l-42.039-.154L146.153,14.8V7.7H98.337v5.162h42.08L98.337,54.808Z" transform="translate(354.129 -441.418)" fill="#613fb9"/>
    <path id="Path_26241" data-name="Path 26241" d="M60.537,5.7A4.207,4.207,0,1,1,56.33,1.491,4.208,4.208,0,0,1,60.537,5.7Z" transform="translate(290.625 -449.952)" fill="#613fb9"/>
    <path id="Path_26242" data-name="Path 26242" d="M137.736,15.095a7.4,7.4,0,1,1-7.4-7.386A7.394,7.394,0,0,1,137.736,15.095Z" transform="translate(387.925 -441.408)" fill="#613fb9"/>
    <path id="Path_26243" data-name="Path 26243" d="M137.736,31.718a7.4,7.4,0,1,1-7.4-7.386A7.394,7.394,0,0,1,137.736,31.718Z" transform="translate(387.925 -418.565)" fill="#613fb9"/>
    <path id="Path_26244" data-name="Path 26244" d="M137.736,23.386a7.4,7.4,0,1,1-7.4-7.386A7.394,7.394,0,0,1,137.736,23.386Z" transform="translate(387.925 -430.014)" fill="#613fb9"/>
  </g>
</svg>
