<svg xmlns="http://www.w3.org/2000/svg" width="20.717" height="24.139" viewBox="0 0 20.717 24.139">
  <g id="Group_46583" data-name="Group 46583" transform="translate(-11691.617 -1149.049)">
    <g id="Group_46582" data-name="Group 46582" transform="translate(11555.552 935.236)">
      <path id="Path_9729" data-name="Path 9729" d="M347.374,456.271a6.878,6.878,0,0,1-1.647-1.39,6.964,6.964,0,0,1-1.6-3.758,11.36,11.36,0,0,1-.07-1.176c0-.1.02-.163.132-.185a9.638,9.638,0,0,0,2.425-.866,1.989,1.989,0,0,1,1.852.029,9.6,9.6,0,0,0,2.484.869v.838a.242.242,0,0,0-.033.145,7,7,0,0,1-.262,1.474,6.821,6.821,0,0,1-3.019,4.018Zm2.892-5.786c.013-.069,0-.143-.137-.178a8.776,8.776,0,0,1-1.89-.74,1.5,1.5,0,0,0-1.459,0,8.1,8.1,0,0,1-1.889.742c-.111.026-.138.072-.131.181a7.7,7.7,0,0,0,.217,1.466,5.818,5.818,0,0,0,2.317,3.423.3.3,0,0,0,.426-.009A6.45,6.45,0,0,0,350.266,450.484Z" transform="translate(-194.173 -218.318)" fill="#613fb9"/>
      <path id="Path_9730" data-name="Path 9730" d="M155.366,226.323c-.33-.076-.635-.184-.957-.225-.159-.021-.1-.164-.1-.255,0-1.014,0-2.029,0-3.043,0-.517-.014-1.034.006-1.55.009-.244-.083-.293-.32-.292-1.927.008-3.854,0-5.78.012-.294,0-.354-.081-.353-.346.013-1.832,0-3.663.012-5.495,0-.231-.058-.3-.308-.3q-5.054.012-10.108,0c-.24,0-.316.053-.316.292q.01,10.412,0,20.824c0,.261.088.3.336.3,3.942-.007,7.885,0,11.828-.011a.585.585,0,0,1,.541.248c.19.258.418.49.635.739a.517.517,0,0,1-.3.034q-6.877,0-13.754.008c-.286,0-.357-.066-.357-.339q.013-11.384,0-22.768c0-.295.087-.349.377-.348q5.929.014,11.857,0a.713.713,0,0,1,.544.207q3.157,3.017,6.328,6.02a.527.527,0,0,1,.212.407c-.008,1.888,0,3.776-.005,5.664C155.378,226.178,155.371,226.242,155.366,226.323Zm-1.945-6.4-4.484-4.263v.187c0,1.267.007,2.535-.006,3.8,0,.247.087.291.322.289,1.313-.01,2.627,0,3.94-.005C153.279,219.937,153.366,219.929,153.42,219.927Z" transform="translate(0 0)" fill="#613fb9"/>
      <path id="Path_9731" data-name="Path 9731" d="M211.764,412.983c-1.079,0-2.158,0-3.237,0-.154,0-.2-.046-.186-.192s-.049-.366.03-.461c.094-.111.31-.037.472-.038,2.056,0,4.113,0,6.169-.006.179,0,.22.052.217.221-.01.472,0,.472-.476.472Z" transform="translate(-67.46 -187.266)" fill="#613fb9"/>
      <path id="Path_9732" data-name="Path 9732" d="M210.925,521.91c-.723,0-1.447,0-2.17,0-.135,0-.188-.029-.187-.178,0-.516-.005-.516.513-.516,1.288,0,2.576,0,3.864,0,.161,0,.234.044.236.2a.84.84,0,0,0,.018.132c.063.36.063.36-.313.36Z" transform="translate(-68.136 -290.07)" fill="#613fb9"/>
      <path id="Path_9733" data-name="Path 9733" d="M210.822,467.612c-.691,0-1.383,0-2.074,0-.132,0-.171-.036-.172-.17,0-.521-.007-.521.5-.521,1.262,0,2.524,0,3.786,0,.153,0,.2.044.186.191s.07.377-.04.471c-.094.08-.3.028-.46.028C211.976,467.613,211.4,467.612,210.822,467.612Z" transform="translate(-68.169 -238.834)" fill="#613fb9"/>
    </g>
  </g>
</svg>
