<svg xmlns="http://www.w3.org/2000/svg" width="13.303" height="11.354" viewBox="0 0 13.303 11.354">
  <g id="Group_7057" data-name="Group 7057" opacity="0.264">
    <path id="Path_10478" data-name="Path 10478" d="M177.6,166.529l3.515-4.385a.9.9,0,0,1,1.465,0,1.527,1.527,0,0,1,0,1.827l-2.782,3.472,2.782,3.472a1.527,1.527,0,0,1,0,1.827.9.9,0,0,1-1.465,0l-3.515-4.385A1.528,1.528,0,0,1,177.6,166.529Z" transform="translate(-169.581 -161.765)" fill="#613fb9"/>
    <path id="Path_10479" data-name="Path 10479" d="M198.534,166.528l3.515-4.385a.9.9,0,0,1,1.465,0,1.527,1.527,0,0,1,0,1.827l-2.782,3.472,2.782,3.472a1.527,1.527,0,0,1,0,1.827.9.9,0,0,1-1.465,0l-3.515-4.385A1.528,1.528,0,0,1,198.534,166.528Z" transform="translate(-198.231 -161.765)" fill="#613fb9" opacity="0.387"/>
  </g>
</svg>
