<svg xmlns="http://www.w3.org/2000/svg" width="16.375" height="19.034" viewBox="0 0 16.375 19.034">
  <g id="Group_42856" data-name="Group 42856" transform="translate(197.535 -321.45)">
    <path id="Path_9069" data-name="Path 9069" d="M-166.611,327.7a6.261,6.261,0,0,1-6.268,6.235,6.263,6.263,0,0,1-6.2-6.3,6.216,6.216,0,0,1,6.241-6.188A6.212,6.212,0,0,1-166.611,327.7Zm-11.017-.025a4.805,4.805,0,0,0,4.779,4.8,4.808,4.808,0,0,0,4.788-4.79,4.829,4.829,0,0,0-4.779-4.809A4.828,4.828,0,0,0-177.628,327.679Z" transform="translate(-16.524 0)" fill="#f6f6f6"/>
    <path id="Path_9070" data-name="Path 9070" d="M-189.333,461.813a11.9,11.9,0,0,1,7.96,3.126c.268.241.294.376.022.638-.705.68-.692.694-1.458.069a10.258,10.258,0,0,0-13.446.291c-.308.276-.475.323-.778,0-.669-.718-.7-.708.077-1.347A11.9,11.9,0,0,1-189.333,461.813Z" transform="translate(0 -125.676)" fill="#f6f6f6"/>
  </g>
</svg>
